<svg width="130" height="121" viewBox="0 0 123 121" fill="none" xmlns="http://www.w3.org/2000/svg">
<path d="M61.5 121C95.4655 121 123 104.775 123 84.7598C123 64.7449 95.4655 48.5196 61.5 48.5196C27.5345 48.5196 0 64.7449 0 84.7598C0 104.775 27.5345 121 61.5 121Z" fill="#B498B9"/>
<path d="M25.5446 108.312C32.338 108.312 37.8451 105.067 37.8451 101.064C37.8451 97.0606 32.338 93.8153 25.5446 93.8153C18.7512 93.8153 13.2441 97.0606 13.2441 101.064C13.2441 105.067 18.7512 108.312 25.5446 108.312Z" fill="#E0E0E0"/>
<path d="M52.7191 106.3C68.2899 106.3 80.9126 98.862 80.9126 89.6866C80.9126 80.5113 68.2899 73.0732 52.7191 73.0732C37.1483 73.0732 24.5257 80.5113 24.5257 89.6866C24.5257 98.862 37.1483 106.3 52.7191 106.3Z" fill="#E0E0E0"/>
<path d="M91.4741 104.366C95.5455 104.366 98.8461 102.421 98.8461 100.021C98.8461 97.6219 95.5455 95.6768 91.4741 95.6768C87.4026 95.6768 84.1021 97.6219 84.1021 100.021C84.1021 102.421 87.4026 104.366 91.4741 104.366Z" fill="#E0E0E0"/>
<path d="M91.6534 89.9856C91.6534 89.9856 87.3098 85.7452 89.7818 78.6396C91.1673 74.6591 95.7605 71.7368 98.36 71.4612C98.36 71.4612 96.9433 73.094 96.3194 74.9061L93.0285 77.0927L96.0725 76.1463L95.4278 78.7462C95.4278 78.7462 92.6126 80.4491 92.1967 80.8261L95.2302 80.0332C95.2302 80.0332 94.9885 87.3493 91.6534 89.9856Z" fill="#877791"/>
<path opacity="0.4" d="M91.6534 89.9856C91.6534 89.9856 87.3098 85.7452 89.7818 78.6396C91.1673 74.6591 95.7605 71.7368 98.36 71.4612C98.36 71.4612 96.9433 73.094 96.3194 74.9061L93.0285 77.0927L96.0725 76.1463L95.4278 78.7462C95.4278 78.7462 92.6126 80.4491 92.1967 80.8261L95.2302 80.0332C95.2302 80.0332 94.9885 87.3493 91.6534 89.9856Z" fill="black"/>
<path d="M91.6534 89.9857C91.6534 89.9857 89.4049 81.1122 92.7296 75.9461C92.7322 75.9357 88.8331 80.5012 91.6534 89.9857Z" fill="white"/>
<path d="M96.6236 91.1868L91.3129 91.1192H91.2583L85.9347 91.1868C85.9347 91.1868 85.8749 97.7334 87.8921 100.396C88.4483 101.103 89.7532 101.602 91.2713 101.602C92.7894 101.602 94.1021 101.103 94.6506 100.393C96.6833 97.7256 96.6236 91.1868 96.6236 91.1868Z" fill="#37474F"/>
<path d="M91.2843 94.0545C94.2331 94.0545 96.6236 92.7706 96.6236 91.1868C96.6236 89.603 94.2331 88.3191 91.2843 88.3191C88.3355 88.3191 85.9451 89.603 85.9451 91.1868C85.9451 92.7706 88.3355 94.0545 91.2843 94.0545Z" fill="#455A64"/>
<path d="M91.2843 90.425C93.1221 90.425 94.6766 91.0152 95.2251 91.8315C95.36 91.6433 95.4344 91.4184 95.4382 91.1868C95.4382 90.0532 93.5796 89.1354 91.2791 89.1354C88.9786 89.1354 87.12 90.0532 87.12 91.1868C87.125 91.4182 87.1992 91.6428 87.3332 91.8315C87.8921 91.0152 89.4465 90.425 91.2843 90.425Z" fill="#263238"/>
<path d="M91.2843 93.2382C93.4607 93.2382 95.2251 92.6084 95.2251 91.8316C95.2251 91.0548 93.4607 90.425 91.2843 90.425C89.1079 90.425 87.3436 91.0548 87.3436 91.8316C87.3436 92.6084 89.1079 93.2382 91.2843 93.2382Z" fill="#E0E0E0"/>
<path d="M91.3493 92.1852C91.3493 92.1852 89.2932 92.1072 87.5281 89.3721C86.8003 88.2463 86.4494 87.6535 86.4494 87.6535L89.3088 87.4403L86.0958 86.637L84.5778 84.3126L87.2448 84.1151C87.2448 84.1151 85.2588 83.4209 83.8395 83.4105C83.8395 83.4105 81.3805 79.0634 80.6604 78.4446C82.5204 78.5591 84.3386 79.0454 86.0075 79.8746C87.6765 80.7039 89.1623 81.8593 90.3771 83.2727C94.4296 88.0565 91.9498 92.3074 91.3493 92.1852Z" fill="#877791"/>
<path d="M91.3493 92.1851C91.3493 92.1851 92.636 84.4322 84.4244 79.7679C84.4244 79.7679 92.9531 83.8654 91.3493 92.1851Z" fill="white"/>
<path d="M91.3493 92.1851C91.3493 92.1851 93.2131 92.3073 95.0639 90.0064C95.8281 89.06 96.1998 88.5583 96.1998 88.5583L93.6316 88.0955L96.6054 87.6717L98.1936 85.7192L95.8125 85.2902C95.8125 85.2902 97.6685 84.8508 98.95 84.9756C98.95 84.9756 101.578 81.2863 102.288 80.7949C100.598 80.7233 98.912 80.9911 97.3279 81.5823C95.7439 82.1735 94.2943 83.0763 93.0649 84.2372C88.9604 88.1709 90.7982 92.2397 91.3493 92.1851Z" fill="#877791"/>
<path opacity="0.2" d="M91.3493 92.1851C91.3493 92.1851 93.2131 92.3073 95.0639 90.0064C95.8281 89.06 96.1998 88.5583 96.1998 88.5583L93.6316 88.0955L96.6054 87.6717L98.1936 85.7192L95.8125 85.2902C95.8125 85.2902 97.6685 84.8508 98.95 84.9756C98.95 84.9756 101.578 81.2863 102.288 80.7949C100.598 80.7233 98.912 80.9911 97.3279 81.5823C95.7439 82.1735 94.2943 83.0763 93.0649 84.2372C88.9604 88.1709 90.7982 92.2397 91.3493 92.1851Z" fill="black"/>
<path d="M91.3493 92.1852C91.3493 92.1852 90.9178 85.0692 98.7681 81.6347C98.7681 81.6347 90.6916 84.5284 91.3493 92.1852Z" fill="white"/>
<path d="M45.1652 49.6141C45.2114 50.0173 45.1371 50.4251 44.9515 50.786C44.766 51.1469 44.4776 51.4447 44.1229 51.6416C43.7681 51.8385 43.363 51.9258 42.9586 51.8924C42.5543 51.8589 42.1689 51.7063 41.8513 51.4538C41.5337 51.2012 41.2981 50.8602 41.1744 50.4737C41.0506 50.0872 41.0442 49.6727 41.1561 49.2826C41.2679 48.8926 41.4929 48.5444 41.8026 48.2822C42.1122 48.0201 42.4927 47.8556 42.8959 47.8098C43.1633 47.779 43.4343 47.8013 43.6932 47.8754C43.952 47.9494 44.1938 48.0738 44.4045 48.2414C44.6153 48.409 44.791 48.6165 44.9215 48.852C45.052 49.0876 45.1348 49.3466 45.1652 49.6141Z" fill="#263238"/>
<path d="M47.0809 54.4656C47.1111 54.7307 47.0619 54.9988 46.9398 55.236C46.8176 55.4731 46.6279 55.6688 46.3946 55.7981C46.1613 55.9275 45.8949 55.9848 45.6291 55.9627C45.3632 55.9407 45.1099 55.8403 44.901 55.6743C44.6922 55.5083 44.5373 55.2841 44.4558 55.0301C44.3744 54.776 44.37 54.5035 44.4433 54.247C44.5167 53.9905 44.6644 53.7615 44.8678 53.5889C45.0713 53.4163 45.3213 53.308 45.5863 53.2775C45.7624 53.2572 45.9409 53.2719 46.1114 53.3206C46.2818 53.3694 46.4411 53.4513 46.5799 53.5616C46.7187 53.672 46.8344 53.8086 46.9204 53.9637C47.0064 54.1188 47.0609 54.2894 47.0809 54.4656Z" fill="#263238"/>
<path d="M106.868 52.6327C105.441 58.8361 101.867 64.0385 95.8281 66.9166C94.7582 67.4247 93.65 67.8481 92.5138 68.1828C80.4239 71.7707 77.4995 62.1614 74.8741 56.9537C72.2487 51.7461 67.7698 46.6139 53.9434 47.0351C40.1171 47.4563 33.9278 39.6695 33.6679 30.9936C33.148 12.6096 53.8655 2.63113 75.3264 6.25281C98.0272 10.0825 110.866 35.2627 106.868 52.6327Z" fill="#263238"/>
<path d="M47.6698 34.2705C51.4979 29.8953 51.0551 23.2447 46.6808 19.4159C42.3064 15.587 35.657 16.0299 31.8289 20.4051C28.0008 24.7803 28.4436 31.4309 32.818 35.2597C37.1923 39.0885 43.8417 38.6456 47.6698 34.2705Z" fill="#877791"/>
<path opacity="0.3" d="M47.6698 34.2705C51.4979 29.8953 51.0551 23.2447 46.6808 19.4159C42.3064 15.587 35.657 16.0299 31.8289 20.4051C28.0008 24.7803 28.4436 31.4309 32.818 35.2597C37.1923 39.0885 43.8417 38.6456 47.6698 34.2705Z" fill="white"/>
<path d="M51.3622 20.7837C50.6604 19.4993 48.8304 18.982 46.3947 19.1743C46.6777 19.4089 46.9476 19.6589 47.2031 19.9231C48.5028 19.9725 49.4334 20.3521 49.8312 21.0827C50.1925 21.7379 50.0755 22.6036 49.5712 23.5812C48.4249 25.8093 45.2717 28.6224 41.1127 30.8922C37.5956 32.8135 34.1358 33.9185 31.6455 34.0693C29.9039 34.1707 28.6354 33.8093 28.1519 32.9201C27.632 31.9607 28.1129 30.5568 29.3476 29.002C29.3216 28.8512 29.3008 28.6952 29.2852 28.5418C29.2696 28.3884 29.2514 28.2116 29.2384 28.0453C27.2161 30.328 26.3531 32.5249 27.1589 34.0017C27.9647 35.4784 30.1768 35.9204 33.0934 35.5044C35.6928 35.1326 38.8122 34.0589 41.9549 32.3429C45.5811 30.3644 48.4794 27.9231 50.1301 25.6897C51.5338 23.7892 52.0459 22.0291 51.3622 20.7837Z" fill="#877791"/>
<path d="M31.9886 25.123C31.9958 25.1858 31.9905 25.2494 31.9731 25.3102C31.9557 25.371 31.9265 25.4278 31.8871 25.4773C31.8478 25.5268 31.7991 25.568 31.7438 25.5987C31.6885 25.6293 31.6277 25.6488 31.5649 25.656C31.5021 25.6632 31.4385 25.6579 31.3777 25.6405C31.317 25.623 31.2602 25.5938 31.2107 25.5545C31.1612 25.5151 31.12 25.4664 31.0893 25.4111C31.0587 25.3558 31.0392 25.295 31.032 25.2322C31.0176 25.1053 31.0541 24.9779 31.1335 24.8779C31.213 24.778 31.3289 24.7137 31.4557 24.6992C31.5826 24.6847 31.71 24.7212 31.8099 24.8007C31.9099 24.8802 31.9742 24.9961 31.9886 25.123Z" fill="#877791"/>
<path d="M34.5517 22.8766C34.5624 22.9711 34.5448 23.0666 34.5012 23.1511C34.4576 23.2357 34.39 23.3053 34.3068 23.3514C34.2237 23.3975 34.1287 23.4179 34.034 23.41C33.9392 23.4021 33.8489 23.3663 33.7745 23.3071C33.7001 23.248 33.6449 23.1681 33.6159 23.0775C33.5869 22.987 33.5853 22.8898 33.6115 22.7984C33.6376 22.707 33.6902 22.6254 33.7627 22.5639C33.8352 22.5024 33.9243 22.4637 34.0188 22.4528C34.1455 22.4389 34.2726 22.4757 34.3724 22.555C34.4722 22.6344 34.5367 22.75 34.5517 22.8766Z" fill="#877791"/>
<path d="M48.1623 30.6036C48.173 30.6981 48.1554 30.7936 48.1118 30.8781C48.0683 30.9626 48.0006 31.0323 47.9175 31.0784C47.8343 31.1244 47.7393 31.1448 47.6446 31.137C47.5499 31.1291 47.4596 31.0933 47.3852 31.0341C47.3107 30.9749 47.2555 30.895 47.2265 30.8045C47.1975 30.7139 47.1959 30.6168 47.2221 30.5254C47.2482 30.434 47.3009 30.3523 47.3734 30.2908C47.4459 30.2293 47.535 30.1907 47.6294 30.1798C47.6922 30.1726 47.7559 30.1778 47.8167 30.1952C47.8775 30.2126 47.9342 30.2418 47.9837 30.2811C48.0332 30.3205 48.0745 30.3692 48.1051 30.4246C48.1358 30.4799 48.1552 30.5407 48.1623 30.6036Z" fill="#877791"/>
<path d="M33.6653 26.202C33.6798 26.3286 33.6565 26.4567 33.5983 26.5702C33.5401 26.6836 33.4495 26.7772 33.3381 26.8391C33.2267 26.9011 33.0995 26.9286 32.9724 26.9183C32.8454 26.9079 32.7243 26.8601 32.6244 26.7809C32.5245 26.7017 32.4503 26.5947 32.4112 26.4733C32.3721 26.352 32.3699 26.2217 32.4048 26.0991C32.4397 25.9765 32.5102 25.867 32.6073 25.7844C32.7044 25.7018 32.8238 25.6499 32.9504 25.6352C33.0346 25.6254 33.1198 25.6323 33.2013 25.6555C33.2828 25.6787 33.3589 25.7177 33.4253 25.7704C33.4917 25.823 33.5471 25.8882 33.5882 25.9623C33.6294 26.0363 33.6556 26.1178 33.6653 26.202Z" fill="#877791"/>
<path d="M47.0887 32.4495C47.1029 32.5763 47.0791 32.7043 47.0204 32.8176C46.9618 32.9308 46.8709 33.0241 46.7592 33.0856C46.6476 33.1472 46.5202 33.1742 46.3931 33.1634C46.2661 33.1525 46.1452 33.1042 46.0456 33.0246C45.946 32.945 45.8722 32.8376 45.8336 32.7161C45.795 32.5945 45.7933 32.4643 45.8288 32.3418C45.8642 32.2193 45.9351 32.1101 46.0326 32.0279C46.1301 31.9457 46.2498 31.8943 46.3765 31.8801C46.4606 31.8707 46.5458 31.878 46.6272 31.9015C46.7085 31.9251 46.7844 31.9644 46.8505 32.0173C46.9167 32.0701 46.9718 32.1355 47.0126 32.2097C47.0535 32.2839 47.0794 32.3654 47.0887 32.4495Z" fill="#877791"/>
<path d="M79.696 10.3555C79.0304 8.52371 78.9745 6.52584 79.5366 4.6597C80.0987 2.79356 81.2488 1.15911 82.8154 0C81.4109 0.0850885 80.0457 0.496971 78.8284 1.20285C77.6112 1.90873 76.5755 2.88911 75.8039 4.06593C75.0323 5.24275 74.546 6.58351 74.3838 7.98144C74.2217 9.37937 74.3881 10.7959 74.8697 12.1181C75.3514 13.4404 76.1351 14.6319 77.1585 15.5978C78.1818 16.5637 79.4164 17.2773 80.7641 17.6818C82.1118 18.0863 83.5353 18.1705 84.9212 17.9277C86.3072 17.6849 87.6173 17.1218 88.7473 16.2833C86.8012 16.4035 84.8685 15.8913 83.2373 14.823C81.6061 13.7547 80.3639 12.1876 79.696 10.3555Z" fill="#E0E0E0"/>
<path d="M59.0565 39.8151L59.3997 40.3506C59.4256 40.3906 59.461 40.4237 59.5027 40.4468C59.5444 40.4699 59.5911 40.4824 59.6388 40.4832L60.2731 40.504C60.3276 40.5053 60.3807 40.5219 60.4263 40.5519C60.4719 40.5819 60.5082 40.6241 60.5309 40.6737C60.5537 40.7233 60.5621 40.7783 60.5551 40.8324C60.5481 40.8865 60.526 40.9376 60.4914 40.9798L60.0885 41.4738C60.0596 41.5098 60.0396 41.5521 60.0302 41.5973C60.0207 41.6425 60.022 41.6892 60.0339 41.7338L60.2133 42.3448C60.2285 42.3973 60.2288 42.453 60.2141 42.5057C60.1994 42.5584 60.1703 42.6059 60.13 42.6429C60.0898 42.68 60.04 42.705 59.9863 42.7153C59.9325 42.7255 59.877 42.7206 59.826 42.701L59.2333 42.4696C59.1905 42.4543 59.1448 42.4492 59.0997 42.4546C59.0546 42.46 59.0113 42.4758 58.9734 42.5008L58.4535 42.8596C58.4081 42.8901 58.3551 42.9075 58.3005 42.9096C58.2458 42.9116 58.1917 42.8984 58.1441 42.8714C58.0966 42.8444 58.0575 42.8046 58.0313 42.7566C58.0052 42.7086 57.9929 42.6542 57.996 42.5996L58.0324 41.9678C58.0371 41.9183 58.029 41.8684 58.009 41.8229C57.989 41.7774 57.9577 41.7378 57.918 41.7078L57.4163 41.3204C57.3719 41.2872 57.3378 41.242 57.318 41.1902C57.2982 41.1384 57.2934 41.082 57.3043 41.0276C57.3152 40.9732 57.3412 40.923 57.3795 40.8828C57.4177 40.8426 57.4665 40.814 57.5203 40.8004L58.1337 40.6366C58.18 40.6247 58.2226 40.6016 58.258 40.5695C58.2933 40.5373 58.3203 40.497 58.3365 40.452L58.5496 39.8541C58.572 39.8076 58.6061 39.7679 58.6486 39.7388C58.6911 39.7098 58.7405 39.6924 58.7919 39.6884C58.8432 39.6845 58.8947 39.6941 58.9411 39.7163C58.9876 39.7385 59.0274 39.7726 59.0565 39.8151Z" fill="#E0E0E0"/>
<path d="M86.0803 57.8143L86.4234 58.3343C86.449 58.3742 86.4838 58.4074 86.525 58.431C86.5662 58.4545 86.6125 58.4677 86.6599 58.4695L87.2968 58.4877C87.3511 58.49 87.4038 58.5074 87.4489 58.5379C87.4939 58.5684 87.5296 58.6108 87.552 58.6604C87.5744 58.71 87.5825 58.7648 87.5756 58.8188C87.5686 58.8728 87.5468 58.9238 87.5125 58.966L87.1122 59.4574C87.0839 59.4937 87.0642 59.536 87.0548 59.5811C87.0453 59.6262 87.0463 59.6728 87.0576 59.7174L87.237 60.3284C87.2516 60.3808 87.2514 60.4361 87.2364 60.4884C87.2214 60.5407 87.1922 60.5877 87.1521 60.6244C87.112 60.661 87.0624 60.6858 87.009 60.696C86.9557 60.7062 86.9005 60.7013 86.8497 60.682L86.257 60.4532C86.2143 60.4373 86.1685 60.4319 86.1233 60.4373C86.0781 60.4427 86.0348 60.4589 85.9971 60.4844L85.4772 60.8406C85.4318 60.8712 85.3789 60.8885 85.3242 60.8906C85.2696 60.8927 85.2154 60.8795 85.1679 60.8524C85.1203 60.8254 85.0812 60.7857 85.0551 60.7376C85.0289 60.6896 85.0166 60.6352 85.0197 60.5806L85.0561 59.9462C85.0583 59.8989 85.0491 59.8517 85.0292 59.8087C85.0093 59.7657 84.9793 59.7281 84.9417 59.6992L84.44 59.3092C84.3956 59.276 84.3615 59.2308 84.3417 59.179C84.3219 59.1272 84.3172 59.0708 84.328 59.0164C84.3389 58.962 84.365 58.9118 84.4032 58.8716C84.4414 58.8314 84.4902 58.8029 84.544 58.7893L85.1549 58.6619C85.2007 58.6497 85.243 58.6266 85.2778 58.5944C85.3127 58.5622 85.3392 58.522 85.355 58.4773L85.5708 57.8793C85.5902 57.8306 85.6223 57.788 85.6637 57.7559C85.7052 57.7239 85.7544 57.7034 85.8064 57.6968C85.8584 57.6902 85.9112 57.6976 85.9593 57.7182C86.0075 57.7389 86.0492 57.7721 86.0803 57.8143Z" fill="#E0E0E0"/>
<path d="M50.6058 38.9311L50.7799 39.1911C50.7932 39.2116 50.8113 39.2284 50.8326 39.2402C50.8539 39.252 50.8778 39.2583 50.9021 39.2587H51.2219C51.2496 39.2593 51.2766 39.2677 51.2999 39.2829C51.3231 39.2981 51.3416 39.3195 51.3533 39.3447C51.3649 39.3699 51.3693 39.3979 51.3658 39.4254C51.3623 39.453 51.3512 39.479 51.3336 39.5005L51.1309 39.7605C51.1155 39.779 51.1048 39.801 51.0999 39.8246C51.0949 39.8481 51.0957 39.8725 51.1023 39.8957L51.1933 40.2025C51.2011 40.2292 51.2013 40.2576 51.1938 40.2844C51.1863 40.3113 51.1714 40.3354 51.1508 40.3542C51.1301 40.3729 51.1046 40.3854 51.0772 40.3903C51.0498 40.3952 51.0215 40.3923 50.9957 40.3819L50.6968 40.2675C50.6743 40.2584 50.65 40.2551 50.6259 40.2578C50.6019 40.2605 50.5789 40.2692 50.559 40.2831L50.2991 40.4625C50.2763 40.478 50.2496 40.4868 50.222 40.488C50.1945 40.4892 50.1672 40.4827 50.1431 40.4692C50.1191 40.4557 50.0993 40.4357 50.086 40.4116C50.0726 40.3874 50.0663 40.36 50.0677 40.3325L50.0859 40.0127C50.0873 39.9884 50.0829 39.9641 50.0729 39.942C50.063 39.9198 50.0478 39.9003 50.0287 39.8853L49.7688 39.6903C49.7471 39.6732 49.7305 39.6504 49.7211 39.6244C49.7117 39.5985 49.7097 39.5704 49.7154 39.5433C49.721 39.5163 49.7342 39.4914 49.7532 39.4714C49.7723 39.4514 49.7966 39.4372 49.8234 39.4303L50.1327 39.3471C50.156 39.3411 50.1775 39.3294 50.1952 39.3131C50.2129 39.2967 50.2262 39.2763 50.2341 39.2535L50.3432 38.9519C50.353 38.9261 50.3699 38.9036 50.392 38.887C50.4141 38.8704 50.4404 38.8604 50.4679 38.8582C50.4954 38.8561 50.523 38.8618 50.5474 38.8747C50.5718 38.8876 50.5921 38.9071 50.6058 38.9311Z" fill="#E0E0E0"/>
<path d="M56.179 29.0618L56.3531 29.3218C56.3658 29.3422 56.3834 29.3591 56.4043 29.3709C56.4252 29.3827 56.4487 29.3891 56.4727 29.3894H56.795C56.8226 29.3905 56.8493 29.3992 56.8721 29.4146C56.895 29.4299 56.9131 29.4514 56.9244 29.4765C56.9358 29.5016 56.9399 29.5294 56.9363 29.5567C56.9327 29.5841 56.9216 29.6099 56.9042 29.6312L56.7014 29.8912C56.6859 29.9096 56.6753 29.9317 56.6707 29.9554C56.6662 29.9791 56.6678 30.0035 56.6754 30.0264L56.7638 30.3332C56.772 30.3598 56.7726 30.3882 56.7654 30.4151C56.7583 30.442 56.7437 30.4663 56.7234 30.4853C56.703 30.5043 56.6777 30.5172 56.6504 30.5224C56.6231 30.5277 56.5948 30.5252 56.5689 30.5152L56.2699 30.3982C56.2475 30.3891 56.2231 30.3858 56.1991 30.3885C56.175 30.3913 56.152 30.3999 56.1322 30.4138L55.8722 30.5932C55.8494 30.6087 55.8228 30.6176 55.7952 30.6187C55.7677 30.6199 55.7403 30.6134 55.7163 30.5999C55.6922 30.5864 55.6724 30.5664 55.6591 30.5423C55.6458 30.5181 55.6395 30.4907 55.6409 30.4632L55.6591 30.1434C55.6608 30.1195 55.6564 30.0955 55.6464 30.0737C55.6364 30.0519 55.6211 30.0329 55.6019 30.0186L55.3419 29.821C55.3202 29.8041 55.3036 29.7815 55.294 29.7557C55.2844 29.7299 55.2822 29.7019 55.2876 29.6749C55.293 29.6479 55.3058 29.623 55.3246 29.6029C55.3434 29.5827 55.3674 29.5683 55.3939 29.561L55.7059 29.4778C55.7292 29.4718 55.7506 29.4601 55.7683 29.4438C55.786 29.4275 55.7994 29.407 55.8072 29.3842L55.9164 29.0826C55.9269 29.0575 55.9442 29.0358 55.9662 29.0199C55.9882 29.0039 56.0142 28.9944 56.0413 28.9922C56.0685 28.9901 56.0956 28.9954 56.1199 29.0077C56.1442 29.02 56.1646 29.0387 56.179 29.0618Z" fill="#E0E0E0"/>
<path d="M69.5063 12.2378L69.6804 12.4978C69.6932 12.518 69.7109 12.5348 69.7317 12.5466C69.7526 12.5584 69.776 12.5648 69.8 12.5654H70.1223C70.1499 12.5664 70.1766 12.5751 70.1994 12.5905C70.2223 12.6059 70.2404 12.6274 70.2517 12.6525C70.2631 12.6776 70.2672 12.7054 70.2636 12.7327C70.26 12.76 70.2489 12.7858 70.2315 12.8072L70.0287 13.0672C70.0134 13.0857 70.0029 13.1078 69.9984 13.1314C69.9939 13.1551 69.9954 13.1795 70.0027 13.2024L70.0911 13.5118C70.0987 13.5382 70.0988 13.5662 70.0913 13.5927C70.0839 13.6192 70.0692 13.643 70.049 13.6616C70.0288 13.6803 70.0038 13.6929 69.9768 13.6981C69.9498 13.7033 69.9219 13.7009 69.8962 13.6912L69.5972 13.5742C69.5746 13.5662 69.5504 13.5634 69.5266 13.5661C69.5027 13.5688 69.4797 13.5769 69.4595 13.5898L69.1995 13.7718C69.1767 13.7873 69.1501 13.7961 69.1225 13.7973C69.095 13.7985 69.0676 13.792 69.0436 13.7784C69.0195 13.7649 68.9997 13.745 68.9864 13.7208C68.9731 13.6967 68.9668 13.6693 68.9682 13.6418L68.9864 13.3194C68.9868 13.2956 68.9819 13.2721 68.972 13.2505C68.9621 13.2289 68.9474 13.2098 68.9292 13.1946L68.6692 12.997C68.6475 12.9801 68.6309 12.9575 68.6213 12.9317C68.6117 12.9059 68.6095 12.8779 68.6149 12.8509C68.6203 12.8239 68.6331 12.799 68.6519 12.7788C68.6707 12.7587 68.6947 12.7442 68.7212 12.737L69.0332 12.6564C69.0563 12.65 69.0775 12.6382 69.0952 12.6219C69.1128 12.6056 69.1263 12.5853 69.1345 12.5628L69.2411 12.2612C69.2511 12.2353 69.2681 12.2127 69.2902 12.196C69.3124 12.1794 69.3388 12.1692 69.3664 12.1668C69.394 12.1643 69.4218 12.1697 69.4465 12.1823C69.4712 12.1948 69.4919 12.2141 69.5063 12.2378Z" fill="#E0E0E0"/>
<path d="M82.7998 20.6303L82.9739 20.8903C82.9872 20.9101 83.005 20.9265 83.0257 20.9382C83.0465 20.95 83.0697 20.9567 83.0935 20.9579H83.4132C83.441 20.9585 83.468 20.9668 83.4913 20.982C83.5145 20.9972 83.533 21.0187 83.5446 21.0439C83.5563 21.0691 83.5606 21.0971 83.5572 21.1246C83.5537 21.1522 83.5425 21.1782 83.525 21.1997L83.3222 21.4597C83.3071 21.4783 83.2965 21.5003 83.2916 21.5238C83.2866 21.5473 83.2873 21.5717 83.2936 21.5949L83.3846 21.9043C83.3925 21.931 83.3927 21.9594 83.3852 21.9862C83.3777 22.0131 83.3628 22.0372 83.3421 22.056C83.3215 22.0747 83.296 22.0872 83.2686 22.0921C83.2412 22.097 83.2129 22.0941 83.1871 22.0837L82.8881 21.9667C82.8659 21.9589 82.8422 21.9563 82.8188 21.959C82.7954 21.9617 82.7729 21.9696 82.753 21.9823L82.493 22.1643C82.4702 22.1798 82.4436 22.1886 82.416 22.1898C82.3885 22.191 82.3611 22.1845 82.3371 22.171C82.313 22.1574 82.2932 22.1375 82.2799 22.1133C82.2666 22.0892 82.2603 22.0618 82.2617 22.0343L82.2799 21.7119C82.2809 21.688 82.2762 21.6643 82.2663 21.6426C82.2564 21.6209 82.2414 21.6019 82.2227 21.5871L81.9627 21.3895C81.941 21.3724 81.9245 21.3496 81.9151 21.3236C81.9056 21.2977 81.9036 21.2696 81.9093 21.2425C81.915 21.2155 81.9281 21.1906 81.9472 21.1706C81.9663 21.1506 81.9906 21.1364 82.0173 21.1295L82.3267 21.0489C82.3497 21.0423 82.3709 21.0304 82.3885 21.0141C82.4061 20.9979 82.4196 20.9777 82.428 20.9553L82.5372 20.6511C82.5477 20.626 82.565 20.6043 82.587 20.5884C82.609 20.5724 82.635 20.5629 82.6621 20.5607C82.6893 20.5586 82.7164 20.5639 82.7407 20.5762C82.765 20.5885 82.7854 20.6072 82.7998 20.6303Z" fill="#E0E0E0"/>
<path d="M50.7566 13.0567L50.9307 13.3167C50.9443 13.3371 50.9624 13.354 50.9836 13.3661C51.0048 13.3783 51.0285 13.3854 51.0529 13.3869H51.3726C51.4 13.3884 51.4264 13.3974 51.449 13.4127C51.4717 13.4281 51.4897 13.4494 51.5012 13.4742C51.5127 13.4991 51.5172 13.5266 51.5142 13.5538C51.5113 13.581 51.501 13.6069 51.4844 13.6287L51.279 13.8887C51.2647 13.9078 51.2548 13.9298 51.2503 13.9533C51.2458 13.9767 51.2468 14.0009 51.253 14.0239L51.344 14.3333C51.3519 14.36 51.3521 14.3884 51.3446 14.4153C51.3371 14.4421 51.3221 14.4663 51.3015 14.485C51.2809 14.5037 51.2554 14.5163 51.228 14.5212C51.2006 14.5261 51.1723 14.5231 51.1465 14.5127L50.8423 14.4009C50.8198 14.3925 50.7955 14.3895 50.7716 14.3922C50.7477 14.3949 50.7247 14.4033 50.7046 14.4165L50.4446 14.5985C50.4218 14.614 50.3952 14.6229 50.3676 14.624C50.3401 14.6252 50.3127 14.6187 50.2887 14.6052C50.2646 14.5917 50.2448 14.5717 50.2315 14.5476C50.2182 14.5234 50.2119 14.496 50.2133 14.4685L50.2315 14.1461C50.2332 14.1222 50.2288 14.0982 50.2188 14.0764C50.2088 14.0546 50.1935 14.0356 50.1743 14.0213L49.9143 13.8237C49.8926 13.8066 49.8761 13.7838 49.8667 13.7579C49.8572 13.7319 49.8552 13.7038 49.8609 13.6768C49.8666 13.6497 49.8797 13.6248 49.8988 13.6048C49.9179 13.5849 49.9422 13.5706 49.9689 13.5637L50.2783 13.4805C50.3014 13.475 50.3228 13.4638 50.3405 13.4479C50.3582 13.432 50.3716 13.4119 50.3796 13.3895L50.4888 13.0853C50.4978 13.0585 50.5144 13.0348 50.5365 13.017C50.5586 12.9993 50.5853 12.9882 50.6135 12.9852C50.6417 12.9822 50.6702 12.9873 50.6955 13C50.7209 13.0127 50.7421 13.0324 50.7566 13.0567Z" fill="#E0E0E0"/>
<path d="M79.0774 52.3233L79.2515 52.5833C79.2657 52.6029 79.2839 52.6191 79.3051 52.6308C79.3262 52.6425 79.3496 52.6493 79.3737 52.6509H79.6934C79.7208 52.6524 79.7472 52.6613 79.7698 52.6767C79.7925 52.6921 79.8105 52.7133 79.822 52.7382C79.8335 52.763 79.838 52.7905 79.835 52.8178C79.8321 52.845 79.8218 52.8709 79.8052 52.8927L79.5999 53.1527C79.5855 53.1717 79.5757 53.1938 79.5711 53.2173C79.5666 53.2407 79.5676 53.2649 79.5739 53.2879L79.6648 53.5973C79.6727 53.624 79.6729 53.6524 79.6654 53.6792C79.6579 53.7061 79.643 53.7302 79.6223 53.749C79.6017 53.7677 79.5762 53.7802 79.5488 53.7851C79.5214 53.79 79.4931 53.7871 79.4673 53.7767L79.1684 53.6597C79.1458 53.6513 79.1215 53.6483 79.0976 53.651C79.0737 53.6537 79.0507 53.662 79.0306 53.6753L78.7706 53.8573C78.7478 53.8728 78.7212 53.8816 78.6936 53.8828C78.6661 53.884 78.6387 53.8775 78.6147 53.8639C78.5907 53.8504 78.5709 53.8305 78.5575 53.8063C78.5442 53.7822 78.5379 53.7548 78.5393 53.7273L78.5575 53.4049C78.5592 53.3809 78.5548 53.357 78.5448 53.3352C78.5349 53.3134 78.5195 53.2944 78.5003 53.2801L78.2404 53.0825C78.2186 53.0656 78.202 53.043 78.1924 53.0172C78.1828 52.9914 78.1806 52.9634 78.186 52.9364C78.1914 52.9094 78.2042 52.8845 78.223 52.8643C78.2418 52.8442 78.2658 52.8297 78.2923 52.8225L78.6043 52.7419C78.6273 52.7353 78.6485 52.7234 78.6661 52.7071C78.6837 52.6909 78.6972 52.6707 78.7057 52.6483L78.8148 52.3441C78.8253 52.319 78.8426 52.2973 78.8646 52.2814C78.8867 52.2654 78.9127 52.2558 78.9398 52.2537C78.9669 52.2515 78.9941 52.2569 79.0183 52.2692C79.0426 52.2815 79.063 52.3002 79.0774 52.3233Z" fill="#E0E0E0"/>
<path d="M99.8416 46.3383L100.016 46.5983C100.028 46.6187 100.046 46.6356 100.067 46.6474C100.088 46.6592 100.111 46.6656 100.135 46.6659H100.458C100.485 46.6669 100.512 46.6756 100.535 46.691C100.558 46.7064 100.576 46.7278 100.587 46.753C100.598 46.7781 100.603 46.8059 100.599 46.8332C100.595 46.8605 100.584 46.8863 100.567 46.9077L100.364 47.1677C100.349 47.1861 100.338 47.2082 100.333 47.2318C100.329 47.2555 100.33 47.28 100.338 47.3029L100.427 47.6096C100.435 47.6362 100.436 47.6647 100.429 47.6917C100.422 47.7187 100.407 47.7431 100.387 47.762C100.366 47.781 100.341 47.7936 100.313 47.7983C100.286 47.8031 100.257 47.7999 100.232 47.789L99.9326 47.6746C99.9102 47.6653 99.8858 47.6619 99.8617 47.6646C99.8376 47.6673 99.8146 47.6762 99.7949 47.6902L99.5349 47.8696C99.5121 47.8852 99.4854 47.894 99.4579 47.8952C99.4303 47.8964 99.403 47.8898 99.379 47.8763C99.3549 47.8628 99.3351 47.8429 99.3218 47.8187C99.3085 47.7946 99.3022 47.7672 99.3036 47.7396L99.3218 47.4198C99.3232 47.3956 99.3187 47.3713 99.3088 47.3491C99.2988 47.3269 99.2837 47.3075 99.2646 47.2925L99.0046 47.0975C98.9829 47.0806 98.9663 47.0579 98.9567 47.0321C98.9471 47.0063 98.9449 46.9784 98.9503 46.9514C98.9557 46.9244 98.9685 46.8994 98.9873 46.8793C99.006 46.8592 99.0301 46.8447 99.0566 46.8375L99.3685 46.7543C99.3917 46.7479 99.4129 46.736 99.4306 46.7198C99.4482 46.7035 99.4617 46.6832 99.4699 46.6607L99.5791 46.3591C99.5889 46.3332 99.6058 46.3107 99.6278 46.2941C99.6499 46.2776 99.6762 46.2676 99.7038 46.2654C99.7313 46.2632 99.7589 46.2689 99.7833 46.2818C99.8077 46.2947 99.8279 46.3143 99.8416 46.3383Z" fill="#E0E0E0"/>
<path d="M101.578 34.8493L101.752 35.1092C101.765 35.1298 101.782 35.1468 101.803 35.1587C101.824 35.1705 101.848 35.1768 101.872 35.1768H102.194C102.222 35.1779 102.248 35.1866 102.271 35.202C102.294 35.2174 102.312 35.2388 102.324 35.2639C102.335 35.2891 102.339 35.3168 102.335 35.3442C102.332 35.3715 102.321 35.3973 102.303 35.4186L102.101 35.6786C102.085 35.6971 102.075 35.7191 102.07 35.7427C102.065 35.7662 102.065 35.7907 102.072 35.8138L102.163 36.1206C102.172 36.1472 102.172 36.1756 102.165 36.2027C102.158 36.2297 102.144 36.2541 102.123 36.273C102.103 36.2919 102.077 36.3045 102.05 36.3093C102.022 36.3141 101.994 36.3109 101.968 36.3L101.666 36.1856C101.644 36.1765 101.62 36.1732 101.597 36.1759C101.573 36.1787 101.551 36.1874 101.531 36.2012L101.271 36.3806C101.249 36.3961 101.222 36.405 101.194 36.4062C101.167 36.4073 101.139 36.4008 101.115 36.3873C101.091 36.3738 101.072 36.3538 101.058 36.3297C101.045 36.3055 101.039 36.2782 101.04 36.2506L101.056 35.9308C101.057 35.9065 101.053 35.8821 101.043 35.8598C101.033 35.8376 101.018 35.8182 100.998 35.8034L100.738 35.6084C100.717 35.5915 100.7 35.5689 100.691 35.5431C100.681 35.5173 100.679 35.4894 100.684 35.4624C100.689 35.4354 100.702 35.4104 100.721 35.3903C100.74 35.3702 100.764 35.3557 100.79 35.3484L101.1 35.2652C101.123 35.2592 101.145 35.2475 101.163 35.2312C101.181 35.2149 101.195 35.1945 101.204 35.1716L101.31 34.8701C101.32 34.8436 101.337 34.8206 101.36 34.8037C101.383 34.7867 101.409 34.7766 101.438 34.7744C101.466 34.7722 101.494 34.7781 101.519 34.7913C101.544 34.8046 101.564 34.8247 101.578 34.8493Z" fill="#E0E0E0"/>
<path d="M92.4333 47.7682L92.6074 48.0282C92.6207 48.0486 92.6387 48.0655 92.66 48.0773C92.6814 48.0891 92.7052 48.0954 92.7296 48.0958H93.0493C93.0771 48.0964 93.1041 48.1047 93.1273 48.1199C93.1506 48.1351 93.1691 48.1565 93.1807 48.1818C93.1924 48.207 93.1967 48.2349 93.1933 48.2625C93.1898 48.29 93.1786 48.316 93.1611 48.3376L92.9557 48.5976C92.9414 48.6166 92.9315 48.6387 92.927 48.6621C92.9225 48.6856 92.9235 48.7097 92.9297 48.7328L93.0207 49.0396C93.0282 49.0663 93.0281 49.0946 93.0205 49.1214C93.0129 49.1481 92.9981 49.1722 92.9777 49.1911C92.9572 49.2099 92.932 49.2227 92.9047 49.2281C92.8775 49.2335 92.8492 49.2312 92.8232 49.2215L92.5242 49.1046C92.5018 49.0955 92.4774 49.0922 92.4534 49.0949C92.4293 49.0976 92.4063 49.1063 92.3865 49.1201L92.1265 49.3021C92.1034 49.3168 92.0766 49.3249 92.0492 49.3255C92.0218 49.3261 91.9947 49.3192 91.9709 49.3056C91.9471 49.2919 91.9275 49.2721 91.9141 49.2481C91.9008 49.2241 91.8942 49.197 91.8952 49.1695L91.9134 48.8498C91.9151 48.8258 91.9107 48.8019 91.9007 48.78C91.8907 48.7582 91.8754 48.7393 91.8562 48.725L91.5962 48.5274C91.5745 48.5103 91.558 48.4875 91.5486 48.4615C91.5391 48.4355 91.5371 48.4075 91.5428 48.3804C91.5485 48.3534 91.5616 48.3285 91.5807 48.3085C91.5998 48.2885 91.6241 48.2743 91.6508 48.2674L91.9602 48.1842C91.9835 48.1782 92.0049 48.1665 92.0226 48.1502C92.0403 48.1338 92.0537 48.1134 92.0615 48.0906L92.1707 47.789C92.1812 47.7639 92.1985 47.7422 92.2205 47.7262C92.2425 47.7103 92.2685 47.7007 92.2956 47.6986C92.3228 47.6964 92.3499 47.7018 92.3742 47.7141C92.3985 47.7263 92.4189 47.7451 92.4333 47.7682Z" fill="#E0E0E0"/>
<path d="M106.868 52.6327C106.257 55.4066 105.123 58.0387 103.528 60.3882C101.887 62.7828 99.721 64.7711 97.1954 66.2016C96.7535 66.4599 96.2977 66.6999 95.8281 66.9218C94.0754 65.411 92.9688 63.2854 92.7363 60.9829C92.5037 58.6804 93.1628 56.3764 94.5779 54.5454C95.993 52.7145 98.0563 51.4961 100.343 51.1412C102.629 50.7863 104.965 51.322 106.868 52.6379V52.6327Z" fill="#877791"/>
<path d="M106.868 52.6327C106.257 55.4066 105.123 58.0387 103.528 60.3882C103.136 60.0749 102.871 59.6308 102.782 59.1377C102.563 57.9131 102.945 56.4415 103.057 55.2066C103.126 54.782 103.103 54.3475 102.99 53.9326C102.929 53.7283 102.805 53.5481 102.637 53.4172C102.469 53.2862 102.264 53.211 102.051 53.202C101.9 53.2176 101.753 53.2673 101.624 53.3475C101.494 53.4276 101.384 53.5361 101.303 53.6648C100.833 54.4037 100.545 55.2427 100.46 56.114C100.395 56.7119 100.219 57.5595 99.3737 57.4373C99.243 57.411 99.12 57.3551 99.0142 57.274C98.9083 57.1929 98.8224 57.0887 98.7629 56.9693C98.6458 56.7307 98.5744 56.4724 98.5523 56.2076C98.4717 55.5212 98.5523 54.567 98.4509 53.6934C98.3756 53.0019 98.191 52.3649 97.7595 51.9489C99.201 51.246 100.804 50.9397 102.403 51.0617C104.002 51.1838 105.539 51.7296 106.858 52.6431L106.868 52.6327Z" fill="#877791"/>
<path opacity="0.6" d="M106.868 52.6327C106.257 55.4066 105.123 58.0387 103.528 60.3882C103.136 60.0749 102.871 59.6308 102.782 59.1377C102.563 57.9131 102.945 56.4415 103.057 55.2066C103.126 54.782 103.103 54.3475 102.99 53.9326C102.929 53.7283 102.805 53.5481 102.637 53.4172C102.469 53.2862 102.264 53.211 102.051 53.202C101.9 53.2176 101.753 53.2673 101.624 53.3475C101.494 53.4276 101.384 53.5361 101.303 53.6648C100.833 54.4037 100.545 55.2427 100.46 56.114C100.395 56.7119 100.219 57.5595 99.3737 57.4373C99.243 57.411 99.12 57.3551 99.0142 57.274C98.9083 57.1929 98.8224 57.0887 98.7629 56.9693C98.6458 56.7307 98.5744 56.4724 98.5523 56.2076C98.4717 55.5212 98.5523 54.567 98.4509 53.6934C98.3756 53.0019 98.191 52.3649 97.7595 51.9489C99.201 51.246 100.804 50.9397 102.403 51.0617C104.002 51.1838 105.539 51.7296 106.858 52.6431L106.868 52.6327Z" fill="white"/>
<path d="M97.1954 66.2016C96.7535 66.4599 96.2977 66.6999 95.8281 66.9218C95.0283 66.237 94.3552 65.4168 93.8395 64.4987C93.9487 63.9527 94.0995 63.4223 94.2217 62.9725C94.3226 62.5226 94.4984 62.0929 94.7415 61.7011C94.8672 61.5066 95.0315 61.34 95.2242 61.2117C95.417 61.0833 95.634 60.9959 95.8619 60.955C95.9863 60.9342 96.1137 60.9402 96.2356 60.9725C96.3575 61.0048 96.4711 61.0626 96.5689 61.1422C96.7333 61.3169 96.8333 61.5425 96.8523 61.7817C97.0108 63.0063 96.3012 64.2231 96.4598 65.4528C96.4732 65.6483 96.5458 65.8351 96.6677 65.9884C96.7337 66.0616 96.8156 66.1189 96.907 66.1558C96.9984 66.1928 97.097 66.2084 97.1954 66.2016Z" fill="#877791"/>
<path opacity="0.6" d="M97.1954 66.2016C96.7535 66.4599 96.2977 66.6999 95.8281 66.9218C95.0283 66.237 94.3552 65.4168 93.8395 64.4987C93.9487 63.9527 94.0995 63.4223 94.2217 62.9725C94.3226 62.5226 94.4984 62.0929 94.7415 61.7011C94.8672 61.5066 95.0315 61.34 95.2242 61.2117C95.417 61.0833 95.634 60.9959 95.8619 60.955C95.9863 60.9342 96.1137 60.9402 96.2356 60.9725C96.3575 61.0048 96.4711 61.0626 96.5689 61.1422C96.7333 61.3169 96.8333 61.5425 96.8523 61.7817C97.0108 63.0063 96.3012 64.2231 96.4598 65.4528C96.4732 65.6483 96.5458 65.8351 96.6677 65.9884C96.7337 66.0616 96.8156 66.1189 96.907 66.1558C96.9984 66.1928 97.097 66.2084 97.1954 66.2016Z" fill="white"/>
<path d="M100.32 61.6284L100.117 62.606C100.068 62.8389 99.9283 63.0429 99.7292 63.1735C99.53 63.304 99.2873 63.3505 99.054 63.3027C98.8211 63.2533 98.6171 63.1138 98.4866 62.9146C98.3561 62.7154 98.3097 62.4727 98.3574 62.2394L98.5627 61.2592C98.6121 61.0264 98.7517 60.8226 98.9509 60.6924C99.1502 60.5623 99.3929 60.5165 99.6259 60.565C99.7415 60.5888 99.8513 60.6353 99.9488 60.7017C100.046 60.7682 100.13 60.8533 100.194 60.9521C100.259 61.051 100.303 61.1616 100.325 61.2777C100.346 61.3938 100.345 61.513 100.32 61.6284Z" fill="#877791"/>
<path opacity="0.6" d="M100.32 61.6284L100.117 62.606C100.068 62.8389 99.9283 63.0429 99.7292 63.1735C99.53 63.304 99.2873 63.3505 99.054 63.3027C98.8211 63.2533 98.6171 63.1138 98.4866 62.9146C98.3561 62.7154 98.3097 62.4727 98.3574 62.2394L98.5627 61.2592C98.6121 61.0264 98.7517 60.8226 98.9509 60.6924C99.1502 60.5623 99.3929 60.5165 99.6259 60.565C99.7415 60.5888 99.8513 60.6353 99.9488 60.7017C100.046 60.7682 100.13 60.8533 100.194 60.9521C100.259 61.051 100.303 61.1616 100.325 61.2777C100.346 61.3938 100.345 61.513 100.32 61.6284Z" fill="white"/>
<path d="M72.8465 29.3426L72.7504 29.379C72.6237 29.2099 72.4528 29.079 72.2565 29.0007C72.0602 28.9224 71.8462 28.8997 71.6379 28.9352C71.4295 28.9707 71.2351 29.063 71.0758 29.2019C70.9165 29.3408 70.7986 29.5209 70.7351 29.7225C70.6715 29.924 70.6648 30.1392 70.7156 30.3444C70.7664 30.5495 70.8728 30.7367 71.0231 30.8853C71.1733 31.0339 71.3617 31.1381 71.5674 31.1866C71.773 31.2351 71.9881 31.2258 72.1889 31.16L72.2877 31.121C72.4142 31.2905 72.5852 31.4218 72.7816 31.5004C72.978 31.5789 73.1923 31.6017 73.4009 31.5663C73.6094 31.5308 73.8041 31.4384 73.9635 31.2993C74.123 31.1602 74.2409 30.9798 74.3043 30.778C74.3678 30.5761 74.3742 30.3607 74.3231 30.1554C74.2719 29.9501 74.165 29.7629 74.0143 29.6144C73.8635 29.466 73.6747 29.3621 73.4687 29.3141C73.2626 29.2662 73.0473 29.276 72.8465 29.3426Z" fill="#37474F"/>
<path d="M63.7511 30.081C63.7511 30.081 62.6723 29.1373 62.7113 30.1512C62.7113 30.1512 62.1914 30.1512 62.3786 30.6972C62.3786 30.6972 61.7027 30.783 62.1602 31.4434C62.4768 31.8772 62.8603 32.2581 63.2962 32.5718L64.1826 30.432L63.7511 30.081Z" fill="white"/>
<path d="M72.3968 30.7284L69.1813 34.8518L65.3628 32.1765C65.3628 32.1765 65.1756 29.6026 64.2814 29.5922C63.3872 29.5818 62.7789 30.8922 63.3014 30.8168C63.6225 30.769 63.925 30.6361 64.1774 30.432L63.0337 32.3611C63.3736 32.6597 63.7501 32.914 64.154 33.1177C64.154 33.1177 67.6243 37.6416 69.4569 37.6494C70.0001 37.6494 73.1299 33.9939 73.1299 33.9939L73.239 30.6322L72.3968 30.7284Z" fill="white"/>
<path d="M85.4616 31.2666L86.452 31.0066C86.452 31.0066 86.8913 28.4248 87.5853 27.2835C88.2794 26.1421 89.2854 24.5016 89.2438 23.7424C89.2022 22.9832 88.9838 22.0733 90.0834 21.8393C91.1829 21.6053 91.4871 21.0593 91.7808 20.8773C92.0745 20.6953 93.3405 20.0583 94.4244 20.7707C94.5211 20.7305 94.6296 20.7298 94.7268 20.7687C94.824 20.8075 94.902 20.8829 94.9443 20.9787C94.9443 20.9787 94.9833 21.1191 94.4868 21.4493C93.9903 21.7795 92.1213 23.0092 91.6768 23.5916C91.109 24.2364 90.7351 25.0287 90.5981 25.8769C90.3381 27.1249 89.5973 30.8662 89.4101 31.7995C89.223 32.7329 89.0228 33.3413 87.6503 33.4999C86.2778 33.6585 85.4616 31.2666 85.4616 31.2666Z" fill="white"/>
<path d="M88.9266 34.4671L90.8736 34.6985C90.8736 34.6985 92.3293 32.5223 93.4289 31.7632C94.5284 31.004 96.1167 29.9198 96.3896 29.2101C96.6625 28.5003 96.8341 27.5799 97.9337 27.8165C99.0332 28.0531 99.5349 27.6787 99.8728 27.6319C100.211 27.5851 101.638 27.5227 102.332 28.6173C102.435 28.6213 102.532 28.665 102.603 28.7392C102.674 28.8133 102.714 28.9122 102.714 29.0151C102.714 29.0151 102.693 29.1581 102.103 29.2568C101.513 29.3556 99.3062 29.7196 98.6719 30.0628C97.8909 30.4207 97.2261 30.991 96.7535 31.7086C96.0127 32.7485 93.8006 35.8554 93.2495 36.6276C92.6984 37.3998 92.662 37.6026 88.9864 37.8626C87.6087 37.9692 88.9266 34.4671 88.9266 34.4671Z" fill="white"/>
<path d="M77.4163 30.7362L78.2533 30.9234C78.2533 30.9234 78.8434 32.8577 80.2731 32.6939C81.7028 32.5301 83.9123 30.2604 83.9123 30.2604C83.9123 30.2604 85.5708 30.2604 86.27 31.7034C86.5975 32.3767 86.7561 32.7693 87.5879 32.9773C88.4197 33.1853 89.3867 34.0641 88.9344 35.7852C88.7837 36.3546 88.5861 36.6614 88.9032 37.5714C89.2204 38.4813 88.6849 39.5525 88.6849 39.5525C88.6849 39.5525 85.2068 40.4755 81.8536 38.9155C81.8536 38.9155 77.2084 39.3419 75.0534 37.3244C75.0534 37.3244 72.3578 37.5844 72.5528 33.8457C72.6308 32.3559 72.9427 30.2058 72.9427 30.2058L77.4163 30.7362Z" fill="#877791"/>
<path d="M79.1762 27.3121C79.1222 27.1472 79.027 26.9988 78.8996 26.8809C78.7723 26.7631 78.6169 26.6797 78.4483 26.6387C78.2978 26.5986 78.1616 26.5167 78.0554 26.4027C77.9492 26.2887 77.8773 26.147 77.8479 25.994C77.8148 25.8254 77.7697 25.6594 77.7127 25.4974C77.6356 25.2605 77.5291 25.0343 77.3955 24.824C76.8107 23.888 75.7735 23.3707 74.3802 23.4148C74.1889 23.4184 73.9979 23.4332 73.8083 23.459C73.4141 23.5062 73.0256 23.5933 72.649 23.719C70.9334 24.304 70.2731 25.5728 70.2679 26.6725C70.2646 26.9607 70.3022 27.2478 70.3797 27.5253C70.4633 27.8912 70.6652 28.2193 70.9541 28.4587L75.342 29.7586C75.1808 30.081 77.5307 30.7986 77.5177 30.2396C77.7318 30.2726 77.9509 30.2444 78.1497 30.1582C78.3484 30.072 78.5188 29.9314 78.6411 29.7526C78.7633 29.5737 78.8326 29.3639 78.8408 29.1474C78.849 28.9309 78.7959 28.7165 78.6875 28.5289C78.899 28.416 79.064 28.2321 79.1534 28.0095C79.2428 27.787 79.2509 27.54 79.1762 27.3121Z" fill="#37474F"/>
<path d="M77.6165 29.8704C77.6383 30.0659 77.6017 30.2635 77.5113 30.4382C77.4209 30.613 77.2808 30.757 77.1087 30.8522C76.9365 30.9473 76.74 30.9894 76.544 30.973C76.348 30.9566 76.1613 30.8825 76.0073 30.76C75.8534 30.6376 75.7392 30.4723 75.6791 30.2849C75.619 30.0976 75.6157 29.8967 75.6696 29.7075C75.7236 29.5183 75.8324 29.3494 75.9822 29.222C76.1321 29.0946 76.3164 29.0144 76.5117 28.9916C76.642 28.9764 76.774 28.9871 76.9001 29.0231C77.0263 29.0591 77.1441 29.1197 77.2467 29.2013C77.3494 29.283 77.4349 29.3841 77.4984 29.499C77.5618 29.6138 77.602 29.74 77.6165 29.8704Z" fill="#37474F"/>
<path d="M77.4163 30.7362C77.307 31.661 77.088 32.5696 76.7639 33.4427C76.244 34.7842 74.8351 34.4229 73.7485 33.7885C73.1975 33.4661 73.2286 32.4703 73.408 31.5682C73.4418 31.3784 73.4834 31.1886 73.5276 31.0118C73.6887 30.3748 73.8681 29.8886 73.8681 29.8886L74.9079 30.1486L75.1522 30.2084L77.4163 30.7362Z" fill="white"/>
<path d="M76.3454 23.966C76.3454 23.966 76.4675 23.0248 76.6313 23.017C76.7951 23.0092 76.8913 23.8126 76.8913 23.8126C76.8913 23.8126 77.6399 23.6488 77.5879 23.8776C77.5359 24.1064 76.6833 24.4418 76.6833 24.4418L76.3454 23.966Z" fill="#37474F"/>
<path d="M76.0152 31.888L74.0319 33.8899L73.3274 28.4223L75.5317 28.1363L76.0152 31.888Z" fill="white"/>
<path d="M75.4824 29.431C75.3939 29.6925 75.2825 29.9457 75.1496 30.1876C74.8809 30.6894 74.4631 31.0955 73.9539 31.3498C73.902 31.3744 73.8443 31.3839 73.7873 31.3771C73.7302 31.3703 73.6763 31.3475 73.6317 31.3113C73.5871 31.2751 73.5537 31.2271 73.5353 31.1727C73.5168 31.1183 73.5142 31.0598 73.5276 31.004C74.0398 30.8074 74.508 30.5114 74.9053 30.133C75.1262 29.924 75.3201 29.6882 75.4824 29.431Z" fill="#703838"/>
<path d="M74.2372 35.2627C74.2248 35.2633 74.2124 35.2602 74.2017 35.2537C74.1911 35.2472 74.1826 35.2376 74.1774 35.2263C73.9424 34.5994 73.8535 33.9272 73.9175 33.2608C74.0267 32.2208 74.1254 30.4632 74.1254 30.445C74.1254 30.4285 74.132 30.4126 74.1437 30.4009C74.1554 30.3892 74.1713 30.3826 74.1878 30.3826C74.2044 30.3826 74.2202 30.3892 74.2319 30.4009C74.2436 30.4126 74.2502 30.4285 74.2502 30.445C74.2502 30.4606 74.1514 32.2156 74.0449 33.266C73.9946 33.8253 74.0511 34.3891 74.2112 34.9273C74.3386 34.3371 74.7077 33.7937 75.1314 33.1776C75.5248 32.6316 75.8726 32.0542 76.1712 31.4512C76.4311 30.9312 76.4805 30.5074 76.348 30.2215C76.3029 30.1305 76.2383 30.0507 76.1588 29.9878C76.0792 29.9249 75.9867 29.8804 75.8879 29.8575C75.8798 29.8554 75.8722 29.8517 75.8655 29.8466C75.8589 29.8415 75.8534 29.8351 75.8492 29.8278C75.8451 29.8206 75.8425 29.8125 75.8416 29.8042C75.8406 29.7959 75.8413 29.7875 75.8437 29.7795C75.8479 29.7637 75.8582 29.7502 75.8723 29.742C75.8864 29.7337 75.9032 29.7313 75.9191 29.7353C76.0356 29.7641 76.1445 29.8179 76.2382 29.8929C76.332 29.9678 76.4085 30.0622 76.4623 30.1695C76.6105 30.4892 76.5507 30.9494 76.2856 31.5058C75.988 32.1144 75.6402 32.697 75.2458 33.2478C74.7753 33.9393 74.3672 34.5347 74.3126 35.1977C74.3111 35.2119 74.3049 35.2252 74.295 35.2355C74.2851 35.2459 74.2721 35.2527 74.258 35.2549L74.2372 35.2627Z" fill="#263238"/>
<path d="M74.1982 35.2159C74.1982 35.2159 74.375 34.7869 74.6557 35.0209C74.9365 35.2549 74.5076 35.8321 74.2034 36.0348C73.9721 36.1856 73.5068 35.2367 73.7225 35.0131C73.9929 34.7427 74.1982 35.2159 74.1982 35.2159Z" fill="#263238"/>
<path d="M73.278 24.3066C72.5536 24.388 71.8896 24.749 71.4273 25.3128C70.9651 25.8766 70.7412 26.5987 70.8034 27.3251C70.8814 29.5403 71.2973 31.212 72.4488 31.225C73.6004 31.238 76.114 30.0862 76.088 27.2107C76.062 24.3352 74.0942 24.2026 73.278 24.3066Z" fill="white"/>
<path d="M72.4254 28.0583L72.5918 29.3478L71.8068 29.2126L72.4254 28.0583Z" fill="#703838"/>
<path d="M73.6965 28.2273C73.7008 28.2828 73.6887 28.3384 73.6615 28.3871C73.6344 28.4358 73.5935 28.4754 73.544 28.501C73.4945 28.5265 73.4386 28.5369 73.3832 28.5309C73.3278 28.5248 73.2755 28.5025 73.2327 28.4669C73.1899 28.4312 73.1585 28.3837 73.1426 28.3303C73.1266 28.2769 73.1268 28.22 73.143 28.1667C73.1592 28.1134 73.1908 28.066 73.2337 28.0305C73.2767 27.9951 73.3292 27.9731 73.3846 27.9673C73.4223 27.9634 73.4603 27.967 73.4965 27.978C73.5327 27.989 73.5664 28.0072 73.5954 28.0314C73.6245 28.0557 73.6484 28.0855 73.6658 28.1191C73.6832 28.1528 73.6936 28.1895 73.6965 28.2273Z" fill="#263238"/>
<path d="M71.8301 28.2429C71.8344 28.2983 71.8222 28.3538 71.7952 28.4024C71.7681 28.4509 71.7274 28.4905 71.678 28.5161C71.6287 28.5417 71.5729 28.5522 71.5176 28.5463C71.4623 28.5404 71.41 28.5183 71.3671 28.4829C71.3243 28.4475 71.2928 28.4002 71.2766 28.3471C71.2604 28.2939 71.2602 28.2371 71.276 28.1838C71.2919 28.1305 71.323 28.083 71.3656 28.0473C71.4082 28.0116 71.4604 27.9892 71.5156 27.9829C71.5535 27.9786 71.5918 27.982 71.6283 27.9928C71.6648 28.0037 71.6988 28.0218 71.7281 28.046C71.7575 28.0703 71.7817 28.1002 71.7992 28.1341C71.8167 28.1679 71.8272 28.2049 71.8301 28.2429Z" fill="#263238"/>
<path d="M71.1413 27.7229L71.6612 27.3355C71.6612 27.3355 71.4272 27.1405 71.2323 27.2965C71.1755 27.3498 71.1363 27.4192 71.12 27.4955C71.1038 27.5717 71.1112 27.651 71.1413 27.7229Z" fill="#263238"/>
<path d="M72.3033 29.9172C72.5562 29.903 72.797 29.8041 72.9869 29.6364C72.9869 29.6364 73.0831 30.003 72.7815 30.1148C72.6913 30.1422 72.5943 30.1375 72.5071 30.1015C72.4199 30.0655 72.3479 30.0004 72.3033 29.9172Z" fill="#703838"/>
<path d="M71.2557 25.3258C71.2557 25.3258 71.9601 28.3053 76.0776 27.8711C76.0776 27.8711 76.9328 24.707 74.3542 24.0492C71.7756 23.3914 71.2557 25.3258 71.2557 25.3258Z" fill="#37474F"/>
<path d="M75.277 28.1363C75.277 28.1363 75.277 27.2627 75.8697 27.1795C76.5247 27.0859 76.6833 27.6995 76.7015 27.9361C76.7167 28.2887 76.5942 28.6334 76.3599 28.8973C76.1256 29.1613 75.7979 29.3238 75.446 29.3504L75.277 28.1363Z" fill="white"/>
<path d="M78.2533 30.9234C78.2533 30.9234 79.9352 31.1964 80.7384 33.7521C81.5416 36.3078 82.1421 38.4008 81.8094 39.2483C81.4766 40.0959 79.0644 43.8762 79.0644 43.8762C79.0644 43.8762 78.7524 47.0195 76.9146 47.4017C76.7223 47.4407 76.2778 47.5239 77.0836 45.9197C77.222 45.6831 77.2947 45.4138 77.2942 45.1397C77.2942 45.1397 76.5273 45.8131 76.218 45.7169C75.9087 45.6207 76.4129 45.2229 76.5169 45.0487C76.6209 44.8745 77.1824 43.8502 77.5333 43.65L79.5868 38.6347L78.1572 34.1785C77.8166 33.1178 77.8506 31.9724 78.2533 30.9338V30.9234Z" fill="white"/>
<path d="M62.6827 37.8028H62.6645C62.6498 37.8006 62.6356 37.7955 62.6229 37.7877C62.6101 37.7799 62.599 37.7697 62.5903 37.7575C62.5816 37.7454 62.5754 37.7317 62.5721 37.7171C62.5687 37.7026 62.5684 37.6875 62.571 37.6728L63.3716 32.7824C63.9047 29.49 63.8862 26.1318 63.317 22.8455C62.9933 20.9925 62.8453 19.1131 62.8751 17.2323L62.9739 10.6701C62.9739 10.6404 62.9856 10.612 63.0066 10.591C63.0276 10.5701 63.056 10.5583 63.0856 10.5583C63.1153 10.5583 63.1437 10.5701 63.1647 10.591C63.1856 10.612 63.1974 10.6404 63.1974 10.6701L63.0986 17.2323C63.0719 19.0991 63.219 20.9643 63.5379 22.8039C64.1124 26.1151 64.1308 29.4989 63.5925 32.8162L62.7997 37.7066C62.7958 37.7344 62.7817 37.7597 62.76 37.7775C62.7383 37.7953 62.7107 37.8044 62.6827 37.8028Z" fill="#877791"/>
<path d="M62.8829 12.659L62.636 13.3038L63.4548 13.3168L63.213 12.6642L62.8829 12.659Z" fill="#877791"/>
<path d="M66.5429 7.15498C66.5143 9.03472 64.9339 12.854 63.0519 12.828C61.1699 12.802 59.7064 8.92812 59.735 7.05358C59.7689 6.16466 60.1492 5.32429 60.7946 4.71218C61.44 4.10006 62.2992 3.76478 63.1885 3.77803C64.0778 3.79127 64.9266 4.15199 65.5535 4.78306C66.1803 5.41412 66.5354 6.26544 66.5429 7.15498Z" fill="#877791"/>
<path d="M62.6723 6.19561C62.4124 6.74159 61.8691 7.02758 61.4558 6.82999C61.0425 6.6324 60.9151 6.03442 61.1725 5.48844C61.4298 4.94245 61.9757 4.65906 62.389 4.85406C62.8023 5.04905 62.9297 5.65223 62.6723 6.19561Z" fill="#877791"/>
<path d="M61.3778 7.70357C61.3128 7.83877 61.0763 7.86217 60.8579 7.75557C60.6396 7.64897 60.4992 7.45138 60.5642 7.31358C60.6292 7.17579 60.8631 7.15499 61.0841 7.26159C61.305 7.36818 61.4428 7.56318 61.3778 7.70357Z" fill="#877791"/>
<path opacity="0.4" d="M62.6723 6.19561C62.4124 6.74159 61.8691 7.02758 61.4558 6.82999C61.0425 6.6324 60.9151 6.03442 61.1725 5.48844C61.4298 4.94245 61.9757 4.65906 62.389 4.85406C62.8023 5.04905 62.9297 5.65223 62.6723 6.19561Z" fill="white"/>
<path opacity="0.4" d="M61.3778 7.70357C61.3128 7.83877 61.0763 7.86217 60.8579 7.75557C60.6396 7.64897 60.4992 7.45138 60.5642 7.31358C60.6292 7.17579 60.8631 7.15499 61.0841 7.26159C61.305 7.36818 61.4428 7.56318 61.3778 7.70357Z" fill="white"/>
<path d="M64.5257 37.197C64.5016 37.1964 64.4785 37.1867 64.4612 37.1698C64.4438 37.1529 64.4335 37.1302 64.4322 37.106L64.2632 33.5883C64.1468 31.2342 63.4751 28.941 62.3032 26.8961C61.6381 25.739 61.1302 24.4983 60.7929 23.2069L59.6232 18.7428C59.6156 18.7193 59.6173 18.6938 59.6279 18.6716C59.6386 18.6493 59.6573 18.632 59.6804 18.6232C59.6923 18.6201 59.7048 18.6194 59.717 18.6211C59.7292 18.6228 59.741 18.6269 59.7517 18.6332C59.7623 18.6395 59.7716 18.6478 59.779 18.6577C59.7864 18.6676 59.7917 18.6788 59.7948 18.6908L60.9645 23.1549C61.2975 24.4292 61.7993 25.6534 62.4566 26.7947C63.6429 28.8651 64.3225 31.1868 64.44 33.5701L64.6115 37.0878C64.6123 37.1132 64.6032 37.1378 64.5863 37.1567C64.5694 37.1756 64.5458 37.1872 64.5205 37.1892L64.5257 37.197Z" fill="#877791"/>
<path d="M60.0521 20.6927L59.9871 21.3791L60.7799 21.1737L60.3718 20.6069L60.0521 20.6927Z" fill="#877791"/>
<path d="M62.1057 14.4087C62.5814 16.2287 62.0797 20.3313 60.2627 20.8071C58.4457 21.2829 55.997 17.9472 55.5187 16.1273C55.3085 15.26 55.4471 14.3448 55.9046 13.5787C56.3621 12.8125 57.1019 12.2566 57.965 12.0304C58.8281 11.8042 59.7454 11.9258 60.5198 12.3691C61.2941 12.8124 61.8636 13.542 62.1057 14.4009V14.4087Z" fill="#877791"/>
<path opacity="0.3" d="M62.1057 14.4087C62.5814 16.2287 62.0797 20.3313 60.2627 20.8071C58.4457 21.2829 55.997 17.9472 55.5187 16.1273C55.3085 15.26 55.4471 14.3448 55.9046 13.5787C56.3621 12.8125 57.1019 12.2566 57.965 12.0304C58.8281 11.8042 59.7454 11.9258 60.5198 12.3691C61.2941 12.8124 61.8636 13.542 62.1057 14.4009V14.4087Z" fill="white"/>
<path d="M58.1207 14.5231C58.0168 15.1159 57.5697 15.5371 57.1173 15.4591C56.665 15.3811 56.3843 14.8351 56.4857 14.2398C56.5871 13.6444 57.0368 13.2258 57.4891 13.3038C57.9414 13.3818 58.2221 13.9278 58.1207 14.5231Z" fill="#877791"/>
<path d="M57.2759 16.3171C57.2499 16.4653 57.029 16.5511 56.782 16.5095C56.5351 16.4679 56.3557 16.3119 56.3791 16.1637C56.4025 16.0155 56.6261 15.9297 56.873 15.9713C57.12 16.0129 57.3019 16.1689 57.2759 16.3171Z" fill="#877791"/>
<path opacity="0.7" d="M58.1207 14.5231C58.0168 15.1159 57.5697 15.5371 57.1173 15.4591C56.665 15.3811 56.3843 14.8351 56.4857 14.2398C56.5871 13.6444 57.0368 13.2258 57.4891 13.3038C57.9414 13.3818 58.2221 13.9278 58.1207 14.5231Z" fill="white"/>
<path opacity="0.7" d="M57.2759 16.3171C57.2499 16.4653 57.029 16.5511 56.782 16.5095C56.5351 16.4679 56.3557 16.3119 56.3791 16.1637C56.4025 16.0155 56.6261 15.9297 56.873 15.9713C57.12 16.0129 57.3019 16.1689 57.2759 16.3171Z" fill="white"/>
<path d="M64.2814 29.5922C63.3872 29.5922 62.7789 30.8922 63.3014 30.8168C63.5817 30.7766 63.8487 30.6715 64.0812 30.51L64.1852 30.432L65.0066 30.3722C64.8351 29.938 64.6037 29.5948 64.2814 29.5922Z" fill="white"/>
<path d="M77.4683 80.0202C77.4683 90.997 68.4301 104.017 51.3986 103.419C51.2322 103.419 51.0633 103.419 50.8969 103.399C50.5503 103.381 50.1942 103.358 49.8285 103.328C31.7807 101.841 28.8121 90.7604 28.8121 85.7348C28.8121 80.7091 32.7321 76.0631 35.1703 74.0819C37.6086 72.1008 40.6525 69.8181 42.9374 64.4129C45.017 59.499 49.0383 56.1243 55.7319 55.5498L56.3271 55.5056C56.8106 55.477 57.3123 55.4614 57.8218 55.4614C57.8218 55.4588 77.4683 54.8894 77.4683 80.0202Z" fill="#877791"/>
<path opacity="0.6" d="M77.4683 80.0202C77.4683 90.997 68.4301 104.017 51.3986 103.419C51.2322 103.419 51.0633 103.419 50.8969 103.399C50.5503 103.381 50.1942 103.358 49.8285 103.328C31.7807 101.841 28.8121 90.7604 28.8121 85.7348C28.8121 80.7091 32.7321 76.0631 35.1703 74.0819C37.6086 72.1008 40.6525 69.8181 42.9374 64.4129C45.017 59.499 49.0383 56.1243 55.7319 55.5498L56.3271 55.5056C56.8106 55.477 57.3123 55.4614 57.8218 55.4614C57.8218 55.4588 77.4683 54.8894 77.4683 80.0202Z" fill="white"/>
<path d="M73.2832 80.0202C73.2832 90.529 65.7085 102.912 51.3986 103.419C51.2322 103.419 51.0633 103.419 50.8969 103.399C64.8585 102.619 72.2435 90.399 72.2435 80.0228C72.2435 59.2651 59.9949 56.0438 55.7319 55.5498C55.3393 55.503 55.0144 55.4796 54.7727 55.4692C54.9546 55.4692 55.1392 55.4692 55.3289 55.4692C55.6622 55.4667 55.9954 55.4815 56.3271 55.5134C60.1041 55.8254 73.2832 58.4877 73.2832 80.0202Z" fill="#877791"/>
<path opacity="0.4" d="M73.2832 80.0202C73.2832 90.529 65.7085 102.912 51.3986 103.419C51.2322 103.419 51.0633 103.419 50.8969 103.399C64.8585 102.619 72.2435 90.399 72.2435 80.0228C72.2435 59.2651 59.9949 56.0438 55.7319 55.5498C55.3393 55.503 55.0144 55.4796 54.7727 55.4692C54.9546 55.4692 55.1392 55.4692 55.3289 55.4692C55.6622 55.4667 55.9954 55.4815 56.3271 55.5134C60.1041 55.8254 73.2832 58.4877 73.2832 80.0202Z" fill="white"/>
<path d="M64.5751 81.0212C65.5967 77.4307 68.1078 67.3508 64.3958 64.2153C62.9037 62.957 60.9645 61.8754 59.1813 61.0382C57.8597 60.4186 56.3553 60.3112 54.959 60.7366C53.5628 61.1621 52.3738 62.0903 51.6222 63.3417L44.7752 74.7606C44.7752 74.7606 41.7755 73.8012 39.4126 74.368C39.4126 74.368 42.4903 75.0986 43.2 77.3891C43.2 77.3891 33.1948 78.2107 31.3466 82.5473C30.5927 84.3127 29.7193 86.1508 28.9499 87.7081C29.4906 91.647 31.7859 97.281 38.9057 100.645C39.5452 98.2482 41.3544 92.089 43.1038 91.959C45.2769 91.7952 50.286 94.8891 54.7285 92.3958C57.684 90.737 58.716 88.8001 59.0747 87.6899C59.113 87.571 59.1745 87.4608 59.2555 87.3657C59.3366 87.2706 59.4357 87.1926 59.5472 87.136C59.6586 87.0794 59.7801 87.0455 59.9047 87.0362C60.0293 87.0268 60.1545 87.0422 60.2731 87.0816C61.8327 87.6015 64.6583 88.9015 65.0508 91.257C65.0508 91.257 66.1478 88.4959 62.8699 85.2512C62.8131 85.1938 62.7812 85.1162 62.7812 85.0354C62.7812 84.9546 62.8131 84.8771 62.8699 84.8196C63.2052 84.466 63.8681 83.5093 64.5751 81.0212Z" fill="#877791"/>
<path opacity="0.4" d="M64.5751 81.0212C65.5967 77.4307 68.1078 67.3508 64.3958 64.2153C62.9037 62.957 60.9645 61.8754 59.1813 61.0382C57.8597 60.4186 56.3553 60.3112 54.959 60.7366C53.5628 61.1621 52.3738 62.0903 51.6222 63.3417L44.7752 74.7606C44.7752 74.7606 41.7755 73.8012 39.4126 74.368C39.4126 74.368 42.4903 75.0986 43.2 77.3891C43.2 77.3891 33.1948 78.2107 31.3466 82.5473C30.5927 84.3127 29.7193 86.1508 28.9499 87.7081C29.4906 91.647 31.7859 97.281 38.9057 100.645C39.5452 98.2482 41.3544 92.089 43.1038 91.959C45.2769 91.7952 50.286 94.8891 54.7285 92.3958C57.684 90.737 58.716 88.8001 59.0747 87.6899C59.113 87.571 59.1745 87.4608 59.2555 87.3657C59.3366 87.2706 59.4357 87.1926 59.5472 87.136C59.6586 87.0794 59.7801 87.0455 59.9047 87.0362C60.0293 87.0268 60.1545 87.0422 60.2731 87.0816C61.8327 87.6015 64.6583 88.9015 65.0508 91.257C65.0508 91.257 66.1478 88.4959 62.8699 85.2512C62.8131 85.1938 62.7812 85.1162 62.7812 85.0354C62.7812 84.9546 62.8131 84.8771 62.8699 84.8196C63.2052 84.466 63.8681 83.5093 64.5751 81.0212Z" fill="white"/>
<path d="M24.7882 85.7608L22.2616 92.5206C22.2616 92.5206 23.0986 95.3207 25.6824 94.1637C25.6824 94.1637 26.2829 92.4816 26.9275 91.6418C27.5722 90.802 29.1682 88.8261 29.1682 88.8261C29.1682 88.8261 29.1942 86.0208 24.7882 85.7608Z" fill="white"/>
<path d="M43.9096 77.3137L34.8402 75.4339C33.4215 75.1407 31.9451 75.3419 30.6565 76.004C29.3679 76.6662 28.3446 77.7495 27.7567 79.0738L24.7882 85.7608C24.7882 85.7608 27.7853 86.39 29.1682 88.8339C29.1682 88.8339 32.2434 84.934 32.8854 82.0741C32.8854 82.0741 38.0531 86.156 43.0232 86.156C48.9005 86.156 49.3372 79.9162 49.3372 79.9162L48.638 78.1326L43.9096 77.3137Z" fill="#37474F"/>
<path d="M41.2504 79.0062C39.8316 78.712 38.3548 78.9127 37.066 79.575C35.7772 80.2373 34.754 81.3211 34.167 82.6461L34.0552 82.9061C35.8592 84.0994 39.488 86.1612 43.018 86.1612C46.9328 86.1612 49.332 82.7085 49.1293 80.6468L41.2504 79.0062Z" fill="#263238"/>
<path d="M25.9709 93.4201C25.8982 93.5943 25.6824 94.1533 25.6824 94.1533C25.2982 94.3232 24.8747 94.3843 24.4581 94.3301C24.1773 92.4322 23.0128 92.3308 22.3967 92.4166C22.2844 92.4332 22.1791 92.4814 22.0931 92.5555C22.0071 92.6296 21.9438 92.7265 21.9106 92.8351L21.4687 94.2651C20.3484 95.7158 18.7341 96.696 17.4448 97.424C17.4448 97.424 20.7045 97.3798 20.7045 100.461C21.3447 100.242 21.9147 99.8562 22.3551 99.3427C22.6151 99.0671 23.6392 97.8192 24.5724 97.684C25.7188 97.515 25.7448 97.424 25.8566 96.9976C25.9683 96.5712 26.1477 95.3987 26.2673 94.6083C26.4076 93.5813 25.9709 93.4201 25.9709 93.4201Z" fill="#455A64"/>
<path d="M17.4422 97.424C16.9561 97.697 16.5142 97.944 16.1659 98.1468C14.8922 98.9267 15.2457 100.245 17.0705 100.585C18.7263 100.892 19.8909 100.747 20.7097 100.461C20.7019 97.3798 17.4422 97.424 17.4422 97.424Z" fill="#B498B9"/>
<path d="M24.5698 97.684C23.6366 97.8192 22.6255 99.0671 22.3525 99.3427C21.9121 99.8562 21.3421 100.242 20.7019 100.461C19.8909 100.747 18.7263 100.892 17.0627 100.585C16.1347 100.411 15.5888 99.9849 15.4432 99.5039C15.2405 100.162 15.789 100.858 17.0393 101.092C18.6691 101.394 19.8181 101.248 20.6161 100.97C21.2492 100.758 21.8133 100.379 22.2486 99.8731C22.5085 99.6131 23.5145 98.3808 24.4347 98.2456C25.5628 98.0818 25.5888 97.9856 25.698 97.5748C25.7214 97.489 25.7474 97.3746 25.7734 97.2472C25.6668 97.4708 25.4459 97.554 24.5698 97.684Z" fill="#263238"/>
<path d="M20.9488 97.7386C20.9306 97.7384 20.9126 97.7343 20.896 97.7267C20.8795 97.7191 20.8647 97.7081 20.8527 97.6944C20.0728 96.774 18.7731 96.7584 18.7549 96.7584C18.7204 96.7584 18.6874 96.7447 18.663 96.7203C18.6386 96.6959 18.6249 96.6629 18.6249 96.6284C18.6249 96.5939 18.6386 96.5609 18.663 96.5365C18.6874 96.5121 18.7204 96.4984 18.7549 96.4984C18.8121 96.4984 20.1742 96.514 21.0424 97.5228C21.0575 97.5413 21.0671 97.5637 21.0702 97.5874C21.0732 97.6111 21.0694 97.6352 21.0594 97.6569C21.0494 97.6786 21.0334 97.697 21.0134 97.7101C20.9934 97.7231 20.9701 97.7303 20.9462 97.7308L20.9488 97.7386Z" fill="#B498B9"/>
<path d="M21.9132 97.0444C21.895 97.0442 21.877 97.0402 21.8604 97.0326C21.8439 97.0249 21.8291 97.0139 21.817 97.0002C21.0372 96.0773 19.7375 96.0643 19.7193 96.0643C19.6848 96.0643 19.6518 96.0506 19.6274 96.0262C19.603 96.0018 19.5893 95.9687 19.5893 95.9343C19.5893 95.8998 19.603 95.8667 19.6274 95.8423C19.6518 95.818 19.6848 95.8043 19.7193 95.8043C19.7791 95.8043 21.1412 95.8199 22.0094 96.8286C22.0201 96.8412 22.0281 96.8558 22.0331 96.8715C22.0381 96.8873 22.04 96.9038 22.0385 96.9203C22.0371 96.9367 22.0324 96.9527 22.0247 96.9673C22.017 96.9819 22.0065 96.9949 21.9938 97.0054C21.9728 97.0282 21.944 97.0421 21.9132 97.0444Z" fill="#B498B9"/>
<path d="M22.7996 96.3086C22.7814 96.3084 22.7634 96.3044 22.7468 96.2968C22.7303 96.2891 22.7155 96.2781 22.7035 96.2644C21.9236 95.3441 20.6239 95.3258 20.6057 95.3258C20.5712 95.3258 20.5382 95.3122 20.5138 95.2878C20.4894 95.2634 20.4757 95.2303 20.4757 95.1959C20.4757 95.1614 20.4894 95.1283 20.5138 95.1039C20.5382 95.0796 20.5712 95.0659 20.6057 95.0659C20.6629 95.0659 22.025 95.0815 22.8932 96.0902C22.9082 96.1086 22.9178 96.1307 22.9209 96.1542C22.924 96.1777 22.9205 96.2016 22.9108 96.2232C22.9011 96.2448 22.8855 96.2633 22.8659 96.2765C22.8462 96.2898 22.8233 96.2973 22.7996 96.2982V96.3086Z" fill="#B498B9"/>
<path d="M23.5483 95.5183C23.5301 95.5179 23.5121 95.5138 23.4956 95.5062C23.479 95.4986 23.4642 95.4877 23.4521 95.4741C22.6723 94.5537 21.3725 94.5381 21.3543 94.5381C21.321 94.5374 21.2893 94.5237 21.266 94.4999C21.2426 94.4761 21.2296 94.4441 21.2296 94.4107C21.2296 94.3941 21.2329 94.3777 21.2393 94.3623C21.2457 94.347 21.2552 94.3332 21.267 94.3215C21.2789 94.3099 21.293 94.3008 21.3084 94.2947C21.3238 94.2885 21.3403 94.2856 21.3569 94.2859C21.7871 94.2964 22.2109 94.3924 22.6036 94.5682C22.9963 94.7441 23.3501 94.9963 23.6444 95.3103C23.6596 95.3288 23.6692 95.3512 23.6722 95.3749C23.6752 95.3986 23.6715 95.4227 23.6614 95.4444C23.6514 95.4661 23.6355 95.4845 23.6155 95.4976C23.5954 95.5106 23.5722 95.5178 23.5483 95.5183Z" fill="#B498B9"/>
<path d="M31.5675 89.9077L29.0409 96.6674C29.0409 96.6674 29.8779 99.4701 32.4617 98.3106C32.4617 98.3106 33.0622 96.631 33.7068 95.7887C34.3515 94.9463 35.9476 92.9808 35.9476 92.9808C35.9476 92.9808 35.9736 90.1676 31.5675 89.9077Z" fill="white"/>
<path d="M50.689 81.4579L41.6195 79.5808C40.2008 79.2871 38.7242 79.488 37.4355 80.1502C36.1467 80.8125 35.1235 81.896 34.5361 83.2207L31.5675 89.9103C31.5675 89.9103 34.5647 90.5368 35.9476 92.9808C35.9476 92.9808 39.0227 89.0809 39.6648 86.221C39.6648 86.221 44.8324 90.3054 49.8025 90.3054C54.7727 90.3054 56.1166 84.0656 56.1166 84.0656L55.4173 82.2821L50.689 81.4579Z" fill="#37474F"/>
<path d="M32.7503 97.567C32.6749 97.7412 32.4617 98.2976 32.4617 98.2976C32.0775 98.4675 31.654 98.5286 31.2374 98.4744C30.9567 96.5764 29.7921 96.4776 29.176 96.5634C29.0638 96.5793 28.9585 96.6269 28.8724 96.7006C28.7863 96.7742 28.723 96.871 28.69 96.9794L28.2429 98.412C27.1251 99.8601 25.5108 100.843 24.2215 101.568C24.2215 101.568 27.4812 101.524 27.4812 104.605C28.1211 104.387 28.6911 104.002 29.1319 103.49C29.3918 103.214 30.416 101.966 31.3492 101.828C32.4955 101.659 32.5215 101.568 32.6333 101.144C32.7555 100.676 32.9244 99.5455 33.044 98.7552C33.1974 97.7282 32.7503 97.567 32.7503 97.567Z" fill="#455A64"/>
<path d="M24.2215 101.56C23.7354 101.833 23.2935 102.08 22.9452 102.283C21.6689 103.063 22.0224 104.381 23.8498 104.722C25.5056 105.031 26.6702 104.883 27.489 104.597C27.4812 101.524 24.2215 101.56 24.2215 101.56Z" fill="#B498B9"/>
<path d="M31.3466 101.82C30.4134 101.958 29.4022 103.206 29.1293 103.482C28.6885 103.994 28.1185 104.379 27.4786 104.597C26.6676 104.883 25.5031 105.031 23.8394 104.722C22.9114 104.55 22.3655 104.121 22.22 103.643C22.0172 104.301 22.5657 104.998 23.816 105.229C25.4459 105.531 26.5948 105.388 27.3928 105.107C28.0227 104.894 28.5839 104.516 29.0175 104.012C29.2774 103.752 30.2834 102.52 31.2036 102.385C32.3318 102.221 32.3552 102.125 32.4669 101.714C32.4903 101.625 32.5163 101.514 32.5423 101.384C32.4461 101.615 32.2252 101.701 31.3466 101.82Z" fill="#263238"/>
<path d="M27.7386 101.885C27.7203 101.885 27.7023 101.881 27.6858 101.874C27.6692 101.866 27.6544 101.855 27.6424 101.841C26.8625 100.921 25.5628 100.903 25.5446 100.903C25.5115 100.903 25.4798 100.89 25.4564 100.866C25.433 100.843 25.4199 100.811 25.4199 100.778C25.4199 100.745 25.4329 100.713 25.4562 100.689C25.4796 100.665 25.5113 100.651 25.5446 100.651C25.6044 100.651 26.9665 100.669 27.8347 101.677C27.8576 101.701 27.8704 101.733 27.8704 101.766C27.8704 101.799 27.8576 101.831 27.8347 101.854C27.8081 101.877 27.7735 101.888 27.7386 101.885Z" fill="#B498B9"/>
<path d="M28.6925 101.191C28.6743 101.191 28.6563 101.187 28.6398 101.179C28.6232 101.172 28.6084 101.161 28.5964 101.147C27.8165 100.224 26.5168 100.209 26.4986 100.209C26.4642 100.209 26.4311 100.195 26.4067 100.17C26.3823 100.146 26.3687 100.113 26.3687 100.079C26.3687 100.044 26.3823 100.011 26.4067 99.9866C26.4311 99.9622 26.4642 99.9485 26.4986 99.9485C26.5558 99.9485 27.9179 99.9667 28.7861 100.976C28.7973 100.988 28.8058 101.002 28.8112 101.018C28.8167 101.034 28.8188 101.05 28.8176 101.067C28.8164 101.083 28.8118 101.099 28.8042 101.114C28.7965 101.129 28.786 101.142 28.7731 101.152C28.7522 101.175 28.7234 101.189 28.6925 101.191Z" fill="#B498B9"/>
<path d="M29.5764 100.453C29.5584 100.453 29.5405 100.45 29.5243 100.442C29.508 100.434 29.4938 100.423 29.4828 100.409C28.703 99.491 27.4032 99.4728 27.385 99.4728C27.3506 99.4728 27.3175 99.4591 27.2931 99.4347C27.2688 99.4103 27.2551 99.3772 27.2551 99.3428C27.2551 99.3083 27.2688 99.2752 27.2931 99.2508C27.3175 99.2265 27.3506 99.2128 27.385 99.2128C27.4422 99.2128 28.8043 99.2284 29.6725 100.237C29.6842 100.249 29.6934 100.263 29.6997 100.278C29.706 100.293 29.7092 100.309 29.7092 100.326C29.7092 100.342 29.706 100.358 29.6997 100.373C29.6934 100.389 29.6842 100.402 29.6725 100.414C29.6604 100.427 29.6454 100.437 29.6288 100.444C29.6122 100.451 29.5943 100.454 29.5764 100.453Z" fill="#B498B9"/>
<path d="M30.3068 99.6625C30.2887 99.6628 30.2708 99.6593 30.2542 99.6521C30.2376 99.6449 30.2228 99.6343 30.2106 99.6209C29.4308 98.7006 28.1311 98.6824 28.1129 98.6824C28.0798 98.6824 28.048 98.6692 28.0246 98.6458C28.0012 98.6224 27.9881 98.5907 27.9881 98.5576C27.9881 98.5242 28.0012 98.4922 28.0245 98.4684C28.0478 98.4446 28.0795 98.4309 28.1129 98.4302C28.1701 98.4302 29.5322 98.4458 30.4004 99.4545C30.4166 99.4727 30.4272 99.4952 30.4308 99.5193C30.4344 99.5434 30.4309 99.5681 30.4207 99.5902C30.4104 99.6123 30.3939 99.6309 30.3733 99.6438C30.3526 99.6566 30.3286 99.6632 30.3042 99.6625H30.3068Z" fill="#B498B9"/>
<path d="M49.8623 62.0417C49.8623 62.0417 48.6536 62.5227 46.5533 65.7674C44.3437 69.1863 41.7339 72.353 42.3032 73.8272L47.4501 71.2922L50.2938 64.9874C50.2938 64.9874 51.0685 62.6943 49.8623 62.0417Z" fill="white"/>
<path d="M54.8974 62.3876L58.6172 63.36C58.6172 63.36 64.5387 64.9745 64.4919 68.0814C64.4919 68.0814 60.3329 65.8689 59.3529 72.3167C59.3529 72.3167 57.9752 83.3611 55.8748 85.5476C55.8748 85.5476 54.3152 84.7156 55.095 82.7683C52.6875 82.9287 50.3103 82.1591 48.4534 80.6182C45.9502 78.5383 45.8748 77.6517 45.8748 77.6517L48.1285 73.1304C48.1285 73.1304 45.1574 68.3908 50.3016 65.0057C50.3016 65.0057 50.8865 62.8842 49.8701 62.0522C49.8623 62.0418 50.9775 61.0798 54.8974 62.3876Z" fill="#877791"/>
<path d="M63.3638 50.9141C63.3638 50.9141 64.0708 49.4348 64.3438 49.5154C64.6167 49.596 64.3204 50.9531 64.3204 50.9531C64.3204 50.9531 65.6383 51.0883 65.4303 51.4341C65.2224 51.7799 63.6419 51.8709 63.6419 51.8709L63.3638 50.9141Z" fill="#263238"/>
<path d="M66.1946 57.9261C66.1947 57.6263 66.1183 57.3315 65.9728 57.0695C65.8272 56.8074 65.6173 56.5868 65.3628 56.4286C65.1374 56.2813 64.9582 56.0733 64.846 55.8286C64.7337 55.5838 64.693 55.3123 64.7285 55.0454C64.7644 54.7522 64.78 54.4568 64.7753 54.1614C64.7747 53.7312 64.7223 53.3026 64.6193 52.8849C64.1644 51.0363 62.7425 49.6298 60.4342 48.9486C60.119 48.8524 59.7988 48.7734 59.475 48.712C58.803 48.5797 58.1194 48.5152 57.4345 48.5196C54.3022 48.5508 52.5371 50.2772 51.9341 52.0789C51.7723 52.5484 51.6787 53.0387 51.6559 53.5349C51.6066 54.749 52.0952 55.3756 52.0952 55.3756L58.5938 59.8578C58.3826 60.0719 58.2229 60.3313 58.1268 60.6163C58.0307 60.9012 58.0008 61.2044 58.0392 61.5026C58.0776 61.8009 58.1835 62.0865 58.3487 62.3378C58.5139 62.5891 58.7341 62.7995 58.9927 62.953C59.2513 63.1065 59.5414 63.1991 59.8411 63.2238C60.1408 63.2485 60.4421 63.2047 60.7224 63.0955C61.0026 62.9864 61.2543 62.8149 61.4583 62.5941C61.6624 62.3732 61.8136 62.1088 61.9003 61.8208C62.2332 61.9924 62.6079 62.066 62.981 62.033C63.354 62 63.71 61.8618 64.0076 61.6344C64.3052 61.407 64.5322 61.0998 64.6621 60.7485C64.792 60.3972 64.8195 60.0162 64.7415 59.6499C65.1467 59.5771 65.5137 59.365 65.779 59.0502C66.0443 58.7354 66.1913 58.3378 66.1946 57.9261Z" fill="#263238"/>
<path d="M54.7415 57.8377C54.6791 57.8377 54.6193 57.8377 54.5569 57.8377C54.4392 57.4942 54.2294 57.1897 53.9504 56.9574C53.6713 56.7251 53.3338 56.5739 52.9747 56.5205C52.6156 56.467 52.2488 56.5133 51.9142 56.6543C51.5796 56.7952 51.2902 57.0255 51.0776 57.3198C50.865 57.6141 50.7373 57.9613 50.7086 58.3232C50.6798 58.6852 50.7511 59.0481 50.9146 59.3723C51.0782 59.6965 51.3276 59.9696 51.6358 60.1616C51.9439 60.3536 52.2989 60.4572 52.6619 60.4611C52.7217 60.4611 52.7815 60.4611 52.8439 60.4611C52.958 60.8081 53.1657 61.1168 53.4442 61.3531C53.7227 61.5894 54.0611 61.744 54.422 61.8C54.7829 61.856 55.1523 61.8111 55.4893 61.6702C55.8262 61.5294 56.1177 61.2981 56.3315 61.002C56.5453 60.7058 56.673 60.3563 56.7007 59.9921C56.7283 59.6278 56.6547 59.2631 56.488 58.9381C56.3213 58.613 56.068 58.3404 55.7561 58.1504C55.4442 57.9604 55.0859 57.8602 54.7207 57.8611L54.7415 57.8377Z" fill="#263238"/>
<path d="M58.547 63.7213L54.2164 65.9339L56.01 56.5898L59.7766 57.3126L58.547 63.7213Z" fill="white"/>
<path d="M55.0586 61.5504C55.9558 61.4003 56.8131 61.0693 57.5786 60.5777C58.344 60.0861 59.0016 59.444 59.5114 58.6905L59.7714 57.3099L56.01 56.582L55.0586 61.5504Z" fill="#703838"/>
<path d="M58.1545 49.8222C56.7248 49.5466 53.5353 49.7598 52.467 53.4308C51.3986 57.1019 51.1802 60.0684 53.0544 60.7106C54.9286 61.3528 59.6778 60.8224 61.2063 56.0984C62.7347 51.3743 59.5478 50.0822 58.1545 49.8222Z" fill="white"/>
<path d="M54.7311 55.503L54.3074 57.7077L53.0934 57.0655L54.7311 55.503Z" fill="#703838"/>
<path d="M56.1764 56.4571C56.0461 56.4328 55.926 56.3704 55.8312 56.2779C55.7363 56.1853 55.671 56.0668 55.6435 55.9371C55.6201 56.0777 55.6482 56.222 55.7225 56.3436C55.7968 56.4651 55.9125 56.5559 56.0482 56.5991C56.184 56.6424 56.3307 56.6353 56.4617 56.5791C56.5926 56.523 56.699 56.4215 56.7612 56.2933C56.6837 56.3651 56.5903 56.4174 56.4886 56.4458C56.3869 56.4743 56.2798 56.4782 56.1764 56.4571Z" fill="#263238"/>
<path d="M53.1818 55.5576C53.0539 55.531 52.9366 55.4676 52.8443 55.3752C52.7519 55.2828 52.6885 55.1655 52.6619 55.0376C52.6386 55.1782 52.6666 55.3225 52.7409 55.444C52.8153 55.5656 52.9309 55.6563 53.0667 55.6996C53.2024 55.7428 53.3492 55.7358 53.4801 55.6796C53.6111 55.6234 53.7174 55.522 53.7797 55.3938C53.7007 55.4674 53.605 55.5207 53.5009 55.5492C53.3968 55.5778 53.2873 55.5806 53.1818 55.5576Z" fill="#263238"/>
<path d="M52.8309 54.242L53.8109 53.891C53.8109 53.891 53.5509 53.475 53.1636 53.631C52.7763 53.787 52.8309 54.242 52.8309 54.242Z" fill="#263238"/>
<path d="M53.5275 58.4851C53.9495 58.5982 54.3972 58.5662 54.7987 58.3941C54.7987 58.3941 54.7597 59.0467 54.2034 59.0675C53.6471 59.0883 53.5275 58.4851 53.5275 58.4851Z" fill="#703838"/>
<path d="M54.2866 50.3941C54.2866 50.3941 53.8343 55.6616 60.8189 57.1695C60.8189 57.1695 63.9253 52.4481 60.0547 49.9756C56.1842 47.503 54.2866 50.3941 54.2866 50.3941Z" fill="#263238"/>
<path d="M59.3399 57.1669C59.3399 57.1669 59.8026 55.7318 60.8267 55.9164C61.9523 56.1192 61.8665 57.2163 61.7807 57.6063C61.5208 58.6047 60.481 59.5224 58.9655 59.2468L59.3399 57.1669Z" fill="white"/>
<path d="M54.8974 62.3876C54.8974 62.3876 52.9219 64.6417 53.2 66.0041C53.4781 67.3664 56.5065 68.2062 58.547 63.7213L54.8974 62.3876Z" fill="white"/>
<path d="M47.6996 65.2215L47.7152 65.1383C47.7651 64.8414 47.9085 64.5683 48.1246 64.3588C48.3406 64.1492 48.618 64.0142 48.9161 63.9735L56.6261 66.5578L54.9442 78.4368L47.1459 75.5769L47.6996 65.2215Z" fill="#263238"/>
<path d="M56.1582 67.0102L55.4511 67.6654L53.6159 78.7306L54.3568 78.4498L56.1582 67.0102Z" fill="#E0E0E0"/>
<path d="M48.3677 64.8731C48.4691 64.7519 48.6049 64.6644 48.7572 64.6221C48.9094 64.5799 49.0709 64.5849 49.2203 64.6365L56.1582 67.0102L55.4511 67.6654L48.5444 65.4841C48.4844 65.4651 48.4301 65.4316 48.3861 65.3866C48.3422 65.3415 48.31 65.2863 48.2926 65.2259C48.2751 65.1654 48.2728 65.1016 48.2859 65.0401C48.299 64.9785 48.3271 64.9212 48.3677 64.8731Z" fill="white"/>
<path d="M47.6996 65.2214L55.4511 67.6654L53.7277 79.1596L46.2049 76.0449L47.6996 65.2214Z" fill="#455A64"/>
<path d="M58.729 73.0472C57.9804 72.8392 56.7014 71.9553 56.7014 71.9553C56.7014 71.9553 58.5574 71.2403 57.8322 70.8633C57.107 70.4863 53.9772 71.6069 53.9772 71.6069C53.9772 71.6069 47.697 71.1727 45.9424 71.3105C44.1878 71.4483 42.2226 73.3566 42.2226 73.3566C42.2226 73.3566 41.9965 75.1401 44.809 75.5171C47.6216 75.8941 53.9772 74.5474 53.9772 74.5474C58.0895 76.1671 59.8442 75.8239 60.6448 74.511C61.4454 73.198 59.4776 73.2526 58.729 73.0472Z" fill="white"/>
<path d="M64.4919 68.0814C64.4919 68.0814 60.3562 65.6973 59.1969 72.1191L58.1207 77.1733L50.6188 74.8932C50.6188 74.8932 48.7602 72.1373 47.9543 72.0125C47.1485 71.8877 48.2143 73.5724 48.2143 73.5724C48.2143 73.5724 46.6546 73.5256 45.9346 73.25C45.2145 72.9744 43.6549 71.7629 43.5223 73.2942C43.3897 74.8256 44.0552 76.0111 48.3261 77.1421C48.3261 77.1421 59.9559 85.0224 61.4974 81.7699C63.0389 78.5174 64.4296 69.1994 64.4919 68.0814Z" fill="white"/>
<path d="M44.2865 75.4209C44.2705 75.4209 44.2549 75.4154 44.2424 75.4053C43.6237 74.8334 43.3949 74.199 43.4625 73.2786C43.457 73.134 43.4877 72.9902 43.5517 72.8604C43.6156 72.7306 43.711 72.6187 43.829 72.535C44.2424 72.3062 44.913 72.6546 45.4485 72.9328C45.6382 73.0316 45.8176 73.1252 45.9684 73.1798C46.5636 73.406 47.736 73.4762 48.1103 73.4944C47.9257 73.1876 47.4527 72.3478 47.645 72.0514C47.6824 72.0035 47.7336 71.9681 47.7916 71.95C47.8497 71.9319 47.9119 71.9319 47.9699 71.95C48.794 72.08 50.6032 74.745 50.6785 74.8593C50.6834 74.8659 50.6869 74.8734 50.6887 74.8814C50.6906 74.8893 50.6908 74.8976 50.6893 74.9056C50.6879 74.9137 50.6848 74.9213 50.6802 74.9281C50.6757 74.9349 50.6698 74.9407 50.663 74.9451C50.6562 74.9501 50.6485 74.9536 50.6403 74.9555C50.6322 74.9573 50.6237 74.9576 50.6155 74.9561C50.6072 74.9547 50.5993 74.9516 50.5923 74.947C50.5853 74.9424 50.5793 74.9365 50.5746 74.9296C50.5564 74.901 48.7212 72.1944 47.9517 72.0696C47.8504 72.0514 47.7828 72.0696 47.7516 72.1164C47.6138 72.3244 48.0115 73.0888 48.2715 73.5204L48.3365 73.6218H48.2169C48.1545 73.6218 46.6442 73.5724 45.9164 73.2942C45.7386 73.2169 45.565 73.1301 45.3965 73.0342C44.8766 72.7742 44.2502 72.4388 43.894 72.6338C43.7951 72.7086 43.7159 72.8065 43.6633 72.9188C43.6108 73.0312 43.5865 73.1547 43.5925 73.2786C43.5171 74.1574 43.7355 74.7606 44.3229 75.3013C44.3287 75.3071 44.3334 75.314 44.3365 75.3216C44.3397 75.3292 44.3413 75.3373 44.3413 75.3455C44.3413 75.3538 44.3397 75.3619 44.3365 75.3695C44.3334 75.377 44.3287 75.3839 44.3229 75.3897C44.3148 75.4041 44.302 75.4151 44.2865 75.4209Z" fill="#703838"/>
<path d="M58.4535 75.6965C58.4388 75.6936 58.4256 75.6856 58.4161 75.674C58.4066 75.6624 58.4014 75.6478 58.4014 75.6329C58.4014 75.6179 58.4066 75.6033 58.4161 75.5917C58.4256 75.5801 58.4388 75.5721 58.4535 75.5692C59.4594 75.5458 60.1587 75.1896 60.5928 74.4798C60.6709 74.3837 60.7244 74.2701 60.7489 74.1487C60.7733 74.0273 60.7679 73.9018 60.7332 73.783C60.5616 73.4112 59.8546 73.302 59.2879 73.2136C59.1787 73.198 59.0747 73.1824 58.9812 73.1642C58.9646 73.1615 58.9498 73.1523 58.9401 73.1386C58.9303 73.125 58.9264 73.108 58.9292 73.0914C58.9319 73.0749 58.9411 73.0601 58.9548 73.0504C58.9684 73.0406 58.9854 73.0367 59.0019 73.0394L59.3061 73.0888C59.904 73.1824 60.6474 73.2994 60.8475 73.7284C60.8927 73.8661 60.9028 74.0128 60.8769 74.1554C60.851 74.2979 60.79 74.4318 60.6994 74.5448C60.2419 75.2962 59.5088 75.6705 58.4561 75.6965H58.4535Z" fill="#703838"/>
</svg>
