<svg width="33" height="32" viewBox="0 0 33 32" fill="none" xmlns="http://www.w3.org/2000/svg">
<path d="M29.8573 17.7307L24.632 20.688L19.9453 16.0307L24.6693 11.336L29.8573 14.272C30.1635 14.4452 30.4182 14.6965 30.5955 15.0003C30.7727 15.3042 30.8661 15.6496 30.8661 16.0014C30.8661 16.3531 30.7727 16.6986 30.5955 17.0024C30.4182 17.3062 30.1635 17.5576 29.8573 17.7307ZM2.28264 1.23204C2.18369 1.47225 2.13295 1.72958 2.1333 1.98937V30.012C2.1333 30.3014 2.1933 30.5707 2.29864 30.812L17.172 16.0294L2.28264 1.23204ZM18.5586 14.652L22.9026 10.3347L5.09997 0.260037C4.71838 0.0407512 4.27396 -0.0433416 3.83864 0.0213706L18.5586 14.652ZM18.5586 17.408L3.89197 31.9854C4.2893 32.0334 4.70797 31.964 5.09997 31.7414L22.8653 21.688L18.5586 17.408Z" fill="white"/>
</svg>
