<svg width="33" height="32" viewBox="0 0 33 32" fill="none" xmlns="http://www.w3.org/2000/svg">
<path d="M29.9573 23.3194C29.2213 24.9489 28.8693 25.6776 27.9241 27.1176C26.6035 29.1286 24.7389 31.6382 22.4336 31.6554C20.3832 31.6726 19.8539 30.3176 17.0712 30.3397C14.2884 30.3532 13.7087 31.68 11.6558 31.6591C9.35056 31.6382 7.58563 29.3773 6.26379 27.3699C2.56779 21.7391 2.17763 15.1397 4.46194 11.6283C6.07794 9.13848 8.63548 7.67633 11.0367 7.67633C13.4822 7.67633 15.0195 9.02033 17.0416 9.02033C19.0035 9.02033 20.1986 7.67264 23.0269 7.67264C25.1659 7.67264 27.4281 8.83817 29.0441 10.8492C23.7567 13.7465 24.6158 21.2985 29.9573 23.3194ZM20.8804 5.42525C21.9093 4.10464 22.6896 2.24125 22.4066 0.340942C20.7278 0.455404 18.7647 1.5274 17.6176 2.91571C16.5789 4.17971 15.7173 6.05787 16.0533 7.87448C17.8847 7.93356 19.7801 6.84187 20.8804 5.42525Z" fill="white"/>
</svg>
