<svg width="114" height="111" viewBox="0 0 114 111" fill="none" xmlns="http://www.w3.org/2000/svg">
<path d="M56.8801 111C25.4663 111 0.000450134 96.2966 0.000450134 78.1591C0.000450134 60.0217 25.4663 45.3183 56.8801 45.3183C88.2939 45.3183 113.76 60.0217 113.76 78.1591C113.76 96.2966 88.2939 111 56.8801 111Z" fill="#B498B9"/>
<path opacity="0.1" d="M77.5008 76.8733C78.3799 77.3947 79.3273 77.9953 79.6522 78.9645C79.8306 79.5677 79.8037 80.213 79.5757 80.7992C78.6557 83.442 75.3604 84.5995 74.241 87.1631C73.6486 88.5282 73.7605 90.0625 73.695 91.5314C73.6295 93.0002 73.2964 94.6273 72.1252 95.5337C71.5463 95.9383 70.8854 96.2105 70.1895 96.3309C67.6699 96.8716 65.0428 96.5794 62.7035 95.4983C59.0042 93.7755 56.4679 90.2946 53.1753 87.8866C51.2961 86.5107 49.1795 85.4927 46.9315 84.8835C44.9386 84.3788 42.8934 84.1094 40.8378 84.0808C39.7458 84.0508 38.4681 83.9552 37.9029 83.027C37.1112 81.7247 38.449 80.1849 39.6338 79.2403C38.5691 78.6751 37.2859 78.8471 36.0847 78.8908C34.8834 78.9345 33.4992 78.7379 32.8085 77.7442C32.2297 76.9006 32.3717 75.7184 32.9095 74.8502C33.4474 73.982 34.3128 73.3705 35.1864 72.8436C42.0855 68.6774 50.5871 68.3361 58.6383 68.6637C60.5685 68.7429 62.5206 68.8576 64.3716 69.4336C69.2667 70.9816 73.1326 74.3015 77.5008 76.8733Z" fill="black"/>
<path d="M95.8801 2.98487L98.2744 4.36905C98.2744 4.2462 98.2553 4.12334 98.2553 4.00322V3.20329C98.2553 1.77815 99.1208 1.12292 100.191 1.73993C100.663 2.03607 101.059 2.43918 101.346 2.91662C101.521 1.10927 102.738 0.333912 104.218 1.18571C105.815 2.11123 107.112 4.58746 107.112 6.7197V7.91823C107.121 8.39808 107.038 8.87526 106.869 9.32425L108.856 10.4709C109.449 10.8149 109.929 11.7322 109.929 12.524C109.929 13.3157 109.449 13.6761 108.856 13.343L95.8801 5.85152C95.2877 5.51025 94.8072 4.5902 94.8072 3.79846C94.8072 3.00672 95.2877 2.64361 95.8801 2.98487Z" fill="#EBEBEB"/>
<path d="M80.504 7.16746L82.3113 8.21038C82.3005 8.11977 82.295 8.02861 82.2949 7.93736V7.33127C82.2949 6.2556 82.9502 5.76144 83.7556 6.23922C84.112 6.46193 84.4104 6.76602 84.6265 7.12651C84.7602 5.76144 85.6776 5.1772 86.7942 5.82151C88.0009 6.51769 88.9783 8.38784 88.9783 9.99589V10.9023C88.9847 11.2658 88.9217 11.6272 88.7927 11.967L90.2942 12.8325C90.5423 13.0084 90.7457 13.2402 90.888 13.509C91.0302 13.7779 91.1074 14.0764 91.1133 14.3805C91.1133 14.9784 90.7502 15.2514 90.2942 14.9948L80.504 9.32427C80.2555 9.14805 80.0519 8.91589 79.9096 8.64653C79.7674 8.37716 79.6904 8.07813 79.6849 7.77356C79.6849 7.18385 80.048 6.9081 80.504 7.16746Z" fill="#EBEBEB"/>
<path d="M13.5617 11.7836C12.7642 6.87066 16.1005 2.24141 21.0135 1.44392C25.9264 0.646434 30.5557 3.9827 31.3532 8.89568C32.1507 13.8087 28.8144 18.4379 23.9014 19.2354C18.9884 20.0329 14.3592 16.6966 13.5617 11.7836Z" fill="#F0997A"/>
<path d="M99.3692 60.1049L97.4199 58.98C97.4199 58.98 96.2596 54.1559 96.721 49.815C97.3708 43.7158 101.387 41.4198 102.916 41.944C104.445 42.4682 104.884 44.2455 102.37 47.8793C100.865 50.017 99.0362 54.4835 99.3692 60.1049Z" fill="#B498B9"/>
<path opacity="0.25" d="M99.3692 60.1049L97.4199 58.98C97.4199 58.98 96.2596 54.1559 96.721 49.815C97.3708 43.7158 101.387 41.4198 102.916 41.944C104.445 42.4682 104.884 44.2455 102.37 47.8793C100.865 50.017 99.0362 54.4835 99.3692 60.1049Z" fill="black"/>
<path d="M98.5611 57.7297H98.5802C98.5977 57.7265 98.6143 57.7198 98.6291 57.71C98.644 57.7003 98.6567 57.6876 98.6666 57.6729C98.6766 57.6582 98.6834 57.6416 98.6869 57.6242C98.6903 57.6067 98.6902 57.5888 98.6867 57.5714C97.6192 51.9419 99.5849 45.6189 102.02 42.987C102.035 42.9746 102.047 42.9591 102.056 42.9415C102.064 42.924 102.069 42.9048 102.069 42.8854C102.07 42.8659 102.066 42.8465 102.059 42.8286C102.051 42.8107 102.04 42.7946 102.025 42.7814C102.011 42.7682 101.994 42.7583 101.975 42.7522C101.957 42.7462 101.937 42.7442 101.918 42.7463C101.899 42.7485 101.88 42.7547 101.863 42.7647C101.846 42.7747 101.832 42.7881 101.821 42.8041C99.3419 45.4796 97.338 51.9146 98.4219 57.6178C98.4277 57.6501 98.4451 57.6792 98.4706 57.6997C98.4962 57.7203 98.5283 57.7309 98.5611 57.7297Z" fill="white"/>
<path d="M104.477 63.0481C104.786 63.2064 105.605 62.502 105.842 62.3328C106.23 62.0355 106.535 61.6447 106.73 61.197C106.948 60.6866 107.003 60.1208 106.885 59.5781C106.824 59.2904 106.742 59.0076 106.64 58.7317C106.547 58.4587 106.454 58.1857 106.367 57.9127C106.259 57.6531 106.203 57.3748 106.203 57.0936C106.246 56.523 106.732 56.0999 107.172 55.7286C107.661 55.3218 108.163 54.7949 108.125 54.1123C108.06 53.584 107.823 53.0917 107.45 52.7118C107.104 52.3132 106.697 51.9692 106.38 51.546C106.131 51.2535 105.991 50.8843 105.982 50.5004C106.001 50.2646 106.068 50.0351 106.178 49.826C106.436 49.3901 106.657 48.9335 106.839 48.4609C106.981 47.975 106.926 47.3825 106.536 47.0577C106.363 46.9417 106.168 46.8614 105.964 46.8216C105.76 46.7817 105.549 46.7831 105.345 46.8256C104.955 46.8857 104.583 47.0321 104.256 47.2542C103.2 47.9122 102.645 49.2281 101.526 49.7496C101.08 49.9157 100.624 50.0534 100.161 50.1618C99.9274 50.2176 99.7079 50.3215 99.5166 50.4667C99.3253 50.612 99.1664 50.7954 99.0498 51.0054C98.6703 51.8736 99.5085 52.8728 99.2546 53.7847C99.0334 54.6037 98.2772 54.9341 97.8895 55.6685C97.7284 55.9928 97.6758 56.3604 97.7393 56.7169C97.8024 57.3211 97.9754 57.9086 98.2499 58.4505C98.5637 59.0045 98.9111 59.5388 99.2901 60.0504L104.477 63.0481Z" fill="#B498B9"/>
<path opacity="0.1" d="M104.477 63.0481C104.786 63.2064 105.605 62.502 105.842 62.3328C106.23 62.0355 106.535 61.6447 106.73 61.197C106.948 60.6866 107.003 60.1208 106.885 59.5781C106.824 59.2904 106.742 59.0076 106.64 58.7317C106.547 58.4587 106.454 58.1857 106.367 57.9127C106.259 57.6531 106.203 57.3748 106.203 57.0936C106.246 56.523 106.732 56.0999 107.172 55.7286C107.661 55.3218 108.163 54.7949 108.125 54.1123C108.06 53.584 107.823 53.0917 107.45 52.7118C107.104 52.3132 106.697 51.9692 106.38 51.546C106.131 51.2535 105.991 50.8843 105.982 50.5004C106.001 50.2646 106.068 50.0351 106.178 49.826C106.436 49.3901 106.657 48.9335 106.839 48.4609C106.981 47.975 106.926 47.3825 106.536 47.0577C106.363 46.9417 106.168 46.8614 105.964 46.8216C105.76 46.7817 105.549 46.7831 105.345 46.8256C104.955 46.8857 104.583 47.0321 104.256 47.2542C103.2 47.9122 102.645 49.2281 101.526 49.7496C101.08 49.9157 100.624 50.0534 100.161 50.1618C99.9274 50.2176 99.7079 50.3215 99.5166 50.4667C99.3253 50.612 99.1664 50.7954 99.0498 51.0054C98.6703 51.8736 99.5085 52.8728 99.2546 53.7847C99.0334 54.6037 98.2772 54.9341 97.8895 55.6685C97.7284 55.9928 97.6758 56.3604 97.7393 56.7169C97.8024 57.3211 97.9754 57.9086 98.2499 58.4505C98.5637 59.0045 98.9111 59.5388 99.2901 60.0504L104.477 63.0481Z" fill="black"/>
<path d="M101.493 61.4918C101.511 61.4905 101.529 61.4856 101.545 61.4774C101.561 61.4692 101.575 61.458 101.587 61.4443C101.598 61.4306 101.607 61.4147 101.613 61.3975C101.618 61.3804 101.62 61.3624 101.619 61.3444C101.125 55.9934 103.352 49.9434 105.105 48.1306C105.127 48.104 105.138 48.0701 105.136 48.0357C105.134 48.0013 105.119 47.969 105.094 47.9451C105.07 47.9213 105.037 47.9077 105.002 47.9072C104.968 47.9067 104.934 47.9191 104.909 47.9422C103.123 49.7905 100.849 55.9415 101.359 61.369C101.363 61.4023 101.378 61.4333 101.403 61.4559C101.428 61.4786 101.46 61.4913 101.493 61.4918Z" fill="white"/>
<path d="M102.026 54.8931H102.064C103.317 54.4817 104.612 54.2071 105.924 54.0741C105.942 54.0727 105.96 54.0678 105.975 54.0596C105.991 54.0514 106.005 54.0401 106.017 54.0263C106.028 54.0126 106.037 53.9967 106.042 53.9795C106.047 53.9624 106.049 53.9444 106.047 53.9266C106.046 53.9087 106.041 53.8911 106.033 53.875C106.025 53.8589 106.014 53.8446 106 53.8331C105.986 53.8216 105.97 53.813 105.953 53.808C105.936 53.8029 105.918 53.8015 105.9 53.8038C104.564 53.9405 103.246 54.2224 101.971 54.6447C101.955 54.6507 101.939 54.66 101.927 54.672C101.914 54.6839 101.903 54.6983 101.896 54.7142C101.888 54.7302 101.884 54.7475 101.884 54.7651C101.883 54.7826 101.886 54.8002 101.892 54.8167C101.904 54.8414 101.923 54.8619 101.947 54.8756C101.971 54.8892 101.998 54.8953 102.026 54.8931Z" fill="white"/>
<path d="M12.3161 60.8939L14.7596 59.4824C14.7596 59.4824 15.3575 54.2487 14.9616 50.1999C14.402 44.5021 10.7217 37.6413 6.3344 39.2575C1.94707 40.8738 8.34652 46.6699 9.77165 51.5022C11.1968 56.3345 12.3161 60.8939 12.3161 60.8939Z" fill="#B498B9"/>
<path opacity="0.2" d="M12.3161 60.8939L14.7596 59.4824C14.7596 59.4824 15.3575 54.2487 14.9616 50.1999C14.402 44.5021 10.7217 37.6413 6.3344 39.2575C1.94707 40.8738 8.34652 46.6699 9.77165 51.5022C11.1968 56.3345 12.3161 60.8939 12.3161 60.8939Z" fill="black"/>
<path d="M13.6021 60.2988C13.5827 60.2981 13.5637 60.2936 13.546 60.2855C13.5284 60.2775 13.5126 60.266 13.4994 60.2518C13.4862 60.2376 13.4759 60.2209 13.4692 60.2028C13.4624 60.1846 13.4594 60.1653 13.4601 60.1459C13.8887 47.489 7.58756 41.1223 7.52477 41.0596C7.51082 41.0458 7.49974 41.0295 7.49218 41.0114C7.48461 40.9934 7.48072 40.974 7.48072 40.9544C7.48072 40.9349 7.48461 40.9155 7.49218 40.8975C7.49974 40.8794 7.51082 40.863 7.52477 40.8493C7.55284 40.8218 7.59058 40.8064 7.62988 40.8064C7.66919 40.8064 7.70692 40.8218 7.73499 40.8493C7.79778 40.9121 14.1918 47.3716 13.7577 60.1569C13.757 60.1765 13.7524 60.1957 13.7441 60.2135C13.7359 60.2313 13.7242 60.2473 13.7097 60.2605C13.6952 60.2738 13.6782 60.284 13.6597 60.2905C13.6413 60.2971 13.6216 60.2999 13.6021 60.2988Z" fill="white"/>
<path d="M10.7791 61.7732L12.5236 60.7685C12.5236 60.7685 12.8185 57.1783 11.0576 52.8129C9.52595 49.0152 5.72286 45.8647 3.80903 46.5335C1.89521 47.2024 1.94163 48.5538 2.87533 49.9762C3.80904 51.3986 9.4768 54.784 10.7791 61.7732Z" fill="#B498B9"/>
<path opacity="0.1" d="M10.7791 61.7732L12.5236 60.7685C12.5236 60.7685 12.8185 57.1783 11.0576 52.8129C9.52595 49.0152 5.72286 45.8647 3.80903 46.5335C1.89521 47.2024 1.94163 48.5538 2.87533 49.9762C3.80904 51.3986 9.4768 54.784 10.7791 61.7732Z" fill="black"/>
<path d="M11.7046 61.3909C11.6655 61.3909 11.628 61.3754 11.6004 61.3477C11.5727 61.3201 11.5572 61.2826 11.5572 61.2435C11.5927 53.2415 4.0766 47.8303 4.00016 47.7784C3.97348 47.7537 3.95671 47.7201 3.95295 47.6839C3.9492 47.6477 3.95872 47.6113 3.97975 47.5816C4.00078 47.5519 4.03188 47.5309 4.06727 47.5224C4.10267 47.5139 4.13994 47.5185 4.17216 47.5355C4.2486 47.5901 11.8875 53.0886 11.852 61.2435C11.852 61.2826 11.8365 61.3201 11.8089 61.3477C11.7812 61.3754 11.7437 61.3909 11.7046 61.3909Z" fill="white"/>
<path d="M86.9334 77.5449C86.9334 77.5449 87.1027 72.5215 86.4447 71.0172C86.017 70.0747 85.3956 69.2328 84.621 68.5464C84.621 68.5464 85.9042 70.4356 85.9861 72.2512C86.068 74.0667 85.7922 77.5449 85.7922 77.5449C85.7922 77.5449 86.4748 78.0991 86.9334 77.5449Z" fill="#B498B9"/>
<path opacity="0.1" d="M86.9334 77.5449C86.9334 77.5449 87.1027 72.5215 86.4447 71.0172C86.017 70.0747 85.3956 69.2328 84.621 68.5464C84.621 68.5464 85.9042 70.4356 85.9861 72.2512C86.068 74.0667 85.7922 77.5449 85.7922 77.5449C85.7922 77.5449 86.4748 78.0991 86.9334 77.5449Z" fill="black"/>
<path d="M87.0863 78.7763C87.0863 78.7763 86.8133 78.7926 86.5567 78.364C86.5239 78.1975 86.887 73.1767 88.405 71.3284C89.9229 69.4801 92.8633 69.016 92.8633 69.016C92.8633 69.016 89.9202 70.0808 88.7026 72.5516C87.7525 74.479 87.5805 78.5579 87.5805 78.5579L87.0863 78.7763Z" fill="#B498B9"/>
<path opacity="0.15" d="M87.0863 78.7763C87.0863 78.7763 86.8133 78.7926 86.5567 78.364C86.5239 78.1975 86.887 73.1767 88.405 71.3284C89.9229 69.4801 92.8633 69.016 92.8633 69.016C92.8633 69.016 89.9202 70.0808 88.7026 72.5516C87.7525 74.479 87.5805 78.5579 87.5805 78.5579L87.0863 78.7763Z" fill="black"/>
<path d="M87.9873 78.5687C87.9873 78.5687 89.8984 73.0456 93.9936 72.0764C93.9936 72.0764 91.6866 71.9836 90.0403 73.5671C88.394 75.1506 87.2501 77.6159 87.0754 78.7762C87.0863 78.7762 87.6706 79.3987 87.9873 78.5687Z" fill="#B498B9"/>
<path opacity="0.1" d="M87.9873 78.5687C87.9873 78.5687 89.8984 73.0456 93.9936 72.0764C93.9936 72.0764 91.6866 71.9836 90.0403 73.5671C88.394 75.1506 87.2501 77.6159 87.0754 78.7762C87.0863 78.7762 87.6706 79.3987 87.9873 78.5687Z" fill="black"/>
<path d="M22.9991 76.4448C22.9991 76.4448 23.5206 71.0064 24.4379 69.4775C25.0313 68.5215 25.8191 67.7011 26.7503 67.0695C26.7503 67.0695 25.1122 68.9287 24.7682 70.8726C24.4242 72.8165 24.2222 76.6059 24.2222 76.6059C24.2222 76.6059 23.4168 77.1082 22.9991 76.4448Z" fill="#B498B9"/>
<path opacity="0.15" d="M22.9991 76.4448C22.9991 76.4448 23.5206 71.0064 24.4379 69.4775C25.0313 68.5215 25.8191 67.7011 26.7503 67.0695C26.7503 67.0695 25.1122 68.9287 24.7682 70.8726C24.4242 72.8165 24.2222 76.6059 24.2222 76.6059C24.2222 76.6059 23.4168 77.1082 22.9991 76.4448Z" fill="black"/>
<path d="M22.6633 77.7498C22.6633 77.7498 22.9363 77.8044 23.2912 77.3785C23.3513 77.2065 23.6625 71.7463 22.2838 69.5403C20.9051 67.3344 17.8009 66.4252 17.8009 66.4252C17.8009 66.4252 20.8259 67.9841 21.7924 70.8153C22.5459 73.0267 22.161 77.4577 22.161 77.4577L22.6633 77.7498Z" fill="#B498B9"/>
<path opacity="0.2" d="M22.6633 77.7498C22.6633 77.7498 22.9363 77.8044 23.2912 77.3785C23.3513 77.2065 23.6625 71.7463 22.2838 69.5403C20.9051 67.3344 17.8009 66.4252 17.8009 66.4252C17.8009 66.4252 20.8259 67.9841 21.7924 70.8153C22.5459 73.0267 22.161 77.4577 22.161 77.4577L22.6633 77.7498Z" fill="black"/>
<path d="M21.7214 77.4004C21.7214 77.4004 20.441 71.1812 16.1437 69.5622C16.1437 69.5622 18.6418 69.7833 20.1953 71.7217C21.7487 73.6601 22.636 76.4749 22.6524 77.7499C22.6633 77.7499 21.9453 78.3396 21.7214 77.4004Z" fill="#B498B9"/>
<path opacity="0.15" d="M21.7214 77.4004C21.7214 77.4004 20.441 71.1812 16.1437 69.5622C16.1437 69.5622 18.6418 69.7833 20.1953 71.7217C21.7487 73.6601 22.636 76.4749 22.6524 77.7499C22.6633 77.7499 21.9453 78.3396 21.7214 77.4004Z" fill="black"/>
<path d="M58.8158 41.2206C61.0569 41.2211 63.2479 40.557 65.1115 39.3123C66.9751 38.0675 68.4278 36.298 69.2857 34.2276C70.1435 32.1572 70.3681 29.8789 69.9311 27.6808C69.494 25.4827 68.4148 23.4637 66.8301 21.879C65.2454 20.2943 63.2263 19.2151 61.0283 18.778C58.8302 18.3409 56.5519 18.5655 54.4815 19.4234C52.4111 20.2813 50.6416 21.7339 49.3968 23.5976C48.1521 25.4612 47.488 27.6521 47.4885 29.8932C47.4921 32.8963 48.6867 35.7754 50.8102 37.8989C52.9337 40.0224 55.8127 41.217 58.8158 41.2206ZM58.8158 18.7952C61.0108 18.7952 63.1565 19.4461 64.9816 20.6656C66.8066 21.8851 68.2291 23.6183 69.069 25.6462C69.909 27.6741 70.1288 29.9056 69.7006 32.0584C69.2724 34.2112 68.2154 36.1886 66.6633 37.7407C65.1112 39.2928 63.1337 40.3498 60.9809 40.778C58.8281 41.2062 56.5967 40.9864 54.5688 40.1465C52.5409 39.3065 50.8076 37.884 49.5882 36.059C48.3687 34.2339 47.7178 32.0882 47.7178 29.8932C47.7207 26.9508 48.8909 24.1296 50.9716 22.049C53.0522 19.9683 55.8733 18.7981 58.8158 18.7952Z" fill="#B498B9"/>
<g opacity="0.15">
<path d="M58.8158 47.0466C62.2092 47.0472 65.5266 46.0414 68.3483 44.1564C71.17 42.2715 73.3694 39.5921 74.6683 36.4571C75.9671 33.3221 76.3071 29.8724 75.6452 26.5441C74.9833 23.2159 73.3493 20.1587 70.9498 17.7592C68.5503 15.3597 65.4931 13.7257 62.1649 13.0638C58.8366 12.4019 55.3869 12.7419 52.2519 14.0408C49.1169 15.3396 46.4375 17.539 44.5526 20.3607C42.6676 23.1825 41.6618 26.4998 41.6624 29.8932C41.6681 34.4408 43.4772 38.8005 46.6929 42.0161C49.9085 45.2318 54.2682 47.0409 58.8158 47.0466ZM58.8158 12.9664C62.1636 12.9664 65.4362 13.9591 68.2199 15.819C71.0035 17.679 73.173 20.3226 74.4542 23.4156C75.7353 26.5086 76.0705 29.912 75.4174 33.1955C74.7643 36.479 73.1522 39.495 70.7849 41.8623C68.4176 44.2296 65.4016 45.8417 62.1181 46.4948C58.8346 47.1479 55.4312 46.8127 52.3382 45.5316C49.2452 44.2504 46.6016 42.0809 44.7416 39.2973C42.8817 36.5136 41.889 33.241 41.889 29.8932C41.8933 25.4053 43.6781 21.1024 46.8515 17.9289C50.025 14.7554 54.3279 12.9707 58.8158 12.9664Z" fill="#B498B9"/>
</g>
<g opacity="0.3">
<path d="M58.8158 44.9636C61.7971 44.9636 64.7114 44.0796 67.1903 42.4232C69.6691 40.7668 71.601 38.4126 72.7418 35.6581C73.8826 32.9037 74.1809 29.8729 73.5991 26.9489C73.0172 24.025 71.5814 21.3392 69.4731 19.2313C67.3648 17.1234 64.6788 15.6881 61.7548 15.1068C58.8307 14.5255 55.7999 14.8244 53.0457 15.9656C50.2915 17.1069 47.9376 19.0393 46.2817 21.5184C44.6258 23.9975 43.7422 26.912 43.7427 29.8933C43.7478 33.8891 45.3376 37.7198 48.1633 40.545C50.989 43.3702 54.82 44.9593 58.8158 44.9636ZM58.8158 15.0495C61.7516 15.0495 64.6215 15.9201 67.0626 17.5512C69.5036 19.1822 71.4062 21.5005 72.5297 24.2128C73.6531 26.9252 73.9471 29.9098 73.3743 32.7892C72.8016 35.6686 71.3879 38.3135 69.3119 40.3894C67.236 42.4653 64.5911 43.8791 61.7117 44.4518C58.8323 45.0246 55.8477 44.7306 53.1354 43.6071C50.423 42.4836 48.1047 40.5811 46.4737 38.14C44.8426 35.699 43.9721 32.8291 43.9721 29.8933C43.9786 25.9592 45.5448 22.1883 48.3274 19.4073C51.1099 16.6262 54.8818 15.0621 58.8158 15.0577V15.0495Z" fill="#B498B9"/>
</g>
<g opacity="0.6">
<path d="M58.8158 43.1371C61.4354 43.135 63.9956 42.3562 66.1726 40.8992C68.3496 39.4422 70.0457 37.3724 71.0466 34.9516C72.0474 32.5307 72.3081 29.8675 71.7955 27.2985C71.2829 24.7296 70.0201 22.3703 68.1669 20.5189C66.3136 18.6676 63.953 17.4072 61.3835 16.8973C58.814 16.3874 56.1511 16.6507 53.7312 17.6541C51.3114 18.6574 49.2434 20.3557 47.7887 22.5342C46.3339 24.7127 45.5578 27.2737 45.5583 29.8933C45.5626 33.4068 46.9612 36.775 49.447 39.2581C51.9327 41.7413 55.3023 43.1364 58.8158 43.1371ZM58.8158 16.876C61.3905 16.8754 63.9076 17.6384 66.0486 19.0685C68.1896 20.4985 69.8585 22.5313 70.8442 24.9099C71.8299 27.2884 72.088 29.9058 71.5861 32.4311C71.0841 34.9564 69.8445 37.2761 68.0241 39.0969C66.2038 40.9177 63.8843 42.1577 61.3591 42.6602C58.8339 43.1627 56.2165 42.9051 53.8377 41.9199C51.4589 40.9348 49.4258 39.2663 47.9953 37.1256C46.5648 34.9848 45.8013 32.468 45.8013 29.8933C45.8049 26.4424 47.1771 23.134 49.617 20.6936C52.0568 18.2532 55.365 16.8803 58.8158 16.876Z" fill="#B498B9"/>
</g>
<path d="M49.6808 29.3471C50.0739 23.9141 53.7487 20.7226 58.8158 20.7226C60.7098 20.7229 62.5574 21.3089 64.1053 22.4003C65.6532 23.4917 66.8257 25.0351 67.4621 26.819V26.8436C67.4922 26.9255 67.5195 27.0101 67.5468 27.0948C67.962 28.2596 68.6756 29.2951 69.6162 30.0979C71.0031 31.2173 72.734 30.8705 74.4076 30.6794C74.9205 30.6101 75.4381 30.5809 75.9556 30.5921C78.1752 30.6767 80.3729 32.1373 79.9061 34.6299C79.775 35.3316 79.3956 36.0196 79.5403 36.7158C79.6849 37.4119 80.2446 37.8542 80.8371 38.1655C81.4295 38.4767 82.0847 38.6869 82.6253 39.0855C82.9859 39.3571 83.2852 39.7018 83.5035 40.097C83.7218 40.4921 83.8542 40.929 83.8921 41.3788C83.9986 42.6156 83.3324 43.9806 82.4697 44.8325C80.7155 46.5172 78.4971 47.6382 76.1003 48.0513C73.4575 48.5509 70.681 48.4226 68.0027 48.1714C66.9854 48.0763 65.9744 47.9223 64.975 47.71C60.4266 46.7381 54.9526 43.9452 52.8559 41.1932C51.2199 39.1332 50.1592 36.6764 49.7818 34.073C49.5633 32.5071 49.5294 30.9209 49.6808 29.3471Z" fill="#263238"/>
<path d="M68.688 64.566C70.165 67.55 73.8097 76.524 75.2567 82.7323C76.6081 88.5448 75.3058 91.3186 74.1646 92.2223C72.3682 93.6337 67.9945 94.5292 64.5818 87.2643C63.5143 84.9929 59.4956 77.9819 59.4956 77.9819C59.4956 77.9819 56.5197 76.9089 55.4959 76.1063C55.4959 76.1063 45.5719 76.3957 40.7532 75.4073C35.9345 74.419 32.9723 68.9888 35.0472 68.0769C38.4271 66.5863 43.9202 65.2649 51.9195 64.7462L68.688 64.566Z" fill="#37474F"/>
<path d="M46.4101 70.4002C48.5805 70.9026 50.8438 72.2868 52.673 73.4635C52.5642 72.8243 52.5846 72.1698 52.7331 71.5387C52.8029 72.0307 52.9562 72.5071 53.1863 72.9475C53.4047 73.4744 53.8251 73.7474 54.3302 74.0068C54.3302 74.0068 58.4855 75.8633 59.7031 75.0388C60.6751 74.261 61.8717 73.8168 63.1158 73.772C62.0783 74.4709 59.0697 76.625 60.1372 79.123L59.4847 77.9764C59.4847 77.9764 56.5088 76.9034 55.485 76.1008C55.485 76.1008 49.9374 76.2619 45.1242 75.9315L41.6078 70.5176C41.6078 70.5176 43.3905 69.6986 46.4101 70.4002Z" fill="#263238"/>
<path d="M54.8407 79.4234C53.1672 78.9593 51.7939 78.4951 51.2451 77.4959C50.6964 76.4967 49.4159 75.421 47.3219 76.4039C44.944 77.4959 42.2821 76.767 40.401 76.6987C38.52 76.6305 37.2095 78.2958 36.5488 79.7319C35.4376 82.1535 37.4388 80.9659 39.1943 80.652C40.9498 80.338 45.0805 80.8321 46.7268 81.1598C49.4214 81.7058 54.0817 84.8646 59.0424 88.4984C59.0424 88.4984 61.7234 82.5576 62.0619 81.5065C62.0592 81.4956 56.5088 79.8902 54.8407 79.4234Z" fill="#B16668"/>
<path d="M37.1958 78.5852C37.9303 77.5341 39.0087 76.6359 40.3983 76.6877C42.2794 76.756 44.9412 77.5068 47.3192 76.3929C49.4132 75.4209 50.6964 76.4966 51.2424 77.4849C51.7884 78.4732 53.1535 78.9483 54.838 79.4124C56.5225 79.8765 62.0592 81.4846 62.0592 81.4846C61.9527 81.8122 61.8435 82.0879 61.404 83.109C58.723 82.1207 52.3317 80.0622 47.1417 79.1121C41.332 78.0583 38.6674 77.1546 37.1958 78.5852Z" fill="#9A4A4D"/>
<path d="M74.1537 92.2223C73.3346 93.3498 70.0285 94.3654 66.8315 93.3498C63.2823 92.2223 59.5993 89.1536 57.8848 87.6466C57.8848 87.6466 58.0322 85.2386 61.161 81.7904C63.0225 82.4998 64.8451 83.3072 66.6212 84.2093C68.9282 88.5011 72.158 87.3845 73.0371 88.9051C74.4977 91.4414 74.1537 92.2223 74.1537 92.2223Z" fill="#37474F"/>
<path d="M65.7613 85.9239C65.2358 85.2976 64.6267 84.7464 63.9512 84.2858C62.8406 83.6018 61.6481 83.0606 60.402 82.675C60.6332 82.3856 60.8853 82.089 61.1583 81.785C62.4323 82.271 63.6946 82.8061 64.945 83.3903C65.5784 83.6852 66.1845 83.8572 66.7223 84.3186C67.2072 84.7341 67.618 85.2289 67.9372 85.7819C68.0903 86.0086 68.1729 86.2755 68.1747 86.5491C68.15 86.7524 68.0718 86.9455 67.9481 87.1088C67.8761 87.24 67.7677 87.3477 67.636 87.4189C67.5043 87.4901 67.3548 87.5217 67.2055 87.5101C67.007 87.4359 66.8388 87.2975 66.7277 87.117C66.4165 86.7211 66.0944 86.3143 65.7613 85.9239Z" fill="#263238"/>
<path d="M50.1694 72.6826C54.6414 75.4455 57.7346 76.5048 59.3563 76.0925C60.4484 75.8195 62.3295 74.9295 63.4516 76.9443C64.1055 78.0663 64.9849 79.0405 66.0343 79.8055C66.8014 80.3898 67.7242 80.8976 68.3139 81.6866C68.9036 82.4756 69.0128 83.352 69.0019 84.2775C69.0019 84.859 68.9528 85.4733 68.6252 85.9538C68.5328 86.1012 68.4066 86.2245 68.257 86.3133C68.1075 86.4021 67.9388 86.4539 67.7652 86.4643C67.0499 86.4643 66.6895 85.4705 66.3073 85.0037C65.8223 84.4327 65.2457 83.9464 64.6009 83.5649C63.2959 82.7704 61.8271 82.3118 60.402 81.7903C58.8977 81.2443 53.1972 79.6062 48.545 78.5442L50.1694 72.6826Z" fill="#B16668"/>
<path d="M37.1603 67.4326C31.0367 68.6503 31.8093 72.74 34.1572 74.632C36.3058 76.352 39.4346 76.9007 42.9919 77.5232C46.5493 78.1457 48.7252 78.588 48.7252 78.588C48.7252 78.588 50.3141 75.8851 50.1503 72.6827C48.1027 71.2466 45.3235 69.9307 41.5422 70.4849L37.1603 67.4326Z" fill="#37474F"/>
<path d="M54.3739 41.2669C51.2561 41.6137 50.0794 42.4873 49.0883 45.7007C47.9963 49.2007 44.7665 60.2932 44.7665 60.2932C43.6745 60.9157 34.6077 65.8545 33.8214 65.3631C33.4911 65.1556 33.0788 64.1291 32.9286 63.7687C32.7094 63.2358 32.527 62.6885 32.3826 62.1306C32.2516 61.631 32.1424 61.1041 31.7492 60.7328C31.6587 60.6443 31.5515 60.5746 31.4339 60.5277C31.3163 60.4809 31.1906 60.4578 31.064 60.4598C30.4988 60.4871 30.2313 61.0386 30.0866 61.5355C29.9059 62.2394 29.7917 62.9588 29.7453 63.6841C29.6279 64.858 29.5296 66.7063 29.7917 67.3152C30.0129 67.8312 31.4298 69.4856 32.6174 69.8242C33.805 70.1627 41.3538 67.1787 46.0934 65.7699C48.6706 65.0027 49.0692 64.4048 49.6425 63.0998C50.3933 61.3717 54.1282 51.9609 54.1282 51.9609L54.3739 41.2669Z" fill="#B16668"/>
<path d="M52.3317 60.9021L51.2397 64.7953C52.0068 67.3752 53.9889 69.2372 59.5775 69.6385C63.8392 69.9443 68.0409 68.8577 69.365 66.0375C68.7043 63.4002 67.6805 60.9021 66.7305 58.3931C66.7305 58.3931 68.7453 52.9328 68.7453 52.9001C68.1993 52.5042 67.2383 50.0962 66.8342 47.1668C66.6404 45.7853 66.7578 43.4784 67.4567 42.0696L62.5424 41.2042L56.7354 41.0349C55.3458 41.1113 54.3575 41.2451 54.3575 41.2451C53.5657 42.2771 52.5146 44.3111 51.1523 46.7054C50.3551 48.1032 48.7334 51.5459 52.116 54.7811C52.0805 55.2398 52.3836 60.1622 52.3317 60.9021Z" fill="#B498B9"/>
<g opacity="0.8">
<path d="M52.3317 60.9021L51.2397 64.7953C52.0068 67.3752 53.9889 69.2372 59.5775 69.6385C63.8392 69.9443 68.0409 68.8577 69.365 66.0375C68.7043 63.4002 67.6805 60.9021 66.7305 58.3931C66.7305 58.3931 68.7453 52.9328 68.7453 52.9001C68.1993 52.5042 67.2383 50.0962 66.8342 47.1668C66.6404 45.7853 66.7578 43.4784 67.4567 42.0696L62.5424 41.2042L56.7354 41.0349C55.3458 41.1113 54.3575 41.2451 54.3575 41.2451C53.5657 42.2771 52.5146 44.3111 51.1523 46.7054C50.3551 48.1032 48.7334 51.5459 52.116 54.7811C52.0805 55.2398 52.3836 60.1622 52.3317 60.9021Z" fill="white"/>
</g>
<g opacity="0.05">
<path d="M54.3793 68.4646C55.6215 69.068 57.3033 69.4747 59.5884 69.6413C63.8474 69.9471 68.0518 68.8577 69.3732 66.0375C68.7153 63.4002 67.6915 60.9049 66.7414 58.3931C66.7414 58.3931 68.7562 52.9328 68.7562 52.9001C68.7173 52.8712 68.6817 52.8382 68.6497 52.8018L68.6006 52.7472C68.5193 52.6449 68.4462 52.5362 68.3822 52.4223C68.3658 52.395 68.3494 52.3622 68.3303 52.3322C68.2812 52.2394 68.2266 52.1356 68.172 52.0237C68.1174 51.9118 68.0982 51.8654 68.0628 51.7835C67.9536 51.535 67.8416 51.2511 67.7324 50.9398C67.6969 50.8334 67.6587 50.7269 67.6232 50.6177V50.5877C67.6014 50.5194 67.5768 50.4484 67.5577 50.3774C67.514 50.2355 67.4703 50.1044 67.4266 49.9406C67.3393 49.6321 67.2546 49.299 67.1782 48.9578C67.1618 48.8895 67.1454 48.824 67.1318 48.7557L66.7578 50.0471C66.7578 50.0471 67.1263 52.7772 66.7578 54.0249C66.3892 55.2726 64.0276 58.6115 63.842 59.2722C63.6563 59.9329 65.1661 59.9247 66.0452 61.713C66.9243 63.5012 66.7059 66.4115 63.8256 67.9923C60.028 70.0754 54.595 68.5274 54.3793 68.4646Z" fill="black"/>
</g>
<path opacity="0.05" d="M63.3833 52.5752C63.3833 52.5752 63.012 54.0631 60.8661 54.9886C60.0062 55.3863 59.0444 55.5085 58.1124 55.3384C57.1804 55.1683 56.3238 54.7143 55.6598 54.0385C55.6598 54.0385 57.2787 57.2819 61.161 55.8131C63.73 54.8357 63.3833 52.5752 63.3833 52.5752Z" fill="black"/>
<path d="M67.7734 52.6107C66.9557 50.8838 66.3709 49.0559 66.0343 47.175C65.4582 43.8797 66.4711 41.9031 66.4711 41.9031C70.0367 42.2553 71.4127 43.3037 73.7169 50.2956C75.3249 55.1716 77.5227 61.1206 78.2653 65.2704C78.6229 67.277 76.7555 76.5486 75.7181 79.953C75.4451 80.8567 74.2192 82.4975 72.6057 83.12C71.5137 83.3466 69.0838 81.2253 68.7289 80.4991C68.2948 79.1504 67.4567 75.2545 67.9345 74.2006C68.3767 73.2287 69.264 73.1523 70.1349 74.0068C70.9198 74.7642 71.5406 75.6749 71.9587 76.6823C72.3245 73.1332 72.6057 65.8956 72.6057 65.8956L67.7734 52.6107Z" fill="#B16668"/>
<path d="M53.1672 25.5441C52.198 26.1174 51.0622 27.7036 51.1796 32.8117C51.2806 37.1444 52.6839 38.2147 53.3883 38.5232C54.0927 38.8317 55.4523 38.6433 56.7737 38.4221V41.024C56.7737 41.024 54.9472 43.1453 55.0619 44.3356C55.1765 45.526 57.6992 45.8099 59.411 44.6469C61.1228 43.4838 62.5588 41.2123 62.5588 41.2123L62.5288 35.2333C62.5288 35.2333 63.3069 35.9896 64.6255 34.8375C65.7176 33.8847 66.0807 32.2793 65.2344 31.4193C64.388 30.5593 62.8155 30.7914 62.2148 32.02L60.9781 31.6787C60.983 31.1245 60.83 30.5804 60.537 30.11C60.244 29.6396 59.8231 29.2623 59.3236 29.0223C59.0804 28.9129 58.8295 28.8217 58.5728 28.7493C55.6953 27.8893 54.2537 27.8319 53.1672 25.5441Z" fill="#B16668"/>
<path d="M60.9781 31.0781L62.2121 31.4193V33.4505C61.8841 33.4505 61.5695 33.3202 61.3376 33.0883C61.1056 32.8564 60.9753 32.5418 60.9753 32.2138L60.9781 31.0781Z" fill="#263238"/>
<path d="M56.7737 38.4222C58.166 38.2392 61.0327 37.4175 61.4804 36.2845C61.3008 36.8579 60.9502 37.3627 60.4757 37.7314C59.6185 38.4631 56.7737 39.2903 56.7737 39.2903V38.4222Z" fill="#9A4A4D"/>
<path d="M56.4051 31.1818C56.4335 31.3911 56.5314 31.5848 56.6831 31.7317C56.8347 31.8787 57.0314 31.9704 57.2415 31.9921C57.4516 32.0138 57.6628 31.9643 57.8414 31.8515C58.02 31.7388 58.1554 31.5692 58.2261 31.3702C57.9531 31.57 57.6158 31.6613 57.2793 31.6265C56.9429 31.5917 56.6313 31.4333 56.4051 31.1818Z" fill="#263238"/>
<path d="M51.5809 31.0973C51.6395 31.3015 51.7654 31.4799 51.9382 31.6036C52.1109 31.7272 52.3204 31.7888 52.5326 31.7784C52.7448 31.7679 52.9473 31.6861 53.107 31.5461C53.2668 31.4061 53.3746 31.2161 53.4129 31.0072C53.1732 31.2443 52.8542 31.3843 52.5174 31.4003C52.1788 31.4164 51.8459 31.3087 51.5809 31.0973Z" fill="#263238"/>
<path d="M57.4972 29.4127L58.7339 30.0952C58.8218 29.9257 58.8408 29.7288 58.7869 29.5456C58.7329 29.3624 58.6103 29.2072 58.4445 29.1124C58.363 29.0678 58.2734 29.0403 58.1809 29.0313C58.0885 29.0224 57.9952 29.0322 57.9067 29.0603C57.8182 29.0883 57.7363 29.134 57.6659 29.1946C57.5955 29.2552 57.5381 29.3293 57.4972 29.4127Z" fill="#263238"/>
<path d="M56.4105 35.2333L55.0919 35.7302C55.1204 35.8188 55.1665 35.9007 55.2274 35.971C55.2884 36.0413 55.3629 36.0986 55.4465 36.1394C55.5302 36.1802 55.6212 36.2036 55.7141 36.2084C55.8071 36.2131 55.9 36.1991 55.9874 36.167C56.1653 36.0967 56.3089 35.96 56.3878 35.7858C56.4668 35.6115 56.4749 35.4134 56.4105 35.2333Z" fill="#9A4A4D"/>
<path d="M51.5127 29.5602L52.8559 29.0851C52.8288 28.9963 52.784 28.9139 52.7242 28.8429C52.6643 28.7719 52.5908 28.7137 52.5079 28.6718C52.425 28.63 52.3344 28.6054 52.2418 28.5995C52.1491 28.5935 52.0562 28.6064 51.9686 28.6374C51.7894 28.7042 51.6424 28.8369 51.5576 29.0084C51.4729 29.1799 51.4568 29.3772 51.5127 29.5602Z" fill="#263238"/>
<path d="M55.0919 30.5266L54.9008 34.0048L53.0853 33.385L55.0919 30.5266Z" fill="#9A4A4D"/>
</svg>
