<svg width="130" height="120" viewBox="0 0 208 204" fill="none" xmlns="http://www.w3.org/2000/svg">
<path d="M0.75293 178.66H202.87" stroke="#263238" stroke-miterlimit="10"/>
<path opacity="0.2" d="M164.413 1.93308C163.352 1.93308 162.462 2.71072 162.142 3.78555H44.3521C44.0276 2.71072 43.1377 1.93308 42.0811 1.93308C40.7484 1.93308 39.6699 3.15155 39.6699 4.6573C39.6699 6.16304 40.7484 7.38151 42.0811 7.38151C43.1421 7.38151 44.032 6.60387 44.3521 5.52904H162.138C162.462 6.60387 163.352 7.38151 164.409 7.38151C165.741 7.38151 166.82 6.16304 166.82 4.6573C166.82 3.15155 165.741 1.93308 164.409 1.93308H164.413Z" fill="black"/>
<g opacity="0.2">
<path d="M72.2126 6.01933C73.8917 52.1576 75.3603 98.7317 77.1183 144.702L76.943 153.711C76.943 153.711 69.3937 153.711 65.4217 154.162C61.4498 154.613 55.2902 154.613 50.9194 154.613C46.5485 154.613 44.1636 152.815 44.1636 152.815L44.4485 144.692C45.3297 98.7466 46.2811 52.1675 46.9036 6.02429" stroke="black" stroke-linejoin="round"/>
<path d="M53.392 137.074L53.3701 142.503" stroke="black" stroke-linejoin="round"/>
<path d="M53.8042 31.231L53.4097 132.25" stroke="black" stroke-linejoin="round"/>
<path d="M53.905 4.99923L53.813 28.2194" stroke="black" stroke-linejoin="round"/>
<path d="M60.678 58.062L59.7749 125.315" stroke="black" stroke-linejoin="round"/>
<path d="M61.3798 5.59854L60.731 53.8567" stroke="black" stroke-linejoin="round"/>
<path d="M67 76.7649L67.2499 139.189" stroke="black" stroke-linejoin="round"/>
<path d="M66.8203 32.4396L66.9781 71.6435" stroke="black" stroke-linejoin="round"/>
<path d="M66.7148 6.20282L66.8025 27.6151" stroke="black" stroke-linejoin="round"/>
</g>
<g opacity="0.2">
<path d="M133.151 6.01933C131.537 54.8669 129.481 104.21 127.934 152.8C127.934 152.8 133.076 153.677 136.382 153.677H153.256C156.894 153.677 161.068 152.765 161.068 152.765C160.305 104.21 159.792 54.8669 158.46 6.01933" stroke="black" stroke-linejoin="round"/>
<path d="M151.971 137.074L151.989 142.503" stroke="black" stroke-linejoin="round"/>
<path d="M151.559 31.231L151.949 132.25" stroke="black" stroke-linejoin="round"/>
<path d="M151.458 4.99923L151.546 28.2194" stroke="black" stroke-linejoin="round"/>
<path d="M144.685 58.062L145.584 125.315" stroke="black" stroke-linejoin="round"/>
<path d="M143.983 5.59854L144.628 53.8567" stroke="black" stroke-linejoin="round"/>
<path d="M138.363 76.7649L138.109 139.189" stroke="black" stroke-linejoin="round"/>
<path d="M138.539 32.4396L138.381 71.6435" stroke="black" stroke-linejoin="round"/>
<path d="M138.644 6.20282L138.561 27.6151" stroke="black" stroke-linejoin="round"/>
</g>
<g opacity="0.2">
<path d="M72.9624 19.1302H84.8168V34.7523H73.7515" stroke="black" stroke-linejoin="round"/>
<path d="M99.2711 19.1701H86.8818V34.8418H99.2711V19.1701Z" stroke="black" stroke-linejoin="round"/>
</g>
<g opacity="0.2">
<path d="M132.559 19.1302H120.704V34.7523H131.769" stroke="black" stroke-linejoin="round"/>
<path d="M106.25 34.8368H118.639V19.1651H106.25V34.8368Z" stroke="black" stroke-linejoin="round"/>
</g>
<path opacity="0.2" d="M74.9173 90.1284H99.5906V43.2868H73.8345" stroke="black" stroke-linejoin="round"/>
<path opacity="0.2" d="M131.309 42.8904H106.097V90.1282H129.411" stroke="black" stroke-linejoin="round"/>
<path opacity="0.2" d="M75.7329 101.243H99.5908V148.332H77.5391" stroke="black" stroke-linejoin="round"/>
<path opacity="0.2" d="M129.683 100.847H106.097V148.768H127.6" stroke="black" stroke-linejoin="round"/>
<path opacity="0.2" d="M77.4297 151.76H127.934" stroke="black" stroke-linejoin="round"/>
<path opacity="0.2" d="M72.8613 13.7066H132.532" stroke="black" stroke-linejoin="round"/>
<path opacity="0.2" d="M102.839 14.0286V151.116" stroke="black" stroke-linejoin="round"/>
<path opacity="0.2" d="M73.6196 39.6611H131.66" stroke="black" stroke-linejoin="round"/>
<path d="M201.857 138.773C200.923 139.099 198.744 138.773 198.744 138.773C198.722 138.773 199.371 137.217 199.419 137.123C200.007 136.053 201.703 134.369 202.918 134.711C203.79 134.959 204.189 136.024 203.895 136.94C203.597 137.881 202.65 138.485 201.857 138.768V138.773Z" fill="#263238"/>
<path d="M181.567 138.084C181.567 138.084 181.331 136.395 181.326 136.286C181.296 135.023 181.887 132.566 183.067 132.096C183.917 131.754 184.768 132.398 184.969 133.344C185.18 134.315 184.689 135.409 184.158 136.137C183.54 136.994 181.563 138.079 181.563 138.079L181.567 138.084Z" fill="#263238"/>
<path d="M181.949 156.247C182.681 156.351 184.123 155.891 184.527 155.752C184.593 156.455 184.671 157.149 184.781 157.832C184.834 158.125 184.869 158.427 184.935 158.704C184.992 158.986 185.053 159.264 185.11 159.536C185.246 160.101 185.373 160.626 185.513 161.151C185.583 161.413 185.653 161.661 185.724 161.919C185.548 161.513 185.263 160.874 185.233 160.819C184.698 159.893 183.177 158.451 182.116 158.778C181.353 159.016 181.024 159.957 181.296 160.76C181.576 161.577 182.418 162.092 183.12 162.32C183.896 162.572 185.605 162.295 185.816 162.26C185.991 162.885 186.166 163.494 186.337 164.058C186.451 164.43 186.561 164.777 186.671 165.118H187.394C187.249 164.702 187.105 164.276 186.956 163.811C186.789 163.306 186.622 162.766 186.451 162.206C186.644 162.117 188.122 161.404 188.718 160.755C189.34 161.205 190.051 161.582 190.178 161.651C190.02 162.28 189.867 162.894 189.735 163.474C189.604 164.058 189.485 164.598 189.376 165.118H190.077C190.165 164.653 190.261 164.172 190.366 163.652C190.476 163.127 190.599 162.572 190.73 162.003C190.941 162.047 192.637 162.404 193.418 162.186C194.128 161.988 194.987 161.517 195.298 160.71C195.601 159.923 195.303 158.962 194.549 158.694C193.501 158.318 191.931 159.685 191.361 160.591C191.326 160.651 190.963 161.389 190.783 161.77C190.862 161.428 190.941 161.087 191.033 160.73C191.155 160.215 191.305 159.68 191.445 159.155C191.524 158.887 191.607 158.615 191.69 158.343C191.769 158.065 191.874 157.813 191.966 157.54C192.107 157.149 192.273 156.748 192.436 156.351C192.892 156.525 194.233 157.015 194.943 156.946C195.675 156.871 196.587 156.554 196.999 155.811C197.403 155.083 197.24 154.088 196.53 153.692C195.544 153.142 193.808 154.226 193.128 155.019C193.106 155.044 192.979 155.232 192.826 155.45C192.997 155.069 193.163 154.687 193.343 154.306C193.86 153.226 194.417 152.141 194.974 151.056C195.088 150.829 195.202 150.601 195.316 150.373C195.697 150.522 197.148 151.066 197.889 150.992C198.621 150.918 199.533 150.601 199.945 149.858C200.349 149.13 200.187 148.134 199.476 147.738C198.49 147.188 196.758 148.273 196.074 149.065C196.048 149.095 195.895 149.313 195.728 149.566C196.022 148.971 196.307 148.372 196.574 147.768C197.043 146.713 197.455 145.648 197.784 144.578C197.92 144.632 199.608 145.306 200.432 145.227C201.164 145.152 202.076 144.835 202.488 144.092C202.891 143.364 202.729 142.369 202.019 141.972C201.033 141.423 199.297 142.507 198.617 143.3C198.569 143.354 198.016 144.162 197.828 144.459C197.828 144.444 197.837 144.434 197.841 144.419C198.174 143.295 198.372 142.171 198.512 141.096C198.652 140.026 198.705 139.001 198.731 138.06C198.757 137.118 198.731 136.252 198.705 135.489C198.687 135.073 198.665 134.696 198.639 134.345L198.657 134.36C198.657 134.36 199.112 132.948 199.134 132.854C199.349 131.774 199.209 129.54 198.262 128.906C197.582 128.45 196.749 128.842 196.434 129.619C196.109 130.417 196.368 131.452 196.714 132.185C197.069 132.933 198.284 134.028 198.591 134.295C198.608 134.662 198.626 135.053 198.639 135.489C198.652 136.252 198.661 137.113 198.617 138.05C198.604 138.297 198.582 138.57 198.569 138.827C198.516 138.381 198.437 137.772 198.424 137.713C198.174 136.638 197.135 134.731 196.039 134.662C195.25 134.612 194.671 135.39 194.707 136.247C194.742 137.123 195.395 137.911 196 138.377C196.631 138.867 198.196 139.204 198.538 139.273C198.494 139.848 198.433 140.442 198.341 141.051C198.183 142.106 197.964 143.226 197.613 144.325L197.552 144.315C197.552 143.899 197.521 143.023 197.512 142.948C197.368 141.854 196.521 139.828 195.439 139.62C194.658 139.471 194.009 140.174 193.961 141.031C193.913 141.908 194.483 142.77 195.04 143.31C195.68 143.934 197.468 144.518 197.539 144.538C197.201 145.563 196.785 146.584 196.307 147.594C195.965 148.327 195.588 149.055 195.206 149.779C195.206 149.486 195.176 148.332 195.167 148.253C195.022 147.158 194.176 145.133 193.093 144.925C192.313 144.776 191.664 145.479 191.616 146.336C191.568 147.213 192.142 148.075 192.694 148.615C193.317 149.224 195.031 149.793 195.176 149.838C195 150.165 194.829 150.497 194.654 150.824C194.08 151.894 193.501 152.968 192.953 154.043C192.764 154.415 192.589 154.791 192.414 155.168C192.409 154.727 192.383 153.929 192.374 153.86C192.23 152.76 191.383 150.739 190.301 150.531C189.52 150.383 188.871 151.086 188.823 151.943C188.775 152.82 189.345 153.682 189.902 154.222C190.458 154.766 191.892 155.277 192.295 155.415C192.006 156.044 191.734 156.673 191.493 157.307C191.392 157.585 191.278 157.857 191.195 158.13C191.107 158.402 191.02 158.669 190.932 158.937C190.77 159.492 190.621 160.012 190.48 160.532C190.41 160.794 190.349 161.047 190.279 161.304C190.331 160.859 190.406 160.15 190.406 160.081C190.41 158.972 189.845 156.827 188.801 156.436C188.047 156.158 187.315 156.738 187.148 157.575C187.127 157.684 187.118 157.788 187.113 157.897C186.609 158.709 186.32 159.888 186.298 160.626C186.298 160.695 186.355 161.537 186.39 161.968C186.289 161.631 186.188 161.3 186.088 160.943C185.943 160.438 185.798 159.898 185.662 159.373C185.601 159.1 185.535 158.823 185.469 158.541C185.399 158.258 185.364 157.981 185.307 157.699C185.233 157.283 185.176 156.847 185.119 156.416C185.583 156.277 186.942 155.846 187.499 155.346C188.073 154.831 188.678 153.994 188.657 153.117C188.639 152.26 188.016 151.527 187.227 151.641C186.136 151.795 185.219 153.781 185.035 154.87C185.031 154.905 185.013 155.143 184.996 155.42C184.952 154.994 184.904 154.573 184.869 154.142C184.772 152.919 184.711 151.666 184.641 150.413C184.628 150.15 184.61 149.893 184.593 149.63C184.983 149.516 186.46 149.065 187.043 148.54C187.618 148.025 188.223 147.188 188.201 146.311C188.183 145.455 187.561 144.721 186.771 144.835C185.68 144.989 184.764 146.975 184.579 148.065C184.575 148.104 184.553 148.382 184.531 148.699C184.487 148.02 184.43 147.342 184.36 146.673C184.237 145.499 184.058 144.355 183.808 143.26C183.948 143.221 185.684 142.73 186.333 142.151C186.907 141.636 187.512 140.799 187.49 139.922C187.473 139.065 186.85 138.332 186.061 138.446C184.97 138.599 184.053 140.586 183.869 141.675C183.856 141.755 183.79 142.77 183.777 143.131C183.777 143.117 183.773 143.107 183.768 143.092C183.497 141.943 183.111 140.888 182.703 139.902C182.295 138.921 181.839 138.035 181.405 137.232C180.967 136.43 180.524 135.722 180.13 135.103C179.91 134.771 179.709 134.469 179.516 134.191H179.538C179.538 134.191 179.231 132.73 179.2 132.641C178.854 131.606 177.644 129.832 176.543 129.892C175.754 129.936 175.25 130.778 175.364 131.625C175.483 132.492 176.206 133.196 176.85 133.592C177.512 133.998 179.06 134.152 179.446 134.181C179.643 134.473 179.845 134.79 180.068 135.147C180.454 135.776 180.879 136.489 181.3 137.302C181.414 137.52 181.524 137.752 181.638 137.98C181.375 137.643 181.011 137.183 180.971 137.143C180.239 136.405 178.442 135.459 177.495 136.088C176.811 136.539 176.71 137.549 177.157 138.243C177.613 138.951 178.543 139.199 179.279 139.214C180.042 139.228 181.515 138.535 181.835 138.381C182.081 138.892 182.317 139.417 182.541 139.986C182.927 140.967 183.29 142.032 183.532 143.171C183.501 143.186 183.505 143.186 183.475 143.201C183.269 142.854 182.817 142.141 182.773 142.086C182.12 141.259 180.423 140.1 179.419 140.605C178.696 140.967 178.499 141.958 178.876 142.706C179.262 143.468 180.16 143.83 180.888 143.934C181.725 144.053 183.505 143.429 183.571 143.404C183.79 144.469 183.939 145.578 184.036 146.718C184.106 147.545 184.15 148.382 184.185 149.224C184.045 148.976 183.457 148.035 183.404 147.976C182.751 147.148 181.055 145.989 180.051 146.495C179.327 146.856 179.13 147.847 179.507 148.595C179.893 149.358 180.792 149.719 181.519 149.823C182.339 149.942 184.045 149.348 184.185 149.298C184.202 149.68 184.22 150.061 184.233 150.447C184.277 151.7 184.316 152.954 184.391 154.192C184.417 154.623 184.457 155.044 184.492 155.465C184.273 155.103 183.86 154.449 183.821 154.4C183.168 153.573 181.471 152.414 180.467 152.919C179.744 153.28 179.547 154.271 179.924 155.019C180.309 155.782 181.208 156.143 181.936 156.247H181.949Z" fill="#263238"/>
<path d="M188.214 183.227C183.461 183.227 179.612 178.878 179.612 173.509V164.167H196.815V173.509C196.815 178.878 192.966 183.227 188.214 183.227Z" fill="#8F8F8F" stroke="#263238" stroke-linecap="round" stroke-linejoin="round"/>
<path d="M103.852 87.8745C102.519 85.0759 97.0918 85.1156 97.0918 85.1156C97.0918 85.1156 100.042 88.0924 100.419 90.0291" stroke="#263238" stroke-miterlimit="10"/>
<path d="M85.7724 61.1475C85.7724 61.1475 83.6286 57.2445 80.1696 56.2984C76.715 55.3574 69.4419 58.9929 63.1289 66.2641C56.8115 73.5353 58.3635 77.0371 59.0781 79.058C59.7927 81.0789 60.3889 83.6347 60.3889 83.6347C60.3889 83.6347 56.6931 82.02 54.5494 83.9021C52.4056 85.7843 55.6234 91.307 56.0969 91.8469C56.5748 92.3868 52.879 94.269 52.5196 94.6752C52.1601 95.0813 49.6612 97.9046 51.0904 100.465C52.5195 103.026 58.9553 106.929 58.9553 107.33C58.9553 107.732 57.7628 110.966 59.5515 112.313C61.3402 113.66 64.4397 113.928 65.6278 113.66C66.8159 113.393 74.4485 115.141 75.2814 107.737C76.1144 100.332 73.7339 88.3451 73.7339 88.3451L90.6562 75.8236L97.092 85.1157C97.092 85.1157 101.546 84.4074 102.975 81.9803C104.405 79.5583 103.168 71.7819 99.9504 68.9586C96.7325 66.1353 96.373 68.8249 96.373 68.8249C96.373 68.8249 96.4914 63.7083 92.3221 60.8801C88.1529 58.0519 85.768 61.1475 85.768 61.1475H85.7724Z" fill="#263238" stroke="#263238" stroke-miterlimit="10"/>
<path d="M52.6425 79.1916C55.3825 79.0579 60.389 83.6345 60.389 83.6345C60.389 83.6345 55.2641 81.6137 53.2387 82.9609C51.2133 84.3082 51.5684 86.4628 51.5684 86.4628" stroke="#263238" stroke-miterlimit="10"/>
<path d="M71.8312 102.753C71.8312 102.753 73.0236 105.309 72.0679 107.87C71.1166 110.431 70.3976 110.025 66.11 112.179C61.8181 114.334 49.1877 119.45 47.0439 123.893C44.9001 128.336 43.3481 136.415 43.7076 144.092C44.0671 151.769 48.4731 176.679 49.4288 177.753C50.3801 178.828 51.6909 178.695 51.6909 178.695H125.461C125.461 178.695 129.63 177.753 129.871 170.616C130.112 163.479 128.201 156.881 126.535 153.245C124.865 149.61 122.243 140.724 119.385 132.779C116.526 124.834 115.807 118.643 111.998 115.409C108.184 112.179 101.511 110.698 101.511 110.698L92.9315 108.137L91.7391 106.924L71.8356 102.748L71.8312 102.753Z" fill="#B498B9" stroke="#263238" stroke-miterlimit="10"/>
<path d="M109.503 174.812C109.503 174.812 109.328 175.614 110.744 175.916C112.164 176.219 113.405 177.219 115.268 176.719C117.131 176.219 118.815 174.713 118.903 169.908C118.99 165.099 118.017 163.098 116.154 161.993C114.291 160.889 110.476 162.593 110.034 163.098C109.591 163.603 109.236 164.901 109.323 166.104C109.411 167.308 109.499 174.822 109.499 174.822L109.503 174.812Z" fill="#B498B9" stroke="#263238" stroke-miterlimit="10"/>
<path d="M110.832 162.087C110.832 162.087 114.111 159.784 114.909 158.278C115.707 156.777 121.559 155.574 124.041 157.377C126.522 159.179 126.702 160.982 127.057 161.884" stroke="#263238" stroke-miterlimit="10"/>
<path d="M110.744 175.916C110.744 175.916 113.935 178.521 118.372 178.72" stroke="#263238" stroke-miterlimit="10"/>
<path d="M117.815 155.762C117.815 155.762 122.221 154.102 125.163 156.039" stroke="#263238" stroke-miterlimit="10"/>
<path d="M127.491 163.37C127.491 163.37 127.736 164.474 127.613 166.138" stroke="#263238" stroke-miterlimit="10"/>
<path d="M87.2017 159.744C87.7804 156.202 87.7803 134.825 87.7803 134.825C87.7803 134.825 88.4774 149.12 91.612 156.202" fill="#263238"/>
<path d="M87.2017 159.744C87.7804 156.202 87.7803 134.825 87.7803 134.825C87.7803 134.825 88.4774 149.12 91.612 156.202" stroke="#263238" stroke-miterlimit="10"/>
<path d="M110.165 136.757C111.292 142.141 112.8 150.615 112.506 156.074" stroke="#263238" stroke-miterlimit="10"/>
<path d="M109.021 131.68C109.021 131.68 109.258 132.641 109.613 134.216" stroke="#263238" stroke-miterlimit="10"/>
<path d="M66.1099 112.179C65.9257 112.274 65.7197 112.373 65.5005 112.477C66.6929 115.057 69.8188 120.842 75.8819 126.182C83.9879 133.319 87.7801 134.825 87.7801 134.825C89.4504 133.75 97.0962 116.35 97.6924 111.233C97.7626 110.649 97.8239 110.114 97.8853 109.614L92.9226 108.133L91.7301 106.919L71.8266 102.744C71.8266 102.744 73.0191 105.3 72.0634 107.86C71.112 110.421 70.3931 110.015 66.1055 112.17L66.1099 112.179Z" fill="white" stroke="#263238" stroke-miterlimit="10"/>
<path d="M72.6904 119.629L82.2432 121.546C82.2432 121.546 84.3651 122.744 84.7904 124.186" stroke="#263238" stroke-miterlimit="10"/>
<path d="M94.5229 109.97C94.5229 109.97 92.8833 122.769 90.7965 127.826C88.7097 132.879 87.4515 136.098 87.7847 134.825C88.1135 133.552 94.6062 124.29 97.697 111.233L94.5273 109.97H94.5229Z" fill="#263238" stroke="#263238" stroke-miterlimit="10"/>
<path d="M91.9716 108.004C91.9716 108.004 91.4718 111.976 93.186 114.993" stroke="#263238" stroke-miterlimit="10"/>
<path d="M96.1404 97.0971C96.1404 97.0971 102.458 95.6161 103.65 98.0382C104.843 100.46 103.291 105.176 103.291 105.716C103.291 106.255 110.559 106.79 111.515 110.832C112.466 114.874 108.061 118.643 106.153 120.124C104.246 121.605 107.701 123.76 103.65 124.973C99.5994 126.187 102.576 121.204 102.576 121.204C102.576 121.204 98.6436 124.3 97.2145 119.455C95.7853 114.611 97.929 111.644 97.6923 111.243C97.4556 110.837 92.3306 110.168 91.9712 108.014C91.6117 105.859 95.7853 100.336 96.1404 97.107V97.0971Z" fill="#263238" stroke="#263238" stroke-miterlimit="10"/>
<path d="M69.6833 119.183L85.1764 110.971L72.6644 105.181C72.6644 105.181 72.1866 107.469 71.7131 108.95C71.2396 110.431 66.1103 112.18 66.1103 112.18C66.1103 112.18 65.9919 114.874 69.6877 119.183H69.6833Z" fill="#263238" stroke="#263238" stroke-miterlimit="10"/>
<path d="M90.6609 72.7282C90.6609 72.7282 92.6731 75.6753 96.1409 79.5932C96.8555 80.4006 97.5701 81.3417 97.5701 81.3417C97.5701 81.3417 96.3689 83.5557 96.1102 88.1968C95.8866 92.2138 97.4605 95.0717 96.1409 100.733C95.0405 105.439 89.8235 111.234 88.0348 112.581C86.2461 113.928 83.3878 113.121 81.4807 112.175C79.5737 111.234 75.8779 109.411 74.5145 108.103C70.8231 104.542 67.5351 93.9969 67.1756 91.4411C66.8161 88.8803 66.6978 85.5171 66.6978 85.5171C66.6978 85.5171 69.201 85.5171 75.8735 82.149C82.546 78.7809 90.6521 72.7232 90.6521 72.7232L90.6609 72.7282Z" fill="white" stroke="#263238" stroke-miterlimit="10"/>
<path d="M88.92 72.5099C88.92 72.5099 85.5794 77.1758 79.2006 81.7624C72.8218 86.3489 68.7622 83.7287 68.7622 83.7287C68.7622 83.7287 73.9836 87.4436 79.2006 85.4772C84.422 83.5108 91.3794 72.3713 91.3794 72.3713L88.92 72.5099Z" fill="#263238" stroke="#263238" stroke-miterlimit="10"/>
<path d="M82.1335 92.8227C82.1335 92.8227 81.9626 93.5855 80.1914 94.4423L82.1335 92.8227Z" fill="white"/>
<path d="M82.1335 92.8227C82.1335 92.8227 81.9626 93.5855 80.1914 94.4423" stroke="#263238" stroke-miterlimit="10"/>
<path d="M90.1567 92.6297C90.1567 92.6297 90.6653 93.2042 92.5197 93.8679L90.1567 92.6297Z" fill="white"/>
<path d="M90.1567 92.6297C90.1567 92.6297 90.6653 93.2042 92.5197 93.8679" stroke="#263238" stroke-miterlimit="10"/>
<path d="M71.8532 82.9264C71.8532 82.9264 71.2832 91.1039 69.7576 92.1788C68.232 93.2536 65.1851 85.7249 65.1851 85.7249L70.7089 79.053L71.8532 82.9264Z" fill="#263238" stroke="#263238" stroke-miterlimit="10"/>
<path d="M82.5019 83.0157C82.5019 83.0157 76.7983 87.1665 76.487 87.954C76.1714 88.7415 77.7321 88.0134 78.9684 87.5132C80.2091 87.0129 84.1328 85.3239 84.2424 84.1797C84.352 83.0356 83.7119 82.3867 82.5019 83.0157Z" fill="#263238"/>
<path d="M88.2758 83.9025C88.2758 83.9025 87.2017 85.2497 88.0391 85.6509C88.8764 86.0521 93.0456 87.5381 93.7602 87.1319C94.4748 86.7257 91.9715 85.111 90.9018 84.4374C89.8278 83.7638 89.2315 82.8227 88.2802 83.8975L88.2758 83.9025Z" fill="#263238"/>
<path d="M86.0576 99.98C86.0576 99.98 88.916 99.3064 88.6793 97.8254C88.4425 96.3444 86.8906 93.5162 86.8906 93.5162L87.009 86.7849" fill="white"/>
<path d="M86.0576 99.98C86.0576 99.98 88.916 99.3064 88.6793 97.8254C88.4425 96.3444 86.8906 93.5162 86.8906 93.5162L87.009 86.7849" stroke="#263238" stroke-miterlimit="10"/>
<path d="M85.7637 99.2174C85.7637 99.2174 84.9176 99.9802 84.1591 99.9802C83.4007 99.9802 83.313 99.1233 83.484 98.5488" fill="white"/>
<path d="M85.7637 99.2174C85.7637 99.2174 84.9176 99.9802 84.1591 99.9802C83.4007 99.9802 83.313 99.1233 83.484 98.5488" stroke="#263238" stroke-miterlimit="10"/>
<path d="M83.9839 103.834C83.9839 103.834 86.1277 102.62 87.3201 103.294" stroke="#263238" stroke-miterlimit="10"/>
<path d="M92.6247 90.9059C92.6247 91.9114 92.2784 92.7237 91.8487 92.7237C91.4191 92.7237 91.0728 91.9114 91.0728 90.9059C91.0728 89.9005 91.4191 89.0882 91.8487 89.0882C92.2784 89.0882 92.6247 89.9005 92.6247 90.9059Z" fill="#263238"/>
<path d="M81.9016 91.1733C81.9016 92.1788 81.5552 92.9911 81.1256 92.9911C80.6959 92.9911 80.3496 92.1788 80.3496 91.1733C80.3496 90.1678 80.6959 89.3555 81.1256 89.3555C81.5552 89.3555 81.9016 90.1678 81.9016 91.1733Z" fill="#263238"/>
<path d="M63.8435 99.3858C63.8435 99.3858 66.2284 96.1563 67.776 96.0177C69.3235 95.8839 69.4463 96.825 69.4463 97.6324C69.4463 98.4397 65.9917 100.594 65.3955 102.749C64.7992 104.904 64.7992 105.978 63.9663 107.732C63.1333 109.48 61.7041 110.961 61.7041 110.961C61.7041 110.961 62.182 101.942 63.8479 99.3808L63.8435 99.3858Z" fill="white" stroke="#263238" stroke-miterlimit="10"/>
<path d="M53.002 117.97C53.002 117.97 55.742 105.448 55.742 105.042C55.742 104.636 58.1269 88.4789 58.1269 88.4789C58.1269 88.4789 63.9664 83.2286 64.4443 82.5549C64.9221 81.8813 65.6367 79.9991 66.5881 80.6678C67.5394 81.3414 67.1843 84.3034 67.1843 84.3034C67.1843 84.3034 68.1356 84.977 68.1356 86.3243C68.1356 87.6715 67.6578 89.9599 67.1843 91.4408C66.7064 92.9218 63.848 99.3856 63.848 99.3856C63.848 99.3856 62.774 106.657 62.3005 108.945C61.827 111.233 59.7972 114.869 59.7972 114.869L59.4377 117.697L53.002 117.965V117.97Z" fill="white" stroke="#263238" stroke-miterlimit="10"/>
<path d="M67.1799 84.3086C67.1799 84.3086 65.8691 87.538 65.6323 88.3503C65.3956 89.1577 62.8923 91.3123 62.5328 92.927C62.1733 94.5417 60.7441 98.1773 60.7441 98.1773" stroke="#263238" stroke-miterlimit="10"/>
<path d="M64.4396 82.5549C64.4396 82.5549 63.6067 86.7304 63.2472 87.2653C62.8877 87.8052 60.3888 91.4408 60.0293 92.6494C59.6698 93.8629 58.6001 96.2849 58.6001 96.2849" stroke="#263238" stroke-miterlimit="10"/>
<path d="M62.533 88.2114L60.3892 90.4997" stroke="#263238" stroke-miterlimit="10"/>
<path d="M49.7356 116.216C49.7356 116.216 48.1091 124.414 48.8676 125.271C49.626 126.128 61.3226 126.984 61.647 126.984C61.9714 126.984 62.8395 118.42 62.515 116.949C62.1906 115.483 57.3156 115.112 55.1499 115.112C52.9842 115.112 50.2748 114.869 49.7356 116.211V116.216Z" fill="#B498B9" stroke="#263238" stroke-miterlimit="10"/>
<path d="M48.8678 125.271C48.8678 125.271 47.7849 129.431 47.7849 132.121C47.7849 134.81 45.4 153.29 44.2119 162.469C43.0195 171.647 44.2119 175.193 46.5969 177.397C48.9774 179.601 52.66 181.068 55.2597 180.458C57.8594 179.844 61.2176 179.968 63.0589 175.807C64.9002 171.647 65.4438 163.573 64.3566 157.451C63.2737 151.334 61.6472 126.98 61.6472 126.98L48.8678 125.266V125.271Z" fill="#B498B9" stroke="#263238" stroke-miterlimit="10"/>
<path d="M110.923 164.692C110.923 164.692 114.203 165.292 114.825 167.199C115.448 169.101 114.913 171.206 112.962 173.009C111.011 174.812 106.934 176.317 106.399 176.317C105.864 176.317 107.109 168.903 108.175 167.1C109.24 165.297 110.923 164.697 110.923 164.697V164.692Z" fill="white" stroke="#263238" stroke-miterlimit="10"/>
<path d="M74.1985 155.678C74.1985 155.678 71.91 160.017 72.2257 165.381C72.5896 171.597 74.0845 181.642 74.0845 181.642C74.0845 181.642 90.9148 178.497 98.3457 176.788C105.777 175.084 107.166 174.821 107.166 174.821C107.166 174.821 108.096 167.347 109.95 164.068L111.809 160.789C111.809 160.789 110.301 151.74 106.469 150.69C102.638 149.64 74.1985 155.673 74.1985 155.673V155.678Z" fill="#D4D4D4" stroke="#263238" stroke-miterlimit="10"/>
<path d="M100.989 172.711C100.989 172.711 102.142 175.014 103.738 176.218C105.334 177.422 107.017 175.817 107.017 175.817L100.989 172.711Z" fill="white" stroke="#263238" stroke-miterlimit="10"/>
<path d="M100.279 169.001C100.279 169.001 99.9239 171.404 100.454 172.008C100.985 172.607 105.421 176.317 107.017 175.817C108.613 175.317 109.236 173.712 109.056 173.013C108.88 172.31 100.275 169.006 100.275 169.006L100.279 169.001Z" fill="white" stroke="#263238" stroke-miterlimit="10"/>
<path d="M100.547 167.6C100.547 167.6 99.7487 167.902 100.279 169.002C100.81 170.106 105.864 172.811 107.373 173.009C108.881 173.207 109.679 172.607 110.121 171.107C110.564 169.606 111.187 169.101 110.652 168.803C110.121 168.501 100.542 167.6 100.542 167.6H100.547Z" fill="white" stroke="#263238" stroke-miterlimit="10"/>
<path d="M100.547 167.6C100.547 167.6 108.35 169.502 110.034 169.502C111.717 169.502 112.515 167.496 112.695 166.396C112.87 165.292 113.317 164.692 110.919 164.692C108.521 164.692 102.138 165.396 101.077 165.693C100.012 165.995 99.3936 166.694 100.547 167.595V167.6Z" fill="white" stroke="#263238" stroke-miterlimit="10"/>
<path d="M84.1809 171.547C84.1809 171.547 109.021 165.386 116.333 165.252C116.333 165.252 110.761 150.17 109.135 148.595C107.508 147.02 85.6846 152.23 79.8889 153.756C74.1809 155.262 74.159 155.45 74.1941 155.673C74.1941 155.673 81.2743 161.968 84.1765 171.542L84.1809 171.547Z" fill="white" stroke="#263238" stroke-miterlimit="10"/>
<path d="M105.417 155.658L107.403 162.226L105.921 162.503C105.653 162.552 105.403 162.572 105.171 162.557C104.939 162.543 104.724 162.488 104.531 162.389C104.338 162.29 104.163 162.141 104.014 161.943C103.865 161.74 103.738 161.478 103.641 161.146C103.562 160.878 103.527 160.645 103.536 160.447C103.545 160.244 103.597 160.076 103.694 159.942C103.79 159.808 103.93 159.704 104.11 159.63C103.86 159.63 103.632 159.576 103.435 159.467C103.238 159.358 103.067 159.199 102.922 158.991C102.777 158.783 102.659 158.526 102.563 158.209C102.466 157.896 102.418 157.609 102.418 157.357C102.418 157.104 102.462 156.881 102.558 156.698C102.65 156.515 102.791 156.361 102.979 156.237C103.168 156.118 103.4 156.029 103.685 155.98L105.421 155.658H105.417ZM105.487 159.744L105.114 159.813C104.895 159.853 104.737 159.922 104.641 160.011C104.544 160.106 104.492 160.229 104.487 160.383C104.487 160.537 104.518 160.725 104.584 160.948C104.654 161.18 104.746 161.354 104.855 161.468C104.965 161.582 105.101 161.646 105.259 161.666C105.417 161.686 105.61 161.676 105.833 161.631L106.048 161.592L105.487 159.744ZM104.566 156.703L104.15 156.782C103.816 156.841 103.615 156.975 103.549 157.173C103.483 157.371 103.505 157.654 103.615 158.02C103.694 158.283 103.79 158.496 103.895 158.649C104.001 158.803 104.132 158.907 104.29 158.966C104.448 159.021 104.632 159.031 104.851 158.991L105.233 158.922L104.562 156.708L104.566 156.703Z" fill="black"/>
<path d="M101.23 156.43L103.216 162.998L102.129 163.201L100.143 156.633L101.23 156.43Z" fill="black"/>
<path d="M99.2092 156.807L101.195 163.375L100.09 163.578L98.3543 157.837L96.8944 158.109L96.6445 157.282L99.2092 156.807Z" fill="black"/>
<path d="M96.1008 157.381L98.0868 163.949L96.982 164.152L95.2459 158.411L93.786 158.684L93.5361 157.857L96.1008 157.381Z" fill="black"/>
<path d="M91.445 158.149C91.8089 158.08 92.1333 158.104 92.4226 158.213C92.712 158.322 92.9663 158.515 93.1811 158.788C93.3959 159.06 93.5756 159.412 93.7203 159.843L92.8347 160.219C92.7471 159.967 92.6506 159.749 92.5454 159.561C92.4402 159.372 92.3218 159.239 92.1947 159.149C92.0675 159.06 91.9229 159.031 91.7606 159.06C91.5809 159.095 91.4713 159.174 91.4318 159.303C91.3924 159.432 91.4012 159.585 91.4538 159.764C91.5414 160.051 91.673 160.274 91.8483 160.437C92.0237 160.601 92.2385 160.754 92.4928 160.898L93.4748 161.487C93.751 161.646 93.9877 161.839 94.1894 162.062C94.3911 162.285 94.5445 162.577 94.6541 162.939C94.8119 163.459 94.7944 163.885 94.6015 164.216C94.4086 164.548 94.071 164.761 93.5888 164.85C93.3038 164.905 93.0539 164.9 92.8391 164.841C92.6199 164.781 92.4314 164.677 92.2692 164.534C92.107 164.385 91.9667 164.212 91.8483 164.008C91.73 163.805 91.6247 163.587 91.5371 163.35L92.4226 162.998C92.4928 163.201 92.5717 163.379 92.655 163.538C92.7383 163.691 92.8304 163.81 92.94 163.89C93.0496 163.964 93.1855 163.989 93.3433 163.959C93.5055 163.929 93.6151 163.845 93.6677 163.716C93.7203 163.582 93.7203 163.429 93.6677 163.261C93.6019 163.038 93.5011 162.864 93.374 162.736C93.2468 162.607 93.0802 162.483 92.8742 162.359L91.9009 161.775C91.5853 161.591 91.2916 161.368 91.0197 161.096C90.7523 160.824 90.5507 160.472 90.4191 160.036C90.3227 159.724 90.3052 159.432 90.3578 159.164C90.4104 158.897 90.5287 158.674 90.7129 158.496C90.897 158.317 91.1425 158.198 91.445 158.144V158.149Z" fill="black"/>
<path d="M82.6636 158.174L108.889 152.839" stroke="#263238" stroke-miterlimit="10"/>
<path d="M104.325 150.076L106.066 153.587" stroke="#263238" stroke-miterlimit="10"/>
<path d="M95.3687 151.551L97.3239 154.959" stroke="#263238" stroke-miterlimit="10"/>
<path d="M84.1279 154.31L85.43 156.519" stroke="#263238" stroke-miterlimit="10"/>
<path d="M81.3267 156.118L107.552 150.779" stroke="#263238" stroke-miterlimit="10"/>
<path d="M166.627 141.893C166.627 141.893 172.475 137.777 174.01 138.644C175.544 139.511 174.01 145.9 173.628 147.421L173.247 148.937L166.631 141.893H166.627Z" fill="#B498B9" stroke="#263238" stroke-miterlimit="10"/>
<path d="M169.792 145.578C169.792 145.578 173.339 138.535 174.106 139.728C174.873 140.922 173.628 144.82 173.628 144.82" fill="#B498B9"/>
<path d="M169.792 145.578C169.792 145.578 173.339 138.535 174.106 139.728C174.873 140.922 173.628 144.82 173.628 144.82" stroke="#263238" stroke-miterlimit="10"/>
<path d="M145.531 172.117L153.01 184.252H156.846L159.819 175.262" fill="#263238"/>
<path d="M145.531 172.117L153.01 184.252H156.846L159.819 175.262" stroke="#263238" stroke-miterlimit="10"/>
<path d="M159.529 178.621L162.12 184.252H165.956L168.929 175.262" fill="#263238"/>
<path d="M159.529 178.621L162.12 184.252H165.956L168.929 175.262" stroke="#263238" stroke-miterlimit="10"/>
<path d="M139.586 172.117L147.066 184.252H150.902L153.874 175.262" fill="#B498B9"/>
<path d="M139.586 172.117L147.066 184.252H150.902L153.874 175.262" stroke="#263238" stroke-miterlimit="10"/>
<path d="M139.994 153.067C139.266 155.049 137.548 156.128 136.154 155.475C134.76 154.821 134.22 152.686 134.948 150.705C135.676 148.723 137.394 147.644 138.788 148.298C140.183 148.951 140.722 151.086 139.994 153.067Z" fill="#B498B9" stroke="#263238" stroke-miterlimit="10"/>
<path d="M176.609 159.893C176.839 148.273 167.798 138.62 156.416 138.333C145.035 138.045 135.622 147.233 135.392 158.853C135.162 170.473 144.202 180.126 155.584 180.414C166.966 180.701 176.379 171.514 176.609 159.893Z" fill="#B498B9" stroke="#263238" stroke-miterlimit="10"/>
<path d="M151.094 146.767C151.094 146.767 154.26 137.232 156.175 136.257C158.091 135.281 159.915 140.482 160.489 143.191C161.064 145.9 160.682 146.767 160.682 146.767" fill="#B498B9"/>
<path d="M151.094 146.767C151.094 146.767 154.26 137.232 156.175 136.257C158.091 135.281 159.915 140.482 160.489 143.191C161.064 145.9 160.682 146.767 160.682 146.767" stroke="#263238" stroke-miterlimit="10"/>
<path d="M156.175 136.261C156.175 136.261 154.163 141.68 153.97 144.384C153.777 147.089 153.396 149.694 155.697 149.149C157.999 148.609 160.204 147.852 159.818 144.058" fill="#B498B9"/>
<path d="M156.175 136.261C156.175 136.261 154.163 141.68 153.97 144.384C153.777 147.089 153.396 149.694 155.697 149.149C157.999 148.609 160.204 147.852 159.818 144.058" stroke="#263238" stroke-miterlimit="10"/>
<path d="M168.678 171.172C172.191 170.619 174.666 167.144 174.206 163.411C173.745 159.677 170.524 157.099 167.011 157.652C163.498 158.205 161.023 161.68 161.483 165.413C161.944 169.147 165.165 171.725 168.678 171.172Z" fill="#B498B9" stroke="#263238" stroke-miterlimit="10"/>
<path d="M170.441 171.175C173.954 170.622 176.429 167.147 175.969 163.414C175.509 159.68 172.287 157.102 168.774 157.655C165.261 158.207 162.786 161.682 163.247 165.416C163.707 169.149 166.928 171.728 170.441 171.175Z" fill="#B498B9" stroke="#263238" stroke-miterlimit="10"/>
<path d="M170.174 164.697C170.174 165.985 169.722 167.025 169.166 167.025C168.609 167.025 168.157 165.98 168.157 164.697C168.157 163.414 168.609 162.369 169.166 162.369C169.722 162.369 170.174 163.414 170.174 164.697Z" fill="#263238" stroke="#263238" stroke-miterlimit="10"/>
<path d="M174.01 164.212C174.01 165.499 173.558 166.54 173.001 166.54C172.445 166.54 171.993 165.495 171.993 164.212C171.993 162.929 172.445 161.884 173.001 161.884C173.558 161.884 174.01 162.929 174.01 164.212Z" fill="#263238" stroke="#263238" stroke-miterlimit="10"/>
<path d="M162.107 154.954C162.273 155.895 162.089 156.728 161.699 156.812C161.309 156.901 160.862 156.208 160.695 155.271C160.529 154.33 160.713 153.498 161.103 153.414C161.493 153.325 161.94 154.018 162.107 154.954Z" fill="#263238"/>
<path d="M166.899 154.088C167.065 155.029 166.881 155.861 166.491 155.945C166.101 156.034 165.654 155.341 165.487 154.405C165.321 153.463 165.505 152.631 165.895 152.547C166.285 152.458 166.732 153.151 166.899 154.088Z" fill="#263238"/>
<path d="M160.012 151.428L163.848 148.827" stroke="#263238" stroke-width="3" stroke-miterlimit="10"/>
<path d="M165.763 148.397L168.446 151.537" stroke="#263238" stroke-width="3" stroke-miterlimit="10"/>
<path d="M153.396 178.62L155.983 184.252H159.819L161.546 179.051" fill="#B498B9"/>
<path d="M153.396 178.62L155.983 184.252H159.819L161.546 179.051" stroke="#263238" stroke-miterlimit="10"/>
<path d="M123.541 179.339L100.012 189.334L133.878 202.133L155.592 187.348L123.541 179.339Z" fill="white" stroke="#263238" stroke-miterlimit="10"/>
<path d="M123.839 184.956L129.082 182.147L151.016 187.873L133.729 198.894L123.243 195.669" stroke="#263238" stroke-miterlimit="10"/>
<path d="M126.706 183.396L147.482 189.429" stroke="#263238" stroke-miterlimit="10"/>
<path d="M146.391 186.932L129.872 197.541" stroke="#263238" stroke-miterlimit="10"/>
<path d="M101.507 179.463L75.1587 187.234L106.053 202.48L134.44 188.963L101.507 179.463Z" fill="white" stroke="#263238" stroke-miterlimit="10"/>
<path d="M96.6491 189.562L88.7578 185.386L89.7924 185.01C89.981 184.941 90.1826 184.896 90.3974 184.876C90.6123 184.857 90.8534 184.866 91.112 184.906C91.3751 184.946 91.6644 185.025 91.9845 185.144C92.3045 185.258 92.6596 185.421 93.0586 185.634C93.3786 185.803 93.6285 185.956 93.8082 186.095C93.988 186.233 94.1019 186.352 94.1458 186.456C94.1896 186.56 94.1677 186.65 94.0756 186.719C94.2948 186.684 94.5404 186.694 94.8165 186.739C95.0927 186.788 95.3865 186.872 95.7065 186.991C96.0265 187.11 96.3729 187.274 96.7499 187.472C97.1269 187.67 97.4338 187.858 97.6749 188.027C97.9161 188.2 98.0783 188.353 98.1747 188.487C98.2668 188.626 98.2887 188.745 98.2405 188.849C98.1922 188.953 98.0695 189.042 97.8722 189.116L96.6622 189.557L96.6491 189.562ZM92.7517 186.813L93.0103 186.719C93.1638 186.664 93.2383 186.6 93.2383 186.521C93.2383 186.446 93.1638 186.357 93.0235 186.253C92.8832 186.149 92.6771 186.025 92.4097 185.887C92.1291 185.738 91.888 185.634 91.6863 185.57C91.4847 185.505 91.3049 185.481 91.1471 185.486C90.9893 185.495 90.8358 185.525 90.678 185.58L90.529 185.634L92.7517 186.808V186.813ZM96.4036 188.745L96.6929 188.641C96.9253 188.556 96.9779 188.443 96.8507 188.299C96.7236 188.155 96.4386 187.967 95.9958 187.734C95.6758 187.566 95.3996 187.437 95.1629 187.348C94.9261 187.259 94.7113 187.204 94.5228 187.184C94.3343 187.165 94.1633 187.184 94.0099 187.239L93.7468 187.333L96.4079 188.74L96.4036 188.745Z" fill="black"/>
<path d="M99.5602 188.497L91.6689 184.322L92.4274 184.044L100.319 188.22L99.5602 188.497Z" fill="black"/>
<path d="M100.967 187.987L93.0762 183.811L93.8434 183.529L100.744 187.18L101.761 186.808L102.756 187.333L100.972 187.987H100.967Z" fill="black"/>
<path d="M103.133 187.194L95.2417 183.019L96.0089 182.737L102.909 186.387L103.926 186.016L104.922 186.541L103.137 187.194H103.133Z" fill="black"/>
<path d="M106.465 186.075C106.211 186.169 105.908 186.194 105.553 186.16C105.198 186.125 104.799 186.026 104.356 185.867C103.913 185.709 103.427 185.496 102.896 185.223L103.313 184.852C103.624 185.01 103.913 185.144 104.181 185.258C104.448 185.372 104.676 185.446 104.873 185.491C105.066 185.535 105.22 185.535 105.329 185.491C105.452 185.446 105.474 185.377 105.386 185.283C105.299 185.189 105.145 185.085 104.935 184.976C104.588 184.792 104.268 184.659 103.962 184.575C103.659 184.49 103.326 184.411 102.966 184.347L101.559 184.074C101.169 184 100.783 183.901 100.402 183.777C100.02 183.653 99.6082 183.475 99.1742 183.247C98.5516 182.915 98.1658 182.628 98.0212 182.38C97.8765 182.133 97.9729 181.944 98.3105 181.821C98.5078 181.746 98.7314 181.717 98.9725 181.731C99.218 181.741 99.481 181.791 99.7572 181.865C100.038 181.944 100.323 182.043 100.617 182.167C100.91 182.291 101.208 182.425 101.502 182.573L101.064 182.925C100.809 182.796 100.573 182.687 100.358 182.588C100.139 182.494 99.9501 182.43 99.7792 182.39C99.6126 182.351 99.4723 182.356 99.3627 182.39C99.2487 182.43 99.2312 182.499 99.3101 182.598C99.389 182.692 99.5336 182.796 99.7397 182.905C100.007 183.044 100.253 183.153 100.485 183.222C100.717 183.292 100.976 183.356 101.27 183.411L102.659 183.678C103.107 183.757 103.571 183.876 104.062 184.025C104.553 184.173 105.058 184.386 105.575 184.659C105.952 184.857 106.241 185.05 106.447 185.238C106.653 185.426 106.759 185.59 106.767 185.739C106.776 185.882 106.675 185.996 106.465 186.07V186.075Z" fill="black"/>
<path d="M114.277 185.53L94.4702 193.54L106.04 199.151L127 189.562" stroke="#263238" stroke-miterlimit="10"/>
<path d="M97.2017 192.331L109.174 197.705" stroke="#263238" stroke-miterlimit="10"/>
<path d="M100.126 191.162L112.331 196.472" stroke="#263238" stroke-miterlimit="10"/>
<path d="M97.1885 195.001L116.873 186.759" stroke="#263238" stroke-miterlimit="10"/>
<path d="M115.492 185.525L125.816 188.923" stroke="#263238" stroke-miterlimit="10"/>
<path d="M112.34 186.679L124.475 190.691" stroke="#263238" stroke-miterlimit="10"/>
<path d="M90.191 186.451H60.6821L65.3906 200.201L90.191 186.451Z" fill="#C9C9C9" stroke="#263238" stroke-linecap="round" stroke-linejoin="round"/>
<path d="M63.7027 187.595H79.4457L62.9092 193.792" stroke="#263238" stroke-linecap="round" stroke-linejoin="round"/>
<path d="M65.5486 200.201L12.4185 196.477L5.72852 150.715L58.863 153.503L65.5486 200.201Z" fill="#C9C9C9" stroke="#263238" stroke-linecap="round" stroke-linejoin="round"/>
<path d="M65.5486 200.201L12.4185 196.477L5.72852 150.715L58.863 153.503L65.5486 200.201Z" fill="#C9C9C9" stroke="#263238" stroke-linecap="round" stroke-linejoin="round"/>
<path d="M63.8606 200.201L10.7262 196.477L4.04053 150.715L57.1706 153.503L63.8606 200.201Z" fill="#C9C9C9" stroke="#263238" stroke-linecap="round" stroke-linejoin="round"/>
<path d="M10.52 194.446L10.8357 196.477L65.5484 200.201L65.2327 198.171L10.52 194.446Z" fill="#263238" stroke="#263238" stroke-linecap="round" stroke-linejoin="round"/>
<path d="M90.1911 188.239L65.3906 200.201V198.418L90.1911 186.451V188.239Z" fill="#C9C9C9" stroke="#263238" stroke-linecap="round" stroke-linejoin="round"/>
</svg>
